{"glyphs":{"0":{"ha":1118,"x_min":34,"x_max":1084,"o":"m 469 1191 q 279 1112 358 1191 q 199 922 199 1034 l 199 434 q 279 244 199 323 q 469 165 358 165 l 648 165 q 839 244 760 165 q 918 434 918 323 l 918 922 q 839 1112 918 1034 q 648 1191 760 1191 l 469 1191 m 648 1356 q 956 1229 829 1356 q 1084 922 1084 1101 l 1084 434 q 956 127 1084 255 q 648 0 829 0 l 469 0 q 161 127 289 0 q 34 434 34 255 l 34 922 q 161 1229 34 1101 q 469 1356 289 1356 l 648 1356 m 469 971 q 433 956 448 971 q 418 921 418 941 l 418 435 q 433 400 418 415 q 469 385 448 385 l 648 385 q 685 400 670 385 q 700 435 700 415 l 700 921 q 685 956 700 941 q 648 971 670 971 l 469 971 m 648 1137 q 802 1073 738 1135 q 865 921 865 1009 l 865 435 q 802 283 865 347 q 648 220 738 221 l 469 220 q 316 283 380 221 q 252 435 252 347 l 252 921 q 316 1073 252 1009 q 469 1137 380 1135 l 648 1137 z "},"1":{"ha":624,"x_min":34,"x_max":590,"o":"m 590 1356 l 590 0 l 425 0 l 425 1192 l 34 1192 l 34 1356 l 590 1356 m 370 0 l 205 0 l 205 972 l 34 972 l 34 1138 l 370 1138 l 370 0 z "},"2":{"ha":1152,"x_min":34,"x_max":1118,"o":"m 419 385 l 1118 385 l 1118 220 l 254 220 l 254 437 q 317 588 254 525 q 471 651 381 651 l 682 652 q 873 732 793 652 q 952 922 952 811 q 873 1112 952 1034 q 682 1191 793 1191 l 102 1191 l 102 1356 l 682 1356 q 990 1229 863 1356 q 1118 922 1118 1101 q 990 614 1118 741 q 682 487 863 487 l 471 487 q 434 472 449 487 q 419 437 419 457 l 419 385 m 199 165 l 1118 165 l 1118 0 l 34 0 l 34 435 q 162 742 34 614 q 469 869 290 869 l 682 869 q 719 884 704 869 q 734 921 734 899 q 719 958 734 943 q 682 972 704 972 l 102 972 l 102 1137 l 682 1137 q 836 1073 772 1135 q 899 921 899 1009 q 836 768 899 831 q 682 704 772 704 l 469 704 q 279 625 358 704 q 199 435 199 547 l 199 165 z "},"3":{"ha":1043,"x_min":34,"x_max":1009,"o":"m 361 869 l 578 869 q 614 884 600 869 q 629 921 629 899 q 614 958 629 943 q 578 972 600 972 l 34 972 l 34 1137 l 578 1137 q 731 1073 667 1135 q 795 921 795 1009 q 731 768 795 831 q 578 704 667 704 l 361 704 l 361 869 m 361 652 l 574 652 q 727 589 663 652 q 791 435 791 525 q 727 283 791 347 q 574 220 663 221 l 34 220 l 34 385 l 574 385 q 610 400 595 385 q 625 435 625 415 q 610 472 625 457 q 574 487 595 487 l 361 487 l 361 652 m 814 799 q 844 924 844 856 q 764 1112 844 1034 q 574 1191 685 1191 l 34 1191 l 34 1356 l 574 1356 q 882 1229 754 1356 q 1009 924 1009 1101 q 936 678 1009 785 q 1009 434 1009 572 q 882 127 1009 255 q 574 0 754 0 l 34 0 l 34 165 l 574 165 q 764 244 685 165 q 844 434 844 323 q 814 559 844 503 q 765 625 795 594 q 689 680 730 659 q 765 734 730 699 q 814 799 795 764 z "},"4":{"ha":1324,"x_min":34,"x_max":1290,"o":"m 810 1356 l 307 385 l 1070 385 l 1070 0 l 906 0 l 906 220 l 34 220 l 624 1356 l 810 1356 m 1057 1356 l 667 605 l 1290 605 l 1290 0 l 1124 0 l 1124 439 l 396 439 l 871 1356 l 1057 1356 z "},"5":{"ha":1153,"x_min":34,"x_max":1119,"o":"m 1081 1137 l 1081 972 l 419 972 l 419 869 l 684 869 q 991 743 864 869 q 1119 434 1119 616 q 991 127 1119 255 q 684 0 864 0 l 35 0 l 35 165 l 684 165 q 874 244 795 165 q 954 434 954 323 q 874 625 954 545 q 684 704 795 704 l 254 704 l 254 1137 l 1081 1137 m 199 652 l 684 652 q 837 589 773 652 q 901 435 901 525 q 837 283 901 347 q 684 220 773 221 l 35 220 l 35 385 l 684 385 q 720 400 705 385 q 735 435 735 415 q 720 472 735 457 q 684 487 705 487 l 34 487 l 34 1356 l 1081 1356 l 1081 1192 l 199 1192 l 199 652 z "},"6":{"ha":1153,"x_min":34,"x_max":1119,"o":"m 419 487 l 419 435 q 434 400 419 415 q 471 385 449 385 l 670 385 q 707 400 692 385 q 722 435 722 415 q 707 472 722 457 q 670 487 692 487 l 419 487 m 254 652 l 670 652 q 823 589 760 652 q 887 435 887 525 q 823 283 887 347 q 670 220 760 221 l 471 220 q 317 283 381 221 q 254 435 254 347 l 254 652 m 684 165 q 874 244 795 165 q 954 434 954 323 q 874 625 954 545 q 684 704 795 704 l 254 704 l 254 955 q 307 1083 254 1029 q 435 1137 361 1137 l 1081 1137 l 1081 972 l 475 972 q 437 956 453 972 q 420 918 420 940 l 420 869 l 684 869 q 991 743 864 869 q 1119 434 1119 616 q 991 127 1119 255 q 684 0 864 0 l 469 0 q 161 127 289 0 q 34 434 34 255 l 34 951 q 153 1238 34 1119 q 439 1356 271 1356 l 1081 1356 l 1081 1191 l 439 1191 q 270 1120 340 1191 q 199 951 199 1050 l 199 434 q 279 244 199 323 q 469 165 358 165 l 684 165 z "},"7":{"ha":1161,"x_min":34,"x_max":1127,"o":"m 338 0 l 872 1191 l 34 1191 l 34 1356 l 1127 1356 l 519 0 l 338 0 m 99 0 l 534 972 l 34 972 l 34 1137 l 789 1138 l 281 0 l 99 0 z "},"8":{"ha":1282,"x_min":34,"x_max":1248,"o":"m 811 385 q 848 400 833 385 q 863 435 863 415 q 848 472 863 457 q 811 487 833 487 l 471 487 q 434 472 449 487 q 419 435 419 457 q 434 400 419 415 q 471 385 449 385 l 811 385 m 471 220 q 317 283 381 221 q 254 435 254 347 q 317 589 254 525 q 471 652 381 652 l 811 652 q 964 589 901 652 q 1028 435 1028 525 q 964 283 1028 347 q 811 220 901 221 l 471 220 m 545 972 q 508 958 524 972 q 492 921 492 943 q 508 884 492 899 q 545 868 524 868 l 736 868 q 774 884 758 868 q 789 921 789 899 q 774 958 789 943 q 736 972 758 972 l 545 972 m 545 704 q 392 768 456 704 q 328 921 328 831 q 392 1074 328 1010 q 545 1137 456 1137 l 736 1137 q 890 1074 826 1137 q 954 921 954 1010 q 890 768 954 831 q 736 704 826 704 l 545 704 m 1131 732 q 1248 434 1248 608 q 1120 127 1248 255 q 812 0 993 0 l 469 0 q 161 127 289 0 q 34 434 34 255 q 151 732 34 608 q 109 922 109 818 q 236 1229 109 1101 q 544 1356 363 1356 l 738 1356 q 1046 1229 918 1356 q 1173 922 1173 1101 q 1131 732 1173 818 m 929 731 q 1008 922 1008 810 q 929 1112 1008 1034 q 738 1191 850 1191 l 544 1191 q 353 1112 431 1191 q 274 922 274 1034 q 353 731 274 810 q 397 694 373 711 q 279 625 331 677 q 199 434 199 545 q 279 244 199 323 q 469 165 358 165 l 812 165 q 1003 244 924 165 q 1082 434 1082 323 q 1004 625 1082 545 q 884 694 951 677 q 929 731 909 711 z "},"9":{"ha":1153,"x_min":34,"x_max":1119,"o":"m 734 869 l 734 921 q 719 956 734 941 q 682 972 704 971 l 483 972 q 446 956 461 971 q 431 921 431 941 q 446 884 431 899 q 483 869 461 869 l 734 869 m 899 704 l 483 704 q 330 768 393 704 q 266 921 266 831 q 330 1073 266 1009 q 483 1137 393 1135 l 682 1137 q 836 1073 772 1135 q 899 921 899 1009 l 899 704 m 469 1191 q 279 1112 358 1191 q 199 922 199 1034 q 279 732 199 811 q 469 652 358 652 l 899 652 l 899 400 q 846 272 899 326 q 718 218 792 218 l 72 218 l 72 384 l 678 384 q 716 400 700 384 q 732 438 732 416 l 732 487 l 469 487 q 161 614 289 487 q 34 922 34 741 q 161 1229 34 1101 q 469 1356 289 1356 l 684 1356 q 991 1229 864 1356 q 1119 922 1119 1101 l 1119 406 q 1000 119 1119 237 q 713 0 882 0 l 72 0 l 72 165 l 713 165 q 883 236 812 165 q 954 406 954 307 l 954 922 q 874 1112 954 1034 q 684 1191 795 1191 l 469 1191 z "}," ":{"ha":507,"x_min":0,"x_max":0,"o":""},"!":{"ha":589,"x_min":102,"x_max":487,"o":"m 487 298 l 487 0 l 321 0 l 321 298 l 487 298 m 267 298 l 267 0 l 102 0 l 102 298 l 267 298 m 487 1356 l 487 353 l 321 353 l 321 1356 l 487 1356 m 267 1356 l 267 353 l 102 353 l 102 1356 l 267 1356 z "},"\"":{"ha":1271,"x_min":102,"x_max":1169,"o":"m 834 917 q 913 727 834 806 q 1104 648 993 648 l 1169 648 l 1169 483 l 1104 483 q 796 610 924 483 q 669 917 669 738 l 669 1356 l 1088 1356 l 1088 1191 l 834 1191 l 834 917 m 1054 917 q 1067 883 1053 898 q 1104 868 1082 868 l 1169 868 l 1169 703 l 1104 703 q 951 766 1015 704 q 888 917 887 830 l 888 1137 l 1088 1137 l 1088 971 l 1054 971 l 1054 917 m 267 917 q 347 727 267 806 q 537 648 426 648 l 602 648 l 602 483 l 537 483 q 229 610 357 483 q 102 917 102 738 l 102 1356 l 521 1356 l 521 1191 l 267 1191 l 267 917 m 487 917 q 500 883 486 898 q 537 868 515 868 l 602 868 l 602 703 l 537 703 q 384 766 448 704 q 321 917 320 830 l 321 1137 l 521 1137 l 521 971 l 487 971 l 487 917 z "},"#":{"ha":1744,"x_min":46,"x_max":1659,"o":"m 935 355 l 549 354 l 427 0 l 252 0 l 374 354 l 46 354 l 103 519 l 431 519 l 549 863 l 168 863 l 224 1029 l 606 1029 l 720 1356 l 895 1356 l 781 1029 l 1168 1029 l 1280 1356 l 1455 1356 l 1343 1029 l 1659 1029 l 1603 864 l 1285 864 l 1167 520 l 1538 520 l 1481 355 l 1109 355 l 987 0 l 812 0 l 935 355 m 606 519 l 991 520 l 1110 864 l 724 863 l 606 519 z "},"$":{"ha":865,"x_min":102,"x_max":764,"o":"m 464 363 l 480 363 q 605 415 553 363 q 656 538 656 467 q 605 663 656 612 q 480 713 553 713 l 385 713 q 286 755 327 713 q 244 856 244 798 q 286 955 244 913 q 385 996 327 996 l 764 996 l 764 888 l 385 888 q 362 878 372 888 q 353 856 353 868 q 362 831 353 841 q 385 822 372 822 l 480 822 q 680 739 597 822 q 764 538 764 655 q 681 338 764 420 q 572 270 632 290 l 572 217 l 464 217 l 464 255 l 464 363 m 429 363 l 429 217 l 321 217 l 321 255 l 102 255 l 102 363 l 429 363 m 385 1031 q 262 980 313 1031 q 210 856 210 929 q 262 732 210 784 q 385 681 313 681 l 480 680 q 580 638 538 680 q 621 540 621 597 q 580 440 621 481 q 480 399 538 399 l 102 399 l 102 506 l 480 506 q 504 516 494 506 q 514 540 514 526 q 504 563 514 553 q 480 572 494 572 l 385 572 q 185 655 269 572 q 102 856 102 738 q 186 1057 102 972 q 321 1133 244 1115 l 321 1177 l 429 1177 l 429 1031 l 385 1031 m 464 1031 l 464 1177 l 572 1177 l 572 1139 l 764 1139 l 764 1031 l 464 1031 z "},"%":{"ha":2928,"x_min":102,"x_max":2827,"o":"m 1042 0 l 1952 1356 l 2153 1356 l 1241 0 l 1042 0 m 776 0 l 1687 1356 l 1887 1356 l 977 0 l 776 0 m 1754 537 q 1911 916 1754 760 q 2291 1073 2068 1073 q 2670 916 2513 1073 q 2827 537 2827 760 q 2670 157 2827 315 q 2291 0 2513 0 q 1911 157 2068 0 q 1754 537 1754 315 m 2291 164 q 2553 273 2444 164 q 2662 537 2662 382 q 2553 800 2662 690 q 2291 909 2444 909 q 2027 800 2136 909 q 1918 537 1918 690 q 2027 273 1918 382 q 2291 164 2136 164 m 1990 537 q 2078 750 1990 662 q 2291 838 2166 838 q 2504 750 2416 838 q 2592 537 2592 662 q 2504 324 2592 412 q 2291 236 2416 236 q 2078 324 2166 236 q 1990 537 1990 412 m 2291 393 q 2393 435 2351 393 q 2435 537 2435 477 q 2393 639 2435 597 q 2291 681 2351 681 q 2189 639 2231 681 q 2147 537 2147 597 q 2189 435 2147 477 q 2291 393 2231 393 m 102 821 q 259 1200 102 1043 q 639 1356 416 1356 q 1018 1200 861 1356 q 1175 821 1175 1043 q 1018 441 1175 598 q 639 283 861 283 q 259 441 416 283 q 102 821 102 598 m 639 448 q 901 557 792 448 q 1010 821 1010 666 q 901 1083 1010 974 q 639 1192 792 1192 q 375 1083 484 1192 q 266 821 266 974 q 375 557 266 666 q 639 448 484 448 m 338 821 q 426 1034 338 945 q 639 1122 514 1122 q 852 1034 764 1122 q 940 821 940 945 q 852 608 940 696 q 639 519 764 519 q 426 608 514 519 q 338 821 338 696 m 639 677 q 741 719 699 677 q 783 821 783 761 q 741 922 783 880 q 639 964 699 964 q 537 922 579 964 q 495 821 495 880 q 537 719 495 761 q 639 677 579 677 z "},"&":{"ha":1440,"x_min":102,"x_max":1339,"o":"m 746 704 l 533 704 q 380 768 444 704 q 316 921 316 831 q 380 1073 316 1009 q 533 1137 444 1135 l 856 1137 l 856 971 l 533 971 q 496 956 511 971 q 481 921 481 941 q 496 884 481 899 q 533 869 511 869 l 746 869 l 746 704 m 1119 220 l 537 220 l 536 221 q 384 283 448 221 q 320 435 320 347 q 384 589 320 525 q 537 652 448 652 l 750 652 l 750 487 l 537 487 q 500 472 515 487 q 486 435 486 457 q 500 400 486 415 q 537 385 515 385 l 954 385 l 954 875 l 1119 875 l 1119 220 m 175 678 q 102 924 102 785 q 229 1229 102 1101 q 537 1356 357 1356 l 860 1356 l 860 1191 l 537 1191 q 347 1112 426 1191 q 267 924 267 1034 q 297 799 267 856 q 346 734 316 764 q 422 680 381 699 q 346 625 381 659 q 297 559 316 594 q 267 434 267 503 q 347 244 267 323 q 537 165 426 165 l 1173 165 l 1173 875 l 1339 875 l 1339 0 l 537 0 q 229 127 357 0 q 102 434 102 255 q 175 678 102 572 z "},"'":{"ha":704,"x_min":102,"x_max":602,"o":"m 437 1191 l 183 1191 l 183 1356 l 602 1356 l 602 917 q 475 610 602 738 q 167 483 347 483 l 102 483 l 102 648 l 167 648 q 357 727 278 648 q 437 917 437 806 l 437 1191 m 217 971 l 183 971 l 183 1137 l 382 1137 l 382 917 q 320 766 384 830 q 167 703 256 704 l 102 703 l 102 868 l 167 868 q 203 883 189 868 q 217 917 218 898 l 217 971 z "},"(":{"ha":883,"x_min":102,"x_max":781,"o":"m 781 220 q 457 354 591 220 q 323 680 323 488 q 457 1002 323 868 q 781 1137 591 1137 l 781 972 q 574 887 659 972 q 488 680 488 802 q 574 471 488 556 q 781 385 659 385 l 781 220 m 781 1191 q 418 1041 568 1191 q 269 680 269 891 q 418 315 269 465 q 781 165 568 165 l 781 0 q 300 199 499 0 q 102 680 102 397 q 300 1158 102 959 q 781 1356 499 1356 l 781 1191 z "},")":{"ha":883,"x_min":102,"x_max":781,"o":"m 102 385 q 308 471 222 385 q 393 680 393 556 q 308 887 393 802 q 102 972 222 972 l 102 1137 q 425 1002 290 1137 q 559 680 559 868 q 425 354 559 488 q 102 220 290 220 l 102 385 m 102 1356 q 582 1158 382 1356 q 781 680 781 959 q 582 199 781 397 q 102 0 382 0 l 102 165 q 463 315 313 165 q 613 680 613 465 q 463 1041 613 891 q 102 1191 313 1191 l 102 1356 z "},"*":{"ha":800,"x_min":102,"x_max":699,"o":"m 529 1010 l 629 872 l 572 830 l 514 788 l 414 926 q 388 926 400 925 l 288 788 l 229 829 l 172 871 l 273 1009 q 269 1023 271 1016 q 266 1034 267 1028 l 102 1086 l 123 1154 l 145 1222 l 308 1169 q 328 1185 317 1179 l 328 1356 l 471 1356 l 471 1185 q 492 1171 483 1179 l 655 1223 l 677 1156 l 699 1088 l 537 1035 q 529 1010 533 1023 z "},"+":{"ha":845,"x_min":102,"x_max":743,"o":"m 328 573 l 328 800 l 515 800 l 515 573 l 743 573 l 743 386 l 515 386 l 515 158 l 328 158 l 328 386 l 102 386 l 102 573 l 328 573 z "},",":{"ha":704,"x_min":102,"x_max":602,"o":"m 437 220 l 183 220 l 183 385 l 602 385 l 602 -54 q 475 -361 602 -233 q 167 -488 347 -488 l 102 -488 l 102 -323 l 167 -323 q 357 -244 278 -323 q 437 -54 437 -165 l 437 220 m 217 0 l 183 0 l 183 165 l 382 165 l 382 -54 q 320 -205 384 -141 q 167 -269 256 -267 l 102 -269 l 102 -103 l 167 -103 q 203 -88 189 -103 q 217 -54 218 -73 l 217 0 z "},"-":{"ha":845,"x_min":102,"x_max":743,"o":"m 743 608 l 743 420 l 102 420 l 102 608 l 743 608 z "},".":{"ha":623,"x_min":102,"x_max":521,"o":"m 102 385 l 521 385 l 521 220 l 102 220 l 102 302 l 102 385 m 102 165 l 521 165 l 521 0 l 102 0 l 102 165 z "},"/":{"ha":1580,"x_min":102,"x_max":1478,"o":"m 368 0 l 1278 1356 l 1478 1356 l 567 0 l 368 0 m 102 0 l 1013 1356 l 1213 1356 l 302 0 l 102 0 z "},":":{"ha":623,"x_min":102,"x_max":521,"o":"m 102 959 l 521 959 l 521 793 l 102 793 l 102 876 l 102 959 m 102 739 l 521 739 l 521 574 l 102 574 l 102 739 m 102 385 l 521 385 l 521 220 l 102 220 l 102 302 l 102 385 m 102 165 l 521 165 l 521 0 l 102 0 l 102 165 z "},";":{"ha":704,"x_min":102,"x_max":602,"o":"m 437 220 l 183 220 l 183 385 l 602 385 l 602 -54 q 475 -361 602 -233 q 167 -488 347 -488 l 102 -488 l 102 -323 l 167 -323 q 357 -244 278 -323 q 437 -54 437 -165 l 437 220 m 217 0 l 183 0 l 183 165 l 382 165 l 382 -54 q 320 -205 384 -141 q 167 -269 256 -267 l 102 -269 l 102 -103 l 167 -103 q 203 -88 189 -103 q 217 -54 218 -73 l 217 0 m 183 959 l 602 959 l 602 793 l 183 793 l 183 876 l 183 959 m 183 739 l 602 739 l 602 574 l 183 574 l 183 739 z "},"<":{"ha":845,"x_min":102,"x_max":743,"o":"m 743 496 l 357 327 l 743 157 l 743 -47 l 102 234 l 102 420 l 743 701 l 743 496 z "},"=":{"ha":845,"x_min":102,"x_max":743,"o":"m 102 608 l 743 608 l 743 442 l 102 442 l 102 608 m 102 388 l 743 388 l 743 222 l 102 222 l 102 388 z "},">":{"ha":845,"x_min":102,"x_max":743,"o":"m 102 701 l 743 420 l 743 234 l 102 -47 l 102 157 l 488 327 l 102 496 l 102 701 z "},"?":{"ha":1206,"x_min":102,"x_max":1104,"o":"m 247 1210 q 602 1356 395 1356 q 958 1209 811 1356 q 1104 854 1104 1062 q 958 499 1104 646 q 795 389 884 426 l 795 365 l 629 365 l 629 518 l 635 518 q 841 616 754 529 q 940 854 940 715 q 841 1093 940 994 q 602 1191 742 1191 q 363 1093 463 1191 q 266 882 275 1004 l 102 902 q 247 1210 117 1078 m 795 298 l 795 0 l 629 0 l 629 298 l 795 298 m 575 298 l 575 0 l 410 0 l 410 298 l 575 298 m 403 1054 q 602 1137 486 1137 q 803 1054 720 1137 q 886 854 886 971 q 803 654 886 736 q 602 571 720 571 l 575 571 l 575 365 l 410 365 l 410 736 l 602 736 q 686 771 651 736 q 720 854 720 806 q 686 938 720 903 q 602 972 651 972 q 518 939 553 972 q 484 856 484 903 l 320 875 q 403 1054 327 979 z "},"@":{"ha":1369,"x_min":68,"x_max":1276,"o":"m 659 544 q 557 502 603 538 q 511 397 511 465 q 554 294 511 340 q 678 248 597 248 q 764 336 744 251 l 764 588 q 659 544 727 555 m 922 231 q 854 241 880 232 q 812 269 829 250 q 757 235 793 250 q 667 220 721 220 q 493 274 569 220 q 416 397 416 327 q 452 485 417 443 q 542 546 488 527 q 660 572 597 564 q 734 594 705 580 q 764 633 764 608 q 736 699 762 669 q 648 729 709 729 q 566 698 600 729 q 532 631 532 667 l 501 631 l 501 715 q 550 736 501 726 q 671 747 600 747 q 802 713 745 746 q 859 630 859 680 l 859 319 q 923 258 859 258 q 1104 358 1048 276 q 1160 560 1160 441 q 1002 845 1146 737 q 677 945 869 945 q 411 872 538 945 q 228 684 283 800 q 182 494 182 591 q 270 224 182 329 q 477 71 358 119 q 693 22 596 22 q 1083 132 879 22 l 1083 92 q 696 -5 905 -5 q 383 60 533 -5 q 151 240 233 125 q 68 484 68 356 q 152 729 68 612 q 386 909 236 846 q 696 972 536 972 q 1109 851 941 972 q 1276 553 1276 730 q 1157 321 1276 410 q 922 231 1038 232 z "},"A":{"ha":1417,"x_min":34,"x_max":1383,"o":"m 780 605 l 709 818 l 639 605 l 780 605 m 1015 1124 l 1383 0 l 1210 0 l 853 1082 q 815 1146 842 1118 q 709 1190 772 1190 q 606 1146 648 1190 q 567 1081 578 1118 l 209 0 l 34 0 l 407 1128 q 487 1264 427 1204 q 709 1356 579 1356 q 933 1264 841 1356 q 1015 1124 994 1203 m 411 439 l 616 1063 q 643 1111 623 1090 q 709 1138 670 1138 q 779 1111 750 1138 q 806 1062 799 1089 q 1008 439 854 906 l 411 439 m 1027 385 l 1153 0 l 978 0 l 906 220 l 513 220 l 441 0 l 266 0 l 392 385 l 1027 385 z "},"B":{"ha":1016,"x_min":34,"x_max":982,"o":"m 471 869 q 508 885 492 869 q 524 922 524 901 q 508 959 524 944 q 471 974 492 974 l 419 974 l 419 869 l 471 869 m 419 487 l 419 385 l 545 385 q 582 400 567 385 q 597 435 597 415 q 582 472 597 457 q 545 487 567 487 l 419 487 m 254 1138 l 471 1138 q 624 1075 560 1138 q 688 922 688 1012 q 624 769 688 833 q 471 704 560 705 l 254 704 l 254 1138 m 545 652 q 699 589 635 652 q 762 435 762 525 q 699 283 762 347 q 547 221 635 221 l 545 220 l 254 220 l 254 652 l 545 652 m 199 1191 l 199 165 l 547 165 q 737 244 658 165 q 817 434 817 323 q 762 597 817 526 q 738 625 750 612 q 618 694 685 677 q 663 731 643 711 q 727 831 708 776 q 742 922 742 873 q 663 1112 742 1034 q 472 1191 585 1191 l 199 1191 m 472 1356 q 780 1229 652 1356 q 907 922 907 1101 q 865 732 907 818 q 982 434 982 608 q 854 127 982 255 q 547 0 727 0 l 34 0 l 34 1356 l 472 1356 z "},"C":{"ha":1226,"x_min":34,"x_max":1192,"o":"m 1036 354 q 712 220 902 220 q 388 354 522 220 q 254 678 254 488 q 388 1002 254 868 q 712 1137 522 1137 q 1036 1002 902 1137 l 920 886 q 712 971 834 971 q 505 886 591 971 q 419 678 419 800 q 505 471 419 556 q 712 385 591 385 q 920 471 834 385 l 1036 354 m 1076 1042 q 712 1191 925 1191 q 350 1041 500 1191 q 199 678 199 891 q 350 315 199 465 q 712 165 500 165 q 1076 316 925 165 l 1192 199 q 712 0 993 0 q 233 199 431 0 q 34 678 34 397 q 233 1158 34 959 q 712 1356 431 1356 q 1192 1158 993 1356 l 1076 1042 z "},"D":{"ha":1131,"x_min":34,"x_max":1097,"o":"m 34 0 l 34 1356 l 419 1356 q 899 1158 700 1356 q 1097 678 1097 959 q 899 199 1097 397 q 419 0 700 0 l 34 0 m 199 1191 l 199 165 l 419 165 q 781 315 631 165 q 932 678 932 465 q 781 1041 932 891 q 419 1191 631 1191 l 199 1191 m 419 1137 q 742 1002 608 1137 q 876 678 876 867 q 742 355 876 490 q 418 220 608 220 l 254 220 l 254 1137 l 419 1137 m 419 385 q 625 471 540 385 q 711 678 711 557 q 625 886 711 800 q 419 972 540 972 l 419 385 z "},"E":{"ha":920,"x_min":34,"x_max":886,"o":"m 422 876 l 800 876 l 800 711 l 254 711 l 254 971 l 255 971 q 308 1084 260 1035 q 437 1137 362 1137 l 886 1137 l 886 972 l 476 972 q 438 956 454 972 q 422 918 422 940 l 422 876 m 422 439 q 438 401 422 418 q 476 385 454 385 l 886 385 l 886 220 l 437 220 q 308 273 362 220 q 255 385 260 321 l 254 385 l 254 646 l 800 646 l 800 480 l 422 480 l 422 439 m 34 971 q 152 1238 41 1126 q 439 1356 271 1356 l 886 1356 l 886 1191 l 439 1191 q 270 1120 340 1191 q 199 951 199 1050 l 199 406 q 270 236 199 307 q 439 165 340 165 l 886 165 l 886 0 l 439 0 q 152 118 271 0 q 34 385 41 231 l 34 971 z "},"F":{"ha":920,"x_min":34,"x_max":886,"o":"m 419 480 l 419 0 l 254 0 l 254 646 l 800 646 l 800 480 l 419 480 m 422 876 l 800 876 l 800 711 l 254 711 l 254 971 l 255 971 q 308 1084 260 1035 q 437 1137 362 1137 l 886 1137 l 886 972 l 476 972 q 438 956 454 972 q 422 918 422 940 l 422 876 m 199 0 l 34 0 l 34 971 q 152 1238 41 1126 q 439 1356 271 1356 l 886 1356 l 886 1191 l 439 1191 q 270 1120 340 1191 q 199 951 199 1050 l 199 0 z "},"G":{"ha":1226,"x_min":34,"x_max":1192,"o":"m 791 385 l 791 646 l 956 646 l 956 220 l 712 220 q 388 354 522 220 q 254 678 254 488 q 388 1002 254 868 q 712 1137 522 1137 q 1036 1002 902 1137 l 920 886 q 712 971 834 971 q 505 886 591 971 q 419 678 419 800 q 505 471 419 556 q 712 385 591 385 l 791 385 m 1010 165 l 1010 646 l 1176 646 l 1176 0 l 712 0 q 233 199 431 0 q 34 678 34 397 q 233 1158 34 959 q 712 1356 431 1356 q 1192 1158 993 1356 l 1076 1042 q 712 1191 925 1191 q 350 1041 500 1191 q 199 678 199 891 q 350 315 199 465 q 712 165 500 165 l 1010 165 z "},"H":{"ha":1084,"x_min":34,"x_max":1050,"o":"m 199 1356 l 199 0 l 34 0 l 34 678 l 34 1356 l 199 1356 m 1050 1356 l 1050 0 l 886 0 l 886 1356 l 1050 1356 m 831 1356 l 831 711 l 254 711 l 254 1356 l 419 1356 l 419 875 l 666 875 l 666 1356 l 831 1356 m 666 0 l 666 479 l 419 479 l 419 0 l 254 0 l 254 646 l 831 646 l 831 0 l 666 0 z "},"I":{"ha":499,"x_min":57,"x_max":442,"o":"m 442 1356 l 442 0 l 277 0 l 277 1356 l 442 1356 m 222 1356 l 222 0 l 57 0 l 57 1356 l 222 1356 z "},"J":{"ha":1084,"x_min":34,"x_max":1050,"o":"m 831 509 q 747 304 831 389 q 543 220 662 220 q 338 304 423 220 q 252 509 252 389 l 418 509 q 454 421 418 457 q 543 385 491 385 q 630 421 594 385 q 666 509 666 457 l 666 1356 l 831 1356 l 831 509 m 1050 507 q 902 149 1050 297 q 543 0 754 0 q 183 149 332 0 q 34 509 34 297 l 198 509 q 299 267 198 368 q 543 165 400 165 q 785 267 684 165 q 886 509 886 368 l 886 1356 l 1050 1356 l 1050 507 z "},"K":{"ha":1195,"x_min":34,"x_max":1161,"o":"m 198 0 l 34 0 l 34 1356 l 198 1356 l 198 0 m 419 1149 l 629 1356 l 864 1356 l 255 761 l 255 1356 l 419 1356 l 419 1149 m 928 1356 l 1161 1356 l 670 875 l 774 875 q 1042 757 929 868 q 1160 469 1160 637 l 1160 0 l 994 0 l 994 469 q 924 639 994 568 q 754 709 853 709 l 267 709 l 928 1356 m 255 654 l 774 654 q 887 601 838 648 q 940 472 940 547 l 940 0 l 776 0 l 776 433 q 760 471 776 454 q 722 487 743 487 l 419 487 l 419 0 l 255 0 l 255 654 z "},"L":{"ha":1005,"x_min":34,"x_max":971,"o":"m 254 1356 l 418 1356 l 418 441 q 435 402 418 419 q 473 385 452 385 l 971 385 l 971 220 l 434 220 q 307 273 359 220 q 254 400 254 326 l 254 1356 m 34 404 l 34 1356 l 199 1356 l 199 404 q 269 235 199 305 q 438 165 339 165 l 971 165 l 971 0 l 438 0 q 153 119 271 0 q 34 404 34 237 z "},"M":{"ha":1765,"x_min":34,"x_max":1731,"o":"m 844 301 q 842 308 844 305 q 635 1131 637 1123 q 600 1179 627 1162 q 543 1188 572 1195 q 496 1153 513 1180 q 205 0 481 1127 l 34 0 l 326 1172 q 354 1238 335 1206 q 502 1348 406 1324 q 686 1321 600 1373 q 796 1172 773 1270 l 883 822 l 968 1172 q 1078 1321 991 1270 q 1263 1348 1164 1373 q 1411 1238 1359 1324 q 1439 1172 1430 1206 l 1731 0 l 1558 0 q 1268 1153 1283 1127 q 1222 1188 1252 1180 q 1164 1179 1192 1195 q 1128 1131 1137 1162 q 922 308 1126 1122 q 921 301 921 305 l 905 240 q 899 227 905 232 q 883 220 892 220 q 867 227 873 220 q 860 237 861 232 l 844 301 m 1504 0 l 1332 0 l 1202 524 l 1116 184 q 1006 35 1093 87 q 822 8 920 -16 q 674 118 726 33 q 646 184 655 151 l 560 524 l 430 0 l 259 0 l 519 1048 q 524 1059 521 1054 l 538 1120 q 545 1131 540 1126 q 562 1138 552 1138 q 578 1131 571 1138 q 583 1118 583 1126 l 601 1051 l 601 1048 q 817 203 810 216 q 863 168 833 176 q 920 178 892 161 q 955 224 947 194 q 1162 1048 956 231 l 1180 1118 q 1187 1131 1180 1126 q 1202 1138 1192 1138 q 1218 1131 1211 1138 q 1225 1120 1223 1126 l 1242 1048 l 1504 0 z "},"N":{"ha":1173,"x_min":34,"x_max":1139,"o":"m 419 917 l 822 218 q 844 187 827 205 q 898 165 867 165 q 951 188 929 165 q 974 243 974 210 l 974 1356 l 1139 1356 l 1139 243 q 1069 71 1139 141 q 898 0 998 0 q 727 71 798 0 q 699 103 711 85 l 697 102 l 419 585 l 419 0 l 252 0 l 252 1114 q 260 1131 252 1123 q 277 1138 267 1138 q 294 1131 288 1138 q 419 917 297 1127 m 754 439 l 351 1138 q 330 1169 346 1152 q 275 1191 307 1191 q 222 1168 244 1191 q 199 1114 199 1146 l 199 0 l 34 0 l 34 1114 q 104 1286 34 1215 q 275 1356 175 1356 q 446 1286 376 1356 q 475 1253 463 1271 l 476 1255 l 754 772 l 754 1356 l 921 1356 l 921 243 q 913 226 921 233 q 897 218 906 218 q 879 227 886 218 q 754 439 876 229 z "},"O":{"ha":1426,"x_min":34,"x_max":1392,"o":"m 712 220 q 389 354 524 220 q 255 678 255 488 q 389 1002 255 867 q 712 1137 524 1137 q 1035 1002 901 1137 q 1169 678 1169 867 q 1035 354 1169 488 q 712 220 901 220 m 712 972 q 505 886 591 972 q 419 680 419 800 q 505 471 419 557 q 712 385 591 385 q 919 471 833 385 q 1005 680 1005 557 q 919 886 1005 800 q 712 972 833 972 m 712 1191 q 350 1041 500 1191 q 199 680 199 891 q 350 315 199 465 q 712 165 500 165 q 1074 315 924 165 q 1225 680 1225 465 q 1074 1041 1225 891 q 712 1191 924 1191 m 712 0 q 233 199 431 0 q 34 678 34 397 q 233 1157 34 958 q 712 1356 431 1356 q 1192 1157 993 1356 q 1392 678 1392 958 q 1192 199 1392 397 q 712 0 993 0 z "},"P":{"ha":1039,"x_min":34,"x_max":1005,"o":"m 519 552 q 745 646 651 552 q 838 873 838 739 q 745 1099 838 1006 q 519 1191 651 1191 q 294 1099 387 1191 q 201 873 201 1006 l 201 0 l 34 0 l 34 871 q 176 1214 34 1072 q 519 1356 317 1356 q 863 1214 722 1356 q 1005 871 1005 1072 q 863 526 1005 669 q 519 384 722 384 l 419 384 l 419 0 l 255 0 l 255 552 l 519 552 m 255 871 q 332 1059 255 982 q 519 1137 408 1137 q 707 1059 629 1137 q 785 871 785 982 q 707 683 785 761 q 519 605 629 605 l 255 605 l 255 871 m 420 773 l 521 773 q 591 802 562 773 q 620 872 620 831 q 591 943 620 913 q 521 972 562 972 q 450 943 480 972 q 420 872 420 913 l 420 773 z "},"Q":{"ha":1510,"x_min":34,"x_max":1476,"o":"m 713 220 q 389 354 524 220 q 255 680 255 488 q 389 1002 255 868 q 713 1137 524 1137 q 1036 1002 902 1137 q 1171 680 1171 868 q 1036 354 1171 488 q 713 220 902 220 m 713 972 q 506 886 591 972 q 420 680 420 800 q 506 471 420 557 q 713 385 591 385 q 920 471 834 385 q 1005 680 1005 557 q 920 886 1005 800 q 713 972 834 972 m 945 220 q 1076 316 1015 255 q 1225 680 1225 465 q 1075 1041 1225 891 q 713 1191 925 1191 q 351 1041 500 1191 q 201 680 201 891 q 351 315 201 465 q 713 165 500 165 l 1476 165 l 1476 0 l 713 0 q 233 199 431 0 q 34 680 34 397 q 233 1158 34 959 q 713 1356 431 1356 q 1193 1158 994 1356 q 1392 680 1392 959 q 1335 400 1392 528 l 1336 401 q 1328 385 1332 393 l 1476 385 l 1476 220 l 945 220 z "},"R":{"ha":1104,"x_min":34,"x_max":1070,"o":"m 1070 220 l 905 220 q 756 283 818 221 q 694 430 694 345 q 757 578 694 517 q 773 594 769 590 q 785 606 779 600 q 884 849 884 707 q 784 1090 884 990 q 543 1191 684 1191 q 300 1090 400 1191 q 199 849 199 990 l 199 0 l 34 0 l 34 849 q 183 1207 34 1058 q 543 1356 332 1356 q 901 1207 753 1356 q 1050 849 1050 1058 q 902 490 1050 637 q 886 475 894 483 q 872 463 884 475 q 859 430 859 449 q 872 399 859 412 q 905 385 886 385 l 1070 385 l 1070 220 m 1070 0 l 905 0 q 601 126 727 0 q 475 430 475 252 q 601 735 475 608 q 632 764 616 750 q 666 849 666 799 q 629 936 666 899 q 543 972 593 972 q 454 936 491 972 q 419 849 418 899 l 419 0 l 254 0 l 254 849 q 337 1052 252 967 q 543 1137 422 1137 q 747 1052 662 1137 q 831 849 831 967 q 745 642 831 728 q 718 617 731 631 q 639 430 639 540 q 717 243 639 321 q 905 165 795 165 l 1070 165 l 1070 0 z "},"S":{"ha":1084,"x_min":34,"x_max":1050,"o":"m 614 0 l 34 0 l 34 165 l 614 165 q 805 245 726 165 q 884 435 884 324 q 805 625 884 547 q 614 704 726 704 l 469 704 q 316 768 380 704 q 252 921 252 831 q 316 1073 252 1009 q 469 1137 380 1135 l 1050 1137 l 1050 972 l 469 972 q 433 958 448 972 q 418 921 418 943 q 433 884 418 899 q 469 869 448 869 l 614 869 q 922 742 793 869 q 1050 435 1050 614 q 922 127 1050 254 q 614 0 793 0 m 614 385 q 651 400 636 385 q 666 437 666 415 q 651 472 666 457 q 614 487 636 487 l 469 487 q 161 614 289 487 q 34 922 34 741 q 161 1229 34 1101 q 469 1356 289 1356 l 1050 1356 l 1050 1191 l 469 1191 q 279 1112 358 1191 q 199 922 199 1034 q 279 732 199 811 q 469 652 358 652 l 614 651 q 768 588 704 651 q 831 437 831 525 q 768 283 831 347 q 614 220 704 220 l 34 220 l 34 385 l 614 385 z "},"T":{"ha":1072,"x_min":34,"x_max":1038,"o":"m 728 972 l 728 0 l 563 0 l 563 1137 l 1038 1137 l 1038 972 l 728 972 m 509 0 l 345 0 l 345 972 l 34 972 l 34 1137 l 509 1137 l 509 0 m 1038 1356 l 1038 1191 l 34 1191 l 34 1356 l 1038 1356 z "},"U":{"ha":1084,"x_min":34,"x_max":1050,"o":"m 666 507 l 666 1356 l 831 1356 l 831 507 q 746 303 831 388 q 541 218 661 218 q 337 303 422 218 q 252 507 252 388 l 252 1356 l 418 1356 l 418 507 q 454 420 418 456 q 541 384 490 384 q 629 420 593 384 q 666 507 666 456 m 886 507 l 886 1356 l 1050 1356 l 1050 507 q 901 149 1050 297 q 541 0 753 0 q 182 149 331 0 q 34 507 34 297 l 34 1356 l 198 1356 l 198 507 q 299 265 198 366 q 541 164 400 164 q 785 265 684 164 q 886 507 886 366 z "},"V":{"ha":1332,"x_min":34,"x_max":1298,"o":"m 209 1356 l 585 243 l 593 218 q 613 189 598 202 q 666 165 635 165 q 722 189 697 165 q 738 213 732 199 l 741 221 q 742 228 741 224 l 747 243 l 1122 1356 l 1298 1356 l 899 174 q 838 71 883 115 q 666 0 768 0 q 495 71 566 0 q 441 152 458 107 l 439 152 l 34 1356 l 209 1356 m 642 237 l 578 429 l 266 1356 l 439 1356 l 665 688 l 891 1356 l 1063 1356 l 728 358 l 688 239 q 681 225 686 232 q 665 218 674 218 q 648 225 655 218 q 642 237 644 231 z "},"W":{"ha":1765,"x_min":34,"x_max":1731,"o":"m 860 1119 q 867 1130 861 1124 q 883 1137 873 1137 q 899 1130 892 1137 q 905 1116 905 1124 l 921 1055 q 922 1048 921 1051 q 1128 225 1126 235 q 1164 178 1137 194 q 1222 168 1192 161 q 1268 203 1252 176 q 1558 1356 1283 229 l 1731 1356 l 1439 184 q 1411 118 1430 151 q 1263 8 1359 33 q 1078 35 1164 -16 q 968 184 991 87 l 883 534 l 796 184 q 686 35 773 87 q 502 8 600 -16 q 354 118 406 33 q 326 184 335 151 l 34 1356 l 205 1356 q 496 203 481 229 q 543 168 513 176 q 600 178 572 161 q 635 225 627 194 q 842 1048 637 233 q 844 1055 844 1051 l 860 1119 m 1242 308 l 1225 236 q 1218 225 1223 231 q 1202 218 1211 218 q 1187 225 1192 218 q 1180 239 1180 231 l 1162 308 q 955 1133 956 1126 q 920 1179 947 1162 q 863 1188 892 1195 q 817 1153 833 1180 q 601 308 810 1141 l 601 305 l 583 239 q 578 225 583 231 q 562 218 571 218 q 545 225 552 218 q 538 236 540 231 l 524 297 q 519 308 521 302 l 259 1356 l 430 1356 l 560 833 l 646 1172 q 674 1238 655 1206 q 822 1348 726 1324 q 1006 1321 920 1373 q 1116 1172 1093 1270 l 1202 833 l 1332 1356 l 1504 1356 l 1242 308 z "},"X":{"ha":1386,"x_min":34,"x_max":1352,"o":"m 298 1356 l 495 1356 l 693 1043 l 891 1356 l 1088 1356 l 693 734 l 298 1356 m 661 682 l 229 0 l 37 0 l 34 1 l 465 682 l 38 1356 l 235 1356 l 661 682 m 1093 0 l 897 0 l 693 321 l 490 0 l 293 0 l 693 632 l 1093 0 m 726 682 l 1152 1356 l 1348 1356 l 921 682 l 1352 1 l 1350 0 l 1157 0 l 726 682 z "},"Y":{"ha":1400,"x_min":34,"x_max":1366,"o":"m 1104 1356 l 700 727 l 296 1356 l 492 1356 l 700 1034 l 907 1356 l 1104 1356 m 37 0 l 471 677 l 34 1356 l 231 1356 l 667 677 l 233 0 l 37 0 m 297 0 l 1169 1356 l 1366 1356 l 494 0 l 297 0 z "},"Z":{"ha":1169,"x_min":34,"x_max":1135,"o":"m 909 1099 l 221 297 q 199 243 199 274 q 222 188 199 210 q 277 165 244 165 l 1135 165 l 1135 0 l 277 0 q 104 71 175 0 q 34 243 34 141 q 75 377 34 319 l 582 972 l 34 972 l 34 1137 l 895 1137 q 909 1131 903 1137 q 916 1115 916 1124 q 909 1099 916 1105 m 260 258 l 948 1059 q 970 1114 970 1082 q 947 1168 970 1146 q 892 1191 925 1191 l 34 1191 l 34 1356 l 892 1356 q 1065 1286 994 1356 q 1135 1114 1135 1215 q 1095 979 1135 1038 l 587 385 l 1135 385 l 1135 220 l 274 220 q 260 225 266 220 q 254 241 254 232 q 260 258 254 251 z "},"[":{"ha":1556,"x_min":102,"x_max":1454,"o":"m 750 704 l 533 704 q 380 768 444 704 q 316 921 316 831 q 380 1073 316 1009 q 533 1137 444 1135 l 860 1137 l 860 972 l 533 972 q 496 956 511 971 q 481 921 481 941 q 496 884 481 899 q 533 869 511 869 l 750 869 l 750 704 m 175 678 q 102 924 102 785 q 229 1229 102 1101 q 537 1356 357 1356 l 860 1356 l 860 1191 l 537 1191 q 347 1112 426 1191 q 267 922 267 1034 q 297 799 267 856 q 346 734 316 764 q 422 680 381 699 q 346 625 381 659 q 297 559 316 594 q 267 434 267 503 q 347 244 267 323 q 537 165 426 165 l 1173 165 l 1172 430 q 1236 582 1172 518 q 1389 646 1299 644 l 1454 646 l 1454 480 l 1389 480 q 1352 465 1367 480 q 1339 442 1341 454 l 1339 0 l 537 0 q 229 127 357 0 q 102 434 102 255 q 175 678 102 572 m 954 441 q 1081 747 954 620 q 1389 875 1208 875 l 1454 875 l 1454 709 l 1389 709 q 1198 631 1278 709 q 1119 441 1119 552 l 1119 220 l 537 220 l 536 221 q 384 283 448 221 q 320 435 320 347 q 384 589 320 525 q 537 652 448 652 l 750 652 l 750 487 l 537 487 q 500 472 515 487 q 486 435 486 457 q 500 400 486 415 q 537 385 515 385 l 954 385 l 954 441 z "},"\\":{"ha":1580,"x_min":102,"x_max":1478,"o":"m 1013 0 l 102 1356 l 302 1356 l 1213 0 l 1013 0 m 1278 0 l 368 1356 l 567 1356 l 1478 0 l 1278 0 z "},"]":{"ha":1523,"x_min":34,"x_max":1489,"o":"m 822 1168 q 764 1191 798 1191 q 705 1168 728 1191 q 639 1031 682 1145 l 213 0 l 34 0 l 528 1191 q 587 1284 545 1242 q 762 1356 659 1356 q 936 1284 864 1356 q 996 1191 978 1242 l 1489 0 l 650 0 l 650 165 l 1242 165 l 884 1031 q 822 1168 838 1150 m 791 1115 l 1160 220 l 648 220 l 648 385 l 914 385 l 762 751 l 450 0 l 271 0 l 732 1114 q 742 1130 735 1123 q 761 1138 750 1138 q 781 1130 773 1138 q 791 1115 788 1123 z "},"^":{"ha":1146,"x_min":102,"x_max":1044,"o":"m 833 732 l 574 1058 l 313 732 l 102 732 l 574 1323 l 1044 732 l 833 732 z "},"_":{"ha":1369,"x_min":102,"x_max":1267,"o":"m 102 165 l 1267 165 l 1267 0 l 102 0 l 102 165 m 102 385 l 1267 385 l 1267 220 l 102 220 l 102 385 m 102 165 l 1267 165 l 1267 0 l 102 0 l 102 165 z "},"`":{"ha":572,"x_min":102,"x_max":471,"o":"m 471 1048 l 283 1048 l 102 1293 l 391 1293 l 471 1048 z "},"a":{"ha":1675,"x_min":34,"x_max":1641,"o":"m 534 1128 q 614 1264 555 1204 q 837 1356 707 1356 q 1061 1264 968 1356 q 1142 1124 1122 1203 l 1375 419 q 1389 401 1381 410 q 1427 385 1405 385 l 1641 385 l 1641 220 l 1397 220 q 1270 274 1322 221 q 1227 339 1240 304 l 981 1084 q 943 1147 970 1119 q 837 1191 899 1191 q 734 1147 776 1191 q 694 1082 705 1119 l 448 339 q 406 274 435 304 q 278 220 353 221 l 34 220 l 34 385 l 248 385 q 286 401 270 385 q 300 419 294 410 l 534 1128 m 656 269 q 560 119 623 180 q 275 0 442 0 l 34 0 l 34 165 l 275 165 q 444 236 374 165 q 502 332 479 271 l 743 1062 q 770 1109 750 1089 q 837 1137 798 1137 q 906 1109 878 1137 q 932 1061 926 1088 l 1173 332 q 1232 236 1196 271 q 1400 165 1301 165 l 1641 165 l 1641 0 l 1400 0 q 1115 119 1233 0 q 1019 269 1053 180 l 837 818 l 656 269 z "},"b":{"ha":1016,"x_min":34,"x_max":982,"o":"m 419 487 l 419 385 l 545 385 q 582 400 567 385 q 597 435 597 415 q 582 472 597 457 q 545 487 567 487 l 419 487 m 545 652 q 699 589 635 652 q 762 435 762 525 q 699 283 762 347 q 545 220 635 221 l 254 220 l 254 652 l 545 652 m 545 869 q 582 884 567 869 q 597 921 597 899 q 582 958 597 943 q 545 972 567 972 l 419 972 l 419 869 l 545 869 m 254 704 l 254 1137 l 545 1137 q 699 1073 635 1135 q 762 921 762 1009 q 699 768 762 831 q 545 704 635 704 l 254 704 m 735 728 q 738 731 736 730 q 762 760 750 745 q 817 922 817 830 q 737 1112 817 1034 q 547 1191 658 1191 l 199 1191 l 199 165 l 547 165 q 737 244 658 165 q 817 434 817 323 q 762 597 817 526 q 738 625 750 612 q 735 628 736 627 q 663 678 701 659 q 735 728 701 697 m 34 1356 l 547 1356 q 854 1229 727 1356 q 982 922 982 1101 q 909 678 982 785 q 982 434 982 571 q 854 127 982 255 q 547 0 727 0 l 34 0 l 34 1356 z "},"c":{"ha":1084,"x_min":34,"x_max":1050,"o":"m 1050 1137 l 1050 972 l 712 972 q 507 886 593 972 q 420 678 420 800 q 507 471 420 557 q 712 385 593 385 l 1050 385 l 1050 220 l 712 220 q 390 355 525 220 q 255 678 255 490 q 390 1002 255 867 q 712 1137 525 1137 l 1050 1137 m 712 0 q 233 199 431 0 q 34 678 34 397 q 233 1158 34 959 q 712 1356 431 1356 l 1050 1356 l 1050 1191 l 712 1191 q 351 1041 500 1191 q 201 678 201 891 q 351 315 201 465 q 712 165 500 165 l 1050 165 l 1050 0 l 712 0 z "},"d":{"ha":1131,"x_min":34,"x_max":1097,"o":"m 34 0 l 34 1356 l 419 1356 q 899 1158 700 1356 q 1097 678 1097 959 q 899 199 1097 397 q 419 0 700 0 l 34 0 m 199 1191 l 199 165 l 419 165 q 781 315 631 165 q 932 678 932 465 q 781 1041 932 891 q 419 1191 631 1191 l 199 1191 m 419 1137 q 742 1002 608 1137 q 876 678 876 867 q 742 355 876 490 q 418 220 608 220 l 254 220 l 254 1137 l 419 1137 m 419 385 q 625 471 540 385 q 711 678 711 557 q 625 886 711 800 q 419 972 540 972 l 419 385 z "},"e":{"ha":920,"x_min":34,"x_max":886,"o":"m 422 876 l 800 876 l 800 711 l 254 711 l 254 971 l 255 971 q 308 1084 260 1035 q 437 1137 362 1137 l 886 1137 l 886 972 l 476 972 q 438 956 454 972 q 422 918 422 940 l 422 876 m 422 439 q 438 401 422 418 q 476 385 454 385 l 886 385 l 886 220 l 437 220 q 308 273 362 220 q 255 385 260 321 l 254 385 l 254 646 l 800 646 l 800 480 l 422 480 l 422 439 m 34 971 q 152 1238 41 1126 q 439 1356 271 1356 l 886 1356 l 886 1191 l 439 1191 q 270 1120 340 1191 q 199 951 199 1050 l 199 406 q 270 236 199 307 q 439 165 340 165 l 886 165 l 886 0 l 439 0 q 152 118 271 0 q 34 385 41 231 l 34 971 z "},"f":{"ha":920,"x_min":34,"x_max":886,"o":"m 419 480 l 419 0 l 254 0 l 254 646 l 800 646 l 800 480 l 419 480 m 422 876 l 800 876 l 800 711 l 254 711 l 254 971 l 255 971 q 308 1084 260 1035 q 437 1137 362 1137 l 886 1137 l 886 972 l 476 972 q 438 956 454 972 q 422 918 422 940 l 422 876 m 199 0 l 34 0 l 34 971 q 152 1238 41 1126 q 439 1356 271 1356 l 886 1356 l 886 1191 l 439 1191 q 270 1120 340 1191 q 199 951 199 1050 l 199 0 z "},"g":{"ha":1152,"x_min":34,"x_max":1118,"o":"m 712 1191 q 351 1042 500 1192 q 201 678 201 891 q 351 317 201 467 q 712 165 500 167 l 954 165 l 954 646 l 1118 646 l 1118 0 l 712 0 q 233 199 431 0 q 34 678 34 397 q 233 1158 34 959 q 712 1356 431 1356 l 1115 1356 l 1115 1191 l 712 1191 m 715 220 q 384 355 522 220 q 245 678 245 490 q 384 1001 245 865 q 715 1137 522 1137 l 1115 1137 l 1115 972 l 715 972 q 504 885 591 971 q 416 678 416 799 q 504 471 416 557 q 715 385 591 385 l 735 385 l 735 646 l 899 646 l 899 220 l 715 220 z "},"h":{"ha":1084,"x_min":34,"x_max":1050,"o":"m 199 1356 l 199 0 l 34 0 l 34 678 l 34 1356 l 199 1356 m 1050 1356 l 1050 0 l 886 0 l 886 1356 l 1050 1356 m 831 1356 l 831 711 l 254 711 l 254 1356 l 419 1356 l 419 875 l 666 875 l 666 1356 l 831 1356 m 666 0 l 666 479 l 419 479 l 419 0 l 254 0 l 254 646 l 831 646 l 831 0 l 666 0 z "},"i":{"ha":499,"x_min":57,"x_max":442,"o":"m 442 1356 l 442 0 l 277 0 l 277 1356 l 442 1356 m 222 1356 l 222 0 l 57 0 l 57 1356 l 222 1356 z "},"j":{"ha":1084,"x_min":34,"x_max":1050,"o":"m 831 509 q 747 304 831 389 q 543 220 662 220 q 338 304 423 220 q 252 509 252 389 l 418 509 q 454 421 418 457 q 543 385 491 385 q 630 421 594 385 q 666 509 666 457 l 666 1356 l 831 1356 l 831 509 m 1050 507 q 902 149 1050 297 q 543 0 754 0 q 183 149 332 0 q 34 509 34 297 l 198 509 q 299 267 198 368 q 543 165 400 165 q 785 267 684 165 q 886 509 886 368 l 886 1356 l 1050 1356 l 1050 507 z "},"k":{"ha":1204,"x_min":34,"x_max":1171,"o":"m 198 0 l 34 0 l 34 1356 l 198 1356 l 198 0 m 419 1149 l 629 1356 l 864 1356 l 255 761 l 255 1356 l 419 1356 l 419 1149 m 928 1356 l 1161 1356 l 644 850 l 917 422 q 936 399 925 410 q 974 382 952 382 l 1171 382 l 1171 220 l 954 220 q 826 273 879 220 q 798 308 808 290 l 434 872 l 928 1356 m 734 301 q 784 236 770 250 q 954 165 854 165 l 1171 165 l 1171 0 l 924 0 q 667 117 774 9 q 598 206 625 159 l 419 486 l 419 0 l 255 0 l 255 697 l 396 836 l 734 301 z "},"l":{"ha":1005,"x_min":34,"x_max":971,"o":"m 254 1356 l 418 1356 l 418 441 q 435 402 418 419 q 473 385 452 385 l 967 385 l 967 220 l 434 220 q 307 273 359 220 q 254 400 254 326 l 254 1356 m 34 404 l 34 1356 l 199 1356 l 199 404 q 269 235 199 305 q 438 165 339 165 l 971 165 l 971 0 l 438 0 q 153 119 271 0 q 34 404 34 237 z "},"m":{"ha":1881,"x_min":34,"x_max":1847,"o":"m 357 384 q 301 279 346 324 q 159 220 241 220 l 34 220 l 34 385 l 130 385 q 186 408 163 385 q 198 426 194 416 l 384 1172 q 412 1238 393 1206 q 560 1348 464 1324 q 745 1321 659 1373 q 854 1172 831 1270 l 940 822 l 1027 1172 q 1137 1321 1050 1270 q 1321 1348 1223 1373 q 1469 1238 1417 1324 q 1497 1172 1488 1206 l 1683 426 q 1695 408 1687 416 q 1751 385 1718 385 l 1847 385 l 1847 220 l 1723 220 q 1580 279 1640 220 q 1525 384 1535 324 q 1326 1153 1339 1133 q 1280 1188 1310 1180 q 1223 1179 1251 1195 q 1188 1131 1196 1162 q 963 237 1185 1123 q 956 227 962 232 q 940 220 949 220 q 924 227 930 220 q 918 240 918 232 q 694 1131 697 1122 q 659 1179 686 1162 q 601 1188 631 1195 q 555 1153 571 1180 q 454 772 543 1133 q 357 384 365 412 m 572 336 q 458 123 549 214 q 160 0 335 0 l 34 0 l 34 165 l 160 165 q 340 240 266 165 q 400 330 382 282 l 598 1119 q 605 1130 600 1124 q 621 1137 612 1137 q 636 1130 631 1137 q 643 1116 643 1124 q 868 224 867 231 q 903 178 876 194 q 960 168 930 161 q 1006 203 990 176 q 1240 1116 1013 216 q 1245 1130 1240 1124 q 1261 1137 1252 1137 q 1278 1130 1271 1137 q 1284 1119 1283 1124 l 1482 330 q 1542 240 1500 282 q 1723 165 1617 165 l 1847 165 l 1847 0 l 1723 0 q 1424 123 1548 0 q 1310 336 1333 214 l 1263 524 l 1177 184 q 1149 118 1168 151 q 1001 8 1097 33 q 817 35 903 -16 q 707 184 730 87 l 621 524 l 572 336 z "},"n":{"ha":1426,"x_min":34,"x_max":1392,"o":"m 1100 955 q 1153 1083 1100 1029 q 1282 1137 1206 1137 l 1392 1137 l 1392 972 l 1320 972 q 1282 956 1298 972 q 1265 918 1265 940 l 1265 243 q 1195 71 1265 141 q 1024 0 1124 0 q 853 71 924 0 q 825 103 837 85 l 545 585 l 545 406 q 426 119 544 237 q 140 0 308 0 l 34 0 l 34 165 l 140 165 q 310 236 240 165 q 378 406 380 307 l 378 1114 q 386 1131 378 1123 q 403 1138 393 1138 q 420 1131 414 1138 q 948 218 423 1127 q 970 187 954 205 q 1024 165 993 165 q 1078 188 1055 165 q 1100 243 1100 210 l 1100 955 m 880 951 q 1000 1238 882 1119 q 1286 1356 1118 1356 l 1392 1356 l 1392 1191 l 1287 1191 q 1117 1120 1187 1191 q 1047 951 1047 1050 l 1047 244 q 1040 227 1047 235 q 1023 220 1032 220 q 1005 228 1012 220 q 477 1138 1002 231 q 456 1169 472 1152 q 401 1191 433 1191 q 348 1168 370 1191 q 326 1114 326 1146 l 326 401 q 273 273 326 327 q 144 220 220 220 l 34 220 l 34 385 l 106 385 q 144 401 127 385 q 160 439 160 418 l 160 1114 q 231 1286 160 1215 q 401 1356 301 1356 q 572 1286 502 1356 q 601 1253 589 1271 l 880 772 l 880 951 z "},"o":{"ha":1426,"x_min":34,"x_max":1392,"o":"m 712 220 q 389 354 524 220 q 255 678 255 488 q 389 1002 255 867 q 712 1137 524 1137 q 1035 1002 901 1137 q 1169 678 1169 867 q 1035 354 1169 488 q 712 220 901 220 m 712 972 q 505 886 591 972 q 419 680 419 800 q 505 471 419 557 q 712 385 591 385 q 919 471 833 385 q 1005 680 1005 557 q 919 886 1005 800 q 712 972 833 972 m 712 1191 q 350 1041 500 1191 q 199 680 199 891 q 350 315 199 465 q 712 165 500 165 q 1074 315 924 165 q 1225 680 1225 465 q 1074 1041 1225 891 q 712 1191 924 1191 m 712 0 q 233 199 431 0 q 34 678 34 397 q 233 1157 34 958 q 712 1356 431 1356 q 1192 1157 993 1356 q 1392 678 1392 958 q 1192 199 1392 397 q 712 0 993 0 z "},"p":{"ha":1124,"x_min":34,"x_max":1089,"o":"m 605 1137 q 791 1059 714 1136 q 869 871 869 982 q 791 683 869 761 q 604 605 713 605 l 438 605 q 269 535 339 605 q 199 366 199 465 l 199 0 l 34 0 l 34 369 q 153 654 34 536 q 438 773 271 773 l 605 773 q 675 802 646 773 q 704 872 704 831 q 675 943 704 913 q 605 972 646 972 l 34 972 l 34 1137 l 605 1137 m 604 384 l 473 384 q 435 367 452 384 q 418 328 418 350 l 418 0 l 254 0 l 254 372 q 307 499 254 446 q 434 552 359 552 l 604 552 q 829 646 735 552 q 922 873 922 739 q 829 1099 922 1006 q 604 1191 735 1191 l 34 1191 l 34 1356 l 604 1356 q 947 1214 806 1356 q 1089 871 1089 1072 q 947 526 1089 669 q 604 384 806 384 z "},"q":{"ha":1510,"x_min":34,"x_max":1476,"o":"m 713 220 q 389 354 524 220 q 255 680 255 488 q 389 1002 255 868 q 713 1137 524 1137 q 1036 1002 902 1137 q 1171 680 1171 868 q 1036 354 1171 488 q 713 220 902 220 m 713 972 q 506 886 591 972 q 420 680 420 800 q 506 471 420 557 q 713 385 591 385 q 920 471 834 385 q 1005 680 1005 557 q 920 886 1005 800 q 713 972 834 972 m 945 220 q 1076 316 1015 255 q 1225 680 1225 465 q 1075 1041 1225 891 q 713 1191 925 1191 q 351 1041 500 1191 q 201 680 201 891 q 351 315 201 465 q 713 165 500 165 l 1476 165 l 1476 0 l 713 0 q 233 199 431 0 q 34 680 34 397 q 233 1158 34 959 q 713 1356 431 1356 q 1193 1158 994 1356 q 1392 680 1392 959 q 1335 400 1392 528 l 1336 401 q 1328 385 1332 393 l 1476 385 l 1476 220 l 945 220 z "},"r":{"ha":1229,"x_min":34,"x_max":1195,"o":"m 159 849 q 308 1207 159 1058 q 667 1356 457 1356 q 1026 1207 878 1356 q 1175 849 1175 1058 q 1027 490 1175 637 q 1010 475 1019 483 q 997 463 1009 475 q 983 430 983 449 q 997 399 983 412 q 1029 385 1010 385 l 1195 385 l 1195 220 l 1029 220 q 881 283 943 221 q 819 430 819 345 q 882 578 819 517 q 898 594 894 590 q 910 606 903 600 q 1009 849 1009 707 q 909 1090 1009 990 q 667 1191 808 1191 q 425 1090 525 1191 q 324 849 324 990 l 324 401 q 271 273 324 327 q 142 220 217 220 l 34 220 l 34 384 l 104 384 q 142 400 126 384 q 159 438 159 416 l 159 849 m 378 849 q 462 1052 377 967 q 667 1137 547 1137 q 871 1052 787 1137 q 956 849 956 967 q 869 642 956 728 q 842 617 856 631 q 764 430 764 540 q 842 243 764 321 q 1029 165 920 165 l 1195 165 l 1195 0 l 1029 0 q 726 126 852 0 q 600 430 600 252 q 726 735 600 608 q 757 764 741 750 q 791 849 791 799 q 754 936 791 899 q 667 972 718 972 q 579 936 616 972 q 544 849 543 899 l 544 404 q 426 119 544 237 q 140 0 308 0 l 34 0 l 34 165 l 140 165 q 309 236 239 165 q 378 385 373 300 l 378 849 z "},"s":{"ha":1084,"x_min":34,"x_max":1050,"o":"m 614 0 l 34 0 l 34 165 l 614 165 q 805 245 726 165 q 884 435 884 324 q 805 625 884 547 q 614 704 726 704 l 469 704 q 316 768 380 704 q 252 921 252 831 q 316 1073 252 1009 q 469 1137 380 1135 l 1050 1137 l 1050 972 l 469 972 q 433 958 448 972 q 418 921 418 943 q 433 884 418 899 q 469 869 448 869 l 614 869 q 922 742 793 869 q 1050 435 1050 614 q 922 127 1050 254 q 614 0 793 0 m 614 385 q 651 400 636 385 q 666 437 666 415 q 651 472 666 457 q 614 487 636 487 l 469 487 q 161 614 289 487 q 34 922 34 741 q 161 1229 34 1101 q 469 1356 289 1356 l 1050 1356 l 1050 1191 l 469 1191 q 279 1112 358 1191 q 199 922 199 1034 q 279 732 199 811 q 469 652 358 652 l 614 651 q 768 588 704 651 q 831 437 831 525 q 768 283 831 347 q 614 220 704 220 l 34 220 l 34 385 l 614 385 z "},"t":{"ha":1072,"x_min":34,"x_max":1038,"o":"m 728 972 l 728 0 l 563 0 l 563 1137 l 1038 1137 l 1038 972 l 728 972 m 509 0 l 345 0 l 345 972 l 34 972 l 34 1137 l 509 1137 l 509 0 m 1038 1356 l 1038 1191 l 34 1191 l 34 1356 l 1038 1356 z "},"u":{"ha":1336,"x_min":34,"x_max":1302,"o":"m 792 954 q 910 1238 792 1119 q 1196 1356 1028 1356 l 1302 1356 l 1302 1191 l 1196 1191 q 1026 1120 1096 1191 q 956 951 956 1050 l 956 507 q 871 304 956 389 q 666 220 787 220 q 463 304 547 220 q 378 507 378 389 l 378 971 q 309 1120 373 1057 q 140 1191 239 1191 l 34 1191 l 34 1356 l 140 1356 q 426 1238 308 1356 q 544 952 544 1119 l 543 952 l 543 507 q 578 421 543 457 q 666 385 614 385 q 755 421 719 385 q 792 507 792 457 l 792 954 m 159 918 q 142 956 159 940 q 104 972 126 972 l 34 972 l 34 1137 l 142 1137 q 271 1083 217 1137 q 324 955 324 1029 l 324 507 q 425 267 324 368 q 666 165 525 165 q 910 267 810 165 q 1010 507 1010 368 l 1010 955 q 1063 1083 1010 1029 q 1192 1137 1116 1137 l 1302 1137 l 1302 972 l 1230 972 q 1192 956 1208 972 q 1176 918 1176 940 l 1176 507 q 1027 149 1176 297 q 666 0 878 0 q 307 149 456 0 q 159 507 159 297 l 159 918 z "},"v":{"ha":1579,"x_min":34,"x_max":1545,"o":"m 789 165 q 846 189 822 165 q 863 213 857 199 l 1134 1019 q 1176 1084 1146 1054 q 1303 1137 1229 1137 l 1545 1137 l 1545 972 l 1333 972 q 1295 956 1312 972 q 1282 939 1287 948 l 1024 174 q 963 71 1008 115 q 789 0 892 0 q 616 71 686 0 q 555 174 571 115 l 297 939 q 283 956 292 948 q 245 972 267 972 l 34 972 l 34 1137 l 275 1137 q 403 1084 350 1137 q 445 1019 433 1054 l 716 213 q 732 189 722 199 q 789 165 757 165 m 789 688 l 922 1088 q 1019 1237 956 1176 q 1303 1356 1137 1356 l 1545 1356 l 1545 1191 l 1303 1191 q 1135 1120 1204 1191 q 1077 1024 1100 1085 l 812 240 q 806 227 811 233 q 789 220 799 220 q 773 227 780 220 q 766 240 768 233 l 502 1024 q 444 1120 479 1085 q 275 1191 374 1191 l 34 1191 l 34 1356 l 275 1356 q 560 1237 442 1356 q 656 1088 623 1176 l 789 688 z "},"w":{"ha":1881,"x_min":34,"x_max":1847,"o":"m 555 203 q 601 168 571 176 q 659 178 631 161 q 694 225 686 194 q 918 1116 697 235 q 924 1130 918 1124 q 940 1137 930 1137 q 956 1130 949 1137 q 963 1119 962 1124 q 1188 225 1185 233 q 1223 178 1196 194 q 1280 168 1251 161 q 1326 203 1310 176 q 1525 972 1339 224 q 1580 1077 1535 1032 q 1723 1137 1640 1137 l 1847 1137 l 1847 972 l 1751 972 q 1695 949 1718 972 q 1683 932 1687 941 l 1497 184 q 1469 118 1488 151 q 1321 8 1417 33 q 1137 35 1223 -16 q 1027 184 1050 87 l 940 534 l 854 184 q 745 35 831 87 q 560 8 659 -16 q 412 118 464 33 q 384 184 393 151 l 198 932 q 186 949 194 941 q 130 972 163 972 l 34 972 l 34 1137 l 159 1137 q 301 1077 241 1137 q 357 972 346 1032 q 454 584 365 944 q 555 203 543 224 m 621 833 l 707 1172 q 817 1321 730 1270 q 1001 1348 903 1373 q 1149 1238 1097 1324 q 1177 1172 1168 1206 l 1263 833 l 1310 1020 q 1424 1233 1333 1142 q 1723 1356 1548 1356 l 1847 1356 l 1847 1191 l 1723 1191 q 1542 1116 1617 1191 q 1482 1027 1500 1074 l 1284 236 q 1278 225 1283 231 q 1261 218 1271 218 q 1245 225 1252 218 q 1240 239 1240 231 q 1006 1153 1013 1141 q 960 1188 990 1180 q 903 1179 930 1195 q 868 1133 876 1162 q 643 239 867 1126 q 636 225 643 231 q 621 218 631 218 q 605 225 612 218 q 598 236 600 231 l 400 1027 q 340 1116 382 1074 q 160 1191 266 1191 l 34 1191 l 34 1356 l 160 1356 q 458 1233 335 1356 q 572 1020 549 1142 l 621 833 z "},"x":{"ha":1358,"x_min":34,"x_max":1324,"o":"m 887 301 q 937 236 924 250 q 1107 165 1008 165 l 1324 165 l 1324 0 l 1107 0 q 1077 0 1092 0 q 821 117 928 9 q 751 206 779 159 l 678 320 l 606 206 q 537 117 579 159 q 281 0 430 9 q 251 0 266 0 l 34 0 l 34 165 l 251 165 q 420 236 350 165 q 471 301 434 250 l 678 631 l 887 301 m 947 1048 q 975 1084 958 1066 q 1103 1137 1028 1137 l 1324 1137 l 1324 972 l 1123 972 q 1085 956 1101 972 q 1066 933 1074 945 l 906 681 l 1070 422 q 1089 399 1078 410 q 1127 382 1105 382 l 1324 382 l 1324 220 l 1107 220 q 979 273 1032 220 q 951 308 962 290 l 711 681 l 947 1048 m 473 1055 q 423 1120 437 1107 q 254 1191 353 1191 l 34 1191 l 34 1356 l 254 1356 q 283 1355 269 1356 q 540 1238 433 1345 q 609 1149 582 1196 l 678 1042 l 747 1149 q 817 1238 774 1196 q 1073 1355 924 1345 q 1103 1356 1088 1356 l 1324 1356 l 1324 1191 l 1103 1191 q 933 1120 1004 1191 q 883 1055 920 1107 l 678 732 l 473 1055 m 290 933 q 271 956 282 945 q 233 972 255 972 l 34 972 l 34 1137 l 254 1137 q 381 1084 328 1137 q 410 1048 399 1066 l 646 681 l 407 308 q 378 273 396 290 q 251 220 326 220 l 34 220 l 34 382 l 231 382 q 269 399 252 382 q 288 422 279 410 l 450 681 l 290 933 z "},"y":{"ha":1168,"x_min":34,"x_max":1134,"o":"m 968 404 l 968 1356 l 1134 1356 l 1134 404 q 1015 119 1134 237 q 730 0 897 0 l 34 0 l 34 165 l 730 165 q 899 235 829 165 q 968 404 968 305 m 910 692 l 910 400 q 857 273 910 326 q 730 220 804 220 l 34 220 l 34 385 l 690 385 q 729 402 712 385 q 746 441 746 419 l 746 526 l 438 526 q 153 645 271 526 q 34 930 34 764 l 34 1356 l 199 1356 l 199 930 q 269 762 199 831 q 438 692 339 692 l 910 692 m 438 750 q 311 803 363 750 q 258 930 258 856 l 258 1356 l 422 1356 l 422 970 q 439 931 422 948 q 477 914 456 914 l 746 914 l 746 1356 l 910 1356 l 910 750 l 438 750 z "},"z":{"ha":1169,"x_min":34,"x_max":1135,"o":"m 909 1099 l 221 297 q 199 243 199 274 q 222 188 199 210 q 277 165 244 165 l 1135 165 l 1135 0 l 277 0 q 104 71 175 0 q 34 243 34 141 q 75 377 34 319 l 582 972 l 34 972 l 34 1137 l 895 1137 q 909 1131 903 1137 q 916 1115 916 1124 q 909 1099 916 1105 m 260 258 l 948 1059 q 970 1114 970 1082 q 947 1168 970 1146 q 892 1191 925 1191 l 34 1191 l 34 1356 l 892 1356 q 1065 1286 994 1356 q 1135 1114 1135 1215 q 1095 979 1135 1038 l 587 385 l 1135 385 l 1135 220 l 274 220 q 260 225 266 220 q 254 241 254 232 q 260 258 254 251 z "},"{":{"ha":766,"x_min":102,"x_max":664,"o":"m 153 1000 q 272 1286 154 1168 q 558 1405 390 1405 l 664 1405 l 664 1240 l 559 1240 q 389 1169 459 1240 q 319 1000 319 1099 l 318 921 q 254 768 318 831 q 102 704 191 704 l 102 869 q 138 884 123 869 q 153 921 153 899 l 153 1000 m 153 435 q 138 472 153 457 q 102 487 123 487 l 102 652 q 254 589 191 652 q 318 435 318 525 l 319 357 q 389 187 319 258 q 559 117 459 117 l 664 117 l 664 -48 l 558 -48 q 272 70 390 -48 q 153 357 154 189 l 153 435 m 218 678 q 294 732 258 697 q 342 798 323 762 q 372 921 372 854 l 372 1004 q 425 1132 372 1078 q 554 1185 478 1185 l 664 1185 l 664 1021 l 592 1021 q 554 1005 570 1021 q 538 922 541 992 q 465 678 538 785 q 538 434 538 572 q 554 351 541 364 q 592 335 570 335 l 664 335 l 664 171 l 554 171 q 425 224 478 171 q 372 353 372 278 l 372 435 q 342 559 372 502 q 294 624 323 594 q 218 678 258 659 z "},"|":{"ha":369,"x_min":102,"x_max":267,"o":"m 267 1356 l 267 0 l 102 0 l 102 1356 l 267 1356 z "},"}":{"ha":766,"x_min":102,"x_max":664,"o":"m 613 921 q 628 884 613 899 q 664 869 642 869 l 664 704 q 511 768 575 704 q 448 921 448 831 l 446 1000 q 376 1169 446 1099 q 206 1240 307 1240 l 102 1240 l 102 1405 l 208 1405 q 494 1286 376 1405 q 613 1000 612 1168 l 613 921 m 613 357 q 494 70 612 189 q 208 -48 376 -48 l 102 -48 l 102 117 l 206 117 q 376 187 307 117 q 446 357 446 258 l 448 435 q 511 589 448 525 q 664 652 575 652 l 664 487 q 628 472 642 487 q 613 435 613 457 l 613 357 m 548 678 q 472 624 507 659 q 423 559 442 594 q 393 435 393 502 l 393 353 q 340 224 393 278 q 212 171 288 171 l 102 171 l 102 335 l 174 335 q 212 351 195 335 q 228 434 224 364 q 300 678 228 572 q 228 922 228 785 q 212 1005 224 992 q 174 1021 195 1021 l 102 1021 l 102 1185 l 212 1185 q 340 1132 288 1185 q 393 1004 393 1078 l 393 921 q 423 798 393 854 q 472 732 442 762 q 548 678 507 697 z "},"~":{"ha":940,"x_min":102,"x_max":838,"o":"m 600 802 q 677 824 650 802 q 747 884 704 846 l 838 778 q 779 692 810 727 q 600 613 705 613 q 453 669 536 613 q 339 724 370 724 q 262 703 290 724 q 192 643 235 681 l 102 749 q 161 834 128 800 q 339 913 235 913 q 486 858 404 913 q 600 802 569 802 z "},"":{"ha":1417,"x_min":34,"x_max":1383,"o":"m 780 605 l 709 818 l 639 605 l 780 605 m 1015 1124 l 1383 0 l 1210 0 l 853 1082 q 815 1146 842 1118 q 709 1190 772 1190 q 606 1146 648 1190 q 567 1081 578 1118 l 209 0 l 34 0 l 407 1128 q 487 1264 427 1204 q 709 1356 579 1356 q 933 1264 841 1356 q 1015 1124 994 1203 m 411 439 l 616 1063 q 643 1111 623 1090 q 709 1138 670 1138 q 779 1111 750 1138 q 806 1062 799 1089 q 1008 439 854 906 l 411 439 m 1027 385 l 1153 0 l 978 0 l 906 220 l 513 220 l 441 0 l 266 0 l 392 385 l 1027 385 m 643 1651 l 643 1407 l 399 1407 l 399 1651 l 643 1651 m 1001 1651 l 1001 1407 l 757 1407 l 757 1651 l 1001 1651 z "},"":{"ha":1417,"x_min":34,"x_max":1383,"o":"m 780 605 l 709 818 l 639 605 l 780 605 m 1015 1124 l 1383 0 l 1210 0 l 853 1082 q 815 1146 842 1118 q 709 1190 772 1190 q 606 1146 648 1190 q 567 1081 578 1118 l 209 0 l 34 0 l 407 1128 q 487 1264 427 1204 q 709 1356 579 1356 q 933 1264 841 1356 q 1015 1124 994 1203 m 411 439 l 616 1063 q 643 1111 623 1090 q 709 1138 670 1138 q 779 1111 750 1138 q 806 1062 799 1089 q 1008 439 854 906 l 411 439 m 1027 385 l 1153 0 l 978 0 l 906 220 l 513 220 l 441 0 l 266 0 l 392 385 l 1027 385 m 900 1605 q 842 1466 900 1524 q 702 1407 783 1407 q 561 1466 619 1407 q 503 1605 503 1524 q 561 1746 503 1688 q 702 1805 619 1805 q 842 1746 783 1805 q 900 1605 900 1688 m 702 1695 q 638 1669 664 1695 q 612 1605 612 1643 q 638 1542 612 1569 q 702 1515 664 1515 q 765 1542 739 1515 q 791 1605 791 1569 q 765 1669 791 1643 q 702 1695 739 1695 z "},"":{"ha":1226,"x_min":34,"x_max":1192,"o":"m 1036 354 q 712 220 902 220 q 388 354 522 220 q 254 678 254 488 q 388 1002 254 868 q 712 1137 522 1137 q 1036 1002 902 1137 l 920 886 q 712 971 834 971 q 505 886 591 971 q 419 678 419 800 q 505 471 419 556 q 712 385 591 385 q 920 471 834 385 l 1036 354 m 620 5 q 233 199 398 33 q 34 678 34 397 q 233 1158 34 959 q 712 1356 431 1356 q 1192 1158 993 1356 l 1076 1042 q 712 1191 925 1191 q 350 1041 500 1191 q 199 678 199 891 q 350 315 199 465 q 712 165 500 165 q 1076 316 925 165 l 1192 199 q 812 7 1029 37 l 812 -92 q 768 -188 808 -149 q 659 -233 723 -233 l 506 -233 l 506 -92 l 563 -92 q 603 -75 586 -92 q 620 -35 620 -58 l 620 5 z "},"":{"ha":920,"x_min":34,"x_max":886,"o":"m 422 876 l 800 876 l 800 711 l 254 711 l 254 971 l 255 971 q 308 1084 260 1035 q 437 1137 362 1137 l 886 1137 l 886 972 l 476 972 q 438 956 454 972 q 422 918 422 940 l 422 876 m 422 439 q 438 401 422 418 q 476 385 454 385 l 886 385 l 886 220 l 437 220 q 308 273 362 220 q 255 385 260 321 l 254 385 l 254 646 l 800 646 l 800 480 l 422 480 l 422 439 m 34 971 q 152 1238 41 1126 q 439 1356 271 1356 l 886 1356 l 886 1191 l 439 1191 q 270 1120 340 1191 q 199 951 199 1050 l 199 406 q 270 236 199 307 q 439 165 340 165 l 886 165 l 886 0 l 439 0 q 152 118 271 0 q 34 385 41 231 l 34 971 m 442 1651 l 731 1651 l 549 1407 l 362 1407 l 442 1651 z "},"":{"ha":1173,"x_min":34,"x_max":1139,"o":"m 419 917 l 822 218 q 844 187 827 205 q 898 165 867 165 q 951 188 929 165 q 974 243 974 210 l 974 1356 l 1139 1356 l 1139 243 q 1069 71 1139 141 q 898 0 998 0 q 727 71 798 0 q 699 103 711 85 l 697 102 l 419 585 l 419 0 l 252 0 l 252 1114 q 260 1131 252 1123 q 277 1138 267 1138 q 294 1131 288 1138 q 419 917 297 1127 m 754 439 l 351 1138 q 330 1169 346 1152 q 275 1191 307 1191 q 222 1168 244 1191 q 199 1114 199 1146 l 199 0 l 34 0 l 34 1114 q 104 1286 34 1215 q 275 1356 175 1356 q 446 1286 376 1356 q 475 1253 463 1271 l 476 1255 l 754 772 l 754 1356 l 921 1356 l 921 243 q 913 226 921 233 q 897 218 906 218 q 879 227 886 218 q 754 439 876 229 m 668 1541 q 726 1556 705 1541 q 780 1598 747 1571 l 848 1524 q 804 1463 827 1488 q 668 1407 747 1407 q 556 1447 619 1407 q 469 1486 493 1486 q 411 1471 432 1486 q 357 1428 391 1455 l 289 1503 q 334 1563 309 1539 q 469 1619 390 1619 q 581 1580 518 1619 q 668 1541 644 1541 z "},"":{"ha":1426,"x_min":34,"x_max":1392,"o":"m 712 220 q 389 354 524 220 q 255 678 255 488 q 389 1002 255 867 q 712 1137 524 1137 q 1035 1002 901 1137 q 1169 678 1169 867 q 1035 354 1169 488 q 712 220 901 220 m 712 972 q 505 886 591 972 q 419 680 419 800 q 505 471 419 557 q 712 385 591 385 q 919 471 833 385 q 1005 680 1005 557 q 919 886 1005 800 q 712 972 833 972 m 712 1191 q 350 1041 500 1191 q 199 680 199 891 q 350 315 199 465 q 712 165 500 165 q 1074 315 924 165 q 1225 680 1225 465 q 1074 1041 1225 891 q 712 1191 924 1191 m 712 0 q 233 199 431 0 q 34 678 34 397 q 233 1157 34 958 q 712 1356 431 1356 q 1192 1157 993 1356 q 1392 678 1392 958 q 1192 199 1392 397 q 712 0 993 0 m 648 1651 l 648 1407 l 404 1407 l 404 1651 l 648 1651 m 1006 1651 l 1006 1407 l 762 1407 l 762 1651 l 1006 1651 z "},"":{"ha":1084,"x_min":34,"x_max":1050,"o":"m 666 507 l 666 1356 l 831 1356 l 831 507 q 746 303 831 388 q 541 218 661 218 q 337 303 422 218 q 252 507 252 388 l 252 1356 l 418 1356 l 418 507 q 454 420 418 456 q 541 384 490 384 q 629 420 593 384 q 666 507 666 456 m 886 507 l 886 1356 l 1050 1356 l 1050 507 q 901 149 1050 297 q 541 0 753 0 q 182 149 331 0 q 34 507 34 297 l 34 1356 l 198 1356 l 198 507 q 299 265 198 366 q 541 164 400 164 q 785 265 684 164 q 886 507 886 366 m 476 1651 l 476 1407 l 232 1407 l 232 1651 l 476 1651 m 834 1651 l 834 1407 l 590 1407 l 590 1651 l 834 1651 z "},"":{"ha":1675,"x_min":34,"x_max":1641,"o":"m 534 1128 q 614 1264 555 1204 q 837 1356 707 1356 q 1061 1264 968 1356 q 1142 1124 1122 1203 l 1375 419 q 1389 401 1381 410 q 1427 385 1405 385 l 1641 385 l 1641 220 l 1397 220 q 1270 274 1322 221 q 1227 339 1240 304 l 981 1084 q 943 1147 970 1119 q 837 1191 899 1191 q 734 1147 776 1191 q 694 1082 705 1119 l 448 339 q 406 274 435 304 q 278 220 353 221 l 34 220 l 34 385 l 248 385 q 286 401 270 385 q 300 419 294 410 l 534 1128 m 656 269 q 560 119 623 180 q 275 0 442 0 l 34 0 l 34 165 l 275 165 q 444 236 374 165 q 502 332 479 271 l 743 1062 q 770 1109 750 1089 q 837 1137 798 1137 q 906 1109 878 1137 q 932 1061 926 1088 l 1173 332 q 1232 236 1196 271 q 1400 165 1301 165 l 1641 165 l 1641 0 l 1400 0 q 1115 119 1233 0 q 1019 269 1053 180 l 837 818 l 656 269 m 795 1651 l 1084 1651 l 902 1407 l 715 1407 l 795 1651 z "},"":{"ha":1675,"x_min":34,"x_max":1641,"o":"m 534 1128 q 614 1264 555 1204 q 837 1356 707 1356 q 1061 1264 968 1356 q 1142 1124 1122 1203 l 1375 419 q 1389 401 1381 410 q 1427 385 1405 385 l 1641 385 l 1641 220 l 1397 220 q 1270 274 1322 221 q 1227 339 1240 304 l 981 1084 q 943 1147 970 1119 q 837 1191 899 1191 q 734 1147 776 1191 q 694 1082 705 1119 l 448 339 q 406 274 435 304 q 278 220 353 221 l 34 220 l 34 385 l 248 385 q 286 401 270 385 q 300 419 294 410 l 534 1128 m 656 269 q 560 119 623 180 q 275 0 442 0 l 34 0 l 34 165 l 275 165 q 444 236 374 165 q 502 332 479 271 l 743 1062 q 770 1109 750 1089 q 837 1137 798 1137 q 906 1109 878 1137 q 932 1061 926 1088 l 1173 332 q 1232 236 1196 271 q 1400 165 1301 165 l 1641 165 l 1641 0 l 1400 0 q 1115 119 1233 0 q 1019 269 1053 180 l 837 818 l 656 269 m 919 1407 l 732 1407 l 550 1651 l 839 1651 l 919 1407 z "},"":{"ha":1675,"x_min":34,"x_max":1641,"o":"m 534 1128 q 614 1264 555 1204 q 837 1356 707 1356 q 1061 1264 968 1356 q 1142 1124 1122 1203 l 1375 419 q 1389 401 1381 410 q 1427 385 1405 385 l 1641 385 l 1641 220 l 1397 220 q 1270 274 1322 221 q 1227 339 1240 304 l 981 1084 q 943 1147 970 1119 q 837 1191 899 1191 q 734 1147 776 1191 q 694 1082 705 1119 l 448 339 q 406 274 435 304 q 278 220 353 221 l 34 220 l 34 385 l 248 385 q 286 401 270 385 q 300 419 294 410 l 534 1128 m 656 269 q 560 119 623 180 q 275 0 442 0 l 34 0 l 34 165 l 275 165 q 444 236 374 165 q 502 332 479 271 l 743 1062 q 770 1109 750 1089 q 837 1137 798 1137 q 906 1109 878 1137 q 932 1061 926 1088 l 1173 332 q 1232 236 1196 271 q 1400 165 1301 165 l 1641 165 l 1641 0 l 1400 0 q 1115 119 1233 0 q 1019 269 1053 180 l 837 818 l 656 269 m 832 1524 l 751 1407 l 522 1407 l 692 1651 l 973 1651 l 1144 1407 l 915 1407 l 832 1524 z "},"":{"ha":1675,"x_min":34,"x_max":1641,"o":"m 534 1128 q 614 1264 555 1204 q 837 1356 707 1356 q 1061 1264 968 1356 q 1142 1124 1122 1203 l 1375 419 q 1389 401 1381 410 q 1427 385 1405 385 l 1641 385 l 1641 220 l 1397 220 q 1270 274 1322 221 q 1227 339 1240 304 l 981 1084 q 943 1147 970 1119 q 837 1191 899 1191 q 734 1147 776 1191 q 694 1082 705 1119 l 448 339 q 406 274 435 304 q 278 220 353 221 l 34 220 l 34 385 l 248 385 q 286 401 270 385 q 300 419 294 410 l 534 1128 m 656 269 q 560 119 623 180 q 275 0 442 0 l 34 0 l 34 165 l 275 165 q 444 236 374 165 q 502 332 479 271 l 743 1062 q 770 1109 750 1089 q 837 1137 798 1137 q 906 1109 878 1137 q 932 1061 926 1088 l 1173 332 q 1232 236 1196 271 q 1400 165 1301 165 l 1641 165 l 1641 0 l 1400 0 q 1115 119 1233 0 q 1019 269 1053 180 l 837 818 l 656 269 m 766 1651 l 766 1407 l 522 1407 l 522 1651 l 766 1651 m 1124 1651 l 1124 1407 l 880 1407 l 880 1651 l 1124 1651 z "},"":{"ha":1675,"x_min":34,"x_max":1641,"o":"m 534 1128 q 614 1264 555 1204 q 837 1356 707 1356 q 1061 1264 968 1356 q 1142 1124 1122 1203 l 1375 419 q 1389 401 1381 410 q 1427 385 1405 385 l 1641 385 l 1641 220 l 1397 220 q 1270 274 1322 221 q 1227 339 1240 304 l 981 1084 q 943 1147 970 1119 q 837 1191 899 1191 q 734 1147 776 1191 q 694 1082 705 1119 l 448 339 q 406 274 435 304 q 278 220 353 221 l 34 220 l 34 385 l 248 385 q 286 401 270 385 q 300 419 294 410 l 534 1128 m 656 269 q 560 119 623 180 q 275 0 442 0 l 34 0 l 34 165 l 275 165 q 444 236 374 165 q 502 332 479 271 l 743 1062 q 770 1109 750 1089 q 837 1137 798 1137 q 906 1109 878 1137 q 932 1061 926 1088 l 1173 332 q 1232 236 1196 271 q 1400 165 1301 165 l 1641 165 l 1641 0 l 1400 0 q 1115 119 1233 0 q 1019 269 1053 180 l 837 818 l 656 269 m 932 1541 q 990 1556 969 1541 q 1044 1598 1010 1571 l 1112 1524 q 1067 1463 1091 1488 q 932 1407 1011 1407 q 820 1447 883 1407 q 733 1486 757 1486 q 675 1471 696 1486 q 621 1428 654 1455 l 553 1503 q 597 1563 573 1539 q 733 1619 654 1619 q 845 1580 782 1619 q 932 1541 908 1541 z "},"":{"ha":1675,"x_min":34,"x_max":1641,"o":"m 534 1128 q 614 1264 555 1204 q 837 1356 707 1356 q 1061 1264 968 1356 q 1142 1124 1122 1203 l 1375 419 q 1389 401 1381 410 q 1427 385 1405 385 l 1641 385 l 1641 220 l 1397 220 q 1270 274 1322 221 q 1227 339 1240 304 l 981 1084 q 943 1147 970 1119 q 837 1191 899 1191 q 734 1147 776 1191 q 694 1082 705 1119 l 448 339 q 406 274 435 304 q 278 220 353 221 l 34 220 l 34 385 l 248 385 q 286 401 270 385 q 300 419 294 410 l 534 1128 m 656 269 q 560 119 623 180 q 275 0 442 0 l 34 0 l 34 165 l 275 165 q 444 236 374 165 q 502 332 479 271 l 743 1062 q 770 1109 750 1089 q 837 1137 798 1137 q 906 1109 878 1137 q 932 1061 926 1088 l 1173 332 q 1232 236 1196 271 q 1400 165 1301 165 l 1641 165 l 1641 0 l 1400 0 q 1115 119 1233 0 q 1019 269 1053 180 l 837 818 l 656 269 m 1015 1605 q 957 1466 1015 1524 q 817 1407 899 1407 q 676 1466 734 1407 q 618 1605 618 1524 q 676 1746 618 1688 q 817 1805 734 1805 q 957 1746 899 1805 q 1015 1605 1015 1688 m 817 1695 q 753 1669 779 1695 q 727 1605 727 1643 q 753 1542 727 1569 q 817 1515 779 1515 q 880 1542 854 1515 q 906 1605 906 1569 q 880 1669 906 1643 q 817 1695 854 1695 z "},"":{"ha":1084,"x_min":34,"x_max":1050,"o":"m 1050 1137 l 1050 972 l 712 972 q 507 886 593 972 q 420 678 420 800 q 507 471 420 557 q 712 385 593 385 l 1050 385 l 1050 220 l 712 220 q 390 355 525 220 q 255 678 255 490 q 390 1002 255 867 q 712 1137 525 1137 l 1050 1137 m 650 3 q 233 199 409 22 q 34 678 34 397 q 233 1158 34 959 q 712 1356 431 1356 l 1050 1356 l 1050 1191 l 712 1191 q 351 1041 500 1191 q 201 678 201 891 q 351 315 201 465 q 712 165 500 165 l 1050 165 l 1050 0 l 842 0 l 842 -92 q 798 -188 838 -149 q 689 -233 753 -233 l 536 -233 l 536 -92 l 593 -92 q 633 -75 616 -92 q 650 -35 650 -58 l 650 3 z "},"":{"ha":920,"x_min":34,"x_max":886,"o":"m 422 876 l 800 876 l 800 711 l 254 711 l 254 971 l 255 971 q 308 1084 260 1035 q 437 1137 362 1137 l 886 1137 l 886 972 l 476 972 q 438 956 454 972 q 422 918 422 940 l 422 876 m 422 439 q 438 401 422 418 q 476 385 454 385 l 886 385 l 886 220 l 437 220 q 308 273 362 220 q 255 385 260 321 l 254 385 l 254 646 l 800 646 l 800 480 l 422 480 l 422 439 m 34 971 q 152 1238 41 1126 q 439 1356 271 1356 l 886 1356 l 886 1191 l 439 1191 q 270 1120 340 1191 q 199 951 199 1050 l 199 406 q 270 236 199 307 q 439 165 340 165 l 886 165 l 886 0 l 439 0 q 152 118 271 0 q 34 385 41 231 l 34 971 m 447 1651 l 736 1651 l 554 1407 l 367 1407 l 447 1651 z "},"":{"ha":920,"x_min":34,"x_max":886,"o":"m 422 876 l 800 876 l 800 711 l 254 711 l 254 971 l 255 971 q 308 1084 260 1035 q 437 1137 362 1137 l 886 1137 l 886 972 l 476 972 q 438 956 454 972 q 422 918 422 940 l 422 876 m 422 439 q 438 401 422 418 q 476 385 454 385 l 886 385 l 886 220 l 437 220 q 308 273 362 220 q 255 385 260 321 l 254 385 l 254 646 l 800 646 l 800 480 l 422 480 l 422 439 m 34 971 q 152 1238 41 1126 q 439 1356 271 1356 l 886 1356 l 886 1191 l 439 1191 q 270 1120 340 1191 q 199 951 199 1050 l 199 406 q 270 236 199 307 q 439 165 340 165 l 886 165 l 886 0 l 439 0 q 152 118 271 0 q 34 385 41 231 l 34 971 m 628 1407 l 441 1407 l 259 1651 l 548 1651 l 628 1407 z "},"":{"ha":920,"x_min":34,"x_max":886,"o":"m 422 876 l 800 876 l 800 711 l 254 711 l 254 971 l 255 971 q 308 1084 260 1035 q 437 1137 362 1137 l 886 1137 l 886 972 l 476 972 q 438 956 454 972 q 422 918 422 940 l 422 876 m 422 439 q 438 401 422 418 q 476 385 454 385 l 886 385 l 886 220 l 437 220 q 308 273 362 220 q 255 385 260 321 l 254 385 l 254 646 l 800 646 l 800 480 l 422 480 l 422 439 m 34 971 q 152 1238 41 1126 q 439 1356 271 1356 l 886 1356 l 886 1191 l 439 1191 q 270 1120 340 1191 q 199 951 199 1050 l 199 406 q 270 236 199 307 q 439 165 340 165 l 886 165 l 886 0 l 439 0 q 152 118 271 0 q 34 385 41 231 l 34 971 m 491 1524 l 410 1407 l 180 1407 l 351 1651 l 632 1651 l 803 1407 l 574 1407 l 491 1524 z "},"":{"ha":920,"x_min":34,"x_max":886,"o":"m 422 876 l 800 876 l 800 711 l 254 711 l 254 971 l 255 971 q 308 1084 260 1035 q 437 1137 362 1137 l 886 1137 l 886 972 l 476 972 q 438 956 454 972 q 422 918 422 940 l 422 876 m 422 439 q 438 401 422 418 q 476 385 454 385 l 886 385 l 886 220 l 437 220 q 308 273 362 220 q 255 385 260 321 l 254 385 l 254 646 l 800 646 l 800 480 l 422 480 l 422 439 m 34 971 q 152 1238 41 1126 q 439 1356 271 1356 l 886 1356 l 886 1191 l 439 1191 q 270 1120 340 1191 q 199 951 199 1050 l 199 406 q 270 236 199 307 q 439 165 340 165 l 886 165 l 886 0 l 439 0 q 152 118 271 0 q 34 385 41 231 l 34 971 m 442 1651 l 442 1407 l 198 1407 l 198 1651 l 442 1651 m 800 1651 l 800 1407 l 556 1407 l 556 1651 l 800 1651 z "},"":{"ha":513,"x_min":34,"x_max":479,"o":"m 190 1651 l 479 1651 l 297 1407 l 110 1407 l 190 1651 m 419 1356 l 419 0 l 254 0 l 254 1356 l 419 1356 m 199 1356 l 199 0 l 34 0 l 34 1356 l 199 1356 z "},"":{"ha":536,"x_min":34,"x_max":503,"o":"m 403 1407 l 216 1407 l 34 1651 l 323 1651 l 403 1407 m 499 1356 l 499 0 l 334 0 l 334 1356 l 499 1356 m 279 1356 l 279 0 l 114 0 l 114 1356 l 279 1356 z "},"":{"ha":566,"x_min":34,"x_max":532,"o":"m 282 1524 l 217 1407 l 34 1407 l 171 1651 l 395 1651 l 532 1407 l 349 1407 l 282 1524 m 477 1356 l 477 0 l 312 0 l 312 1356 l 477 1356 m 258 1356 l 258 0 l 92 0 l 92 1356 l 258 1356 z "},"":{"ha":670,"x_min":34,"x_max":636,"o":"m 278 1652 l 278 1408 l 34 1408 l 34 1652 l 278 1652 m 636 1652 l 636 1408 l 392 1408 l 392 1652 l 636 1652 m 528 1356 l 528 0 l 363 0 l 363 1356 l 528 1356 m 309 1356 l 309 0 l 143 0 l 143 1356 l 309 1356 z "},"":{"ha":1426,"x_min":34,"x_max":1392,"o":"m 1100 955 q 1153 1083 1100 1029 q 1282 1137 1206 1137 l 1392 1137 l 1392 972 l 1320 972 q 1282 956 1298 972 q 1265 918 1265 940 l 1265 243 q 1195 71 1265 141 q 1024 0 1124 0 q 853 71 924 0 q 825 103 837 85 l 545 585 l 545 406 q 426 119 544 237 q 140 0 308 0 l 34 0 l 34 165 l 140 165 q 310 236 240 165 q 378 406 380 307 l 378 1114 q 386 1131 378 1123 q 403 1138 393 1138 q 420 1131 414 1138 q 948 218 423 1127 q 970 187 954 205 q 1024 165 993 165 q 1078 188 1055 165 q 1100 243 1100 210 l 1100 955 m 880 951 q 1000 1238 882 1119 q 1286 1356 1118 1356 l 1392 1356 l 1392 1191 l 1287 1191 q 1117 1120 1187 1191 q 1047 951 1047 1050 l 1047 244 q 1040 227 1047 235 q 1023 220 1032 220 q 1005 228 1012 220 q 477 1138 1002 231 q 456 1169 472 1152 q 401 1191 433 1191 q 348 1168 370 1191 q 326 1114 326 1146 l 326 401 q 273 273 326 327 q 144 220 220 220 l 34 220 l 34 385 l 106 385 q 144 401 127 385 q 160 439 160 418 l 160 1114 q 231 1286 160 1215 q 401 1356 301 1356 q 572 1286 502 1356 q 601 1253 589 1271 l 880 772 l 880 951 m 877 1541 q 935 1557 914 1541 q 989 1599 956 1572 l 1057 1525 q 1013 1464 1036 1489 q 877 1408 956 1408 q 765 1447 828 1408 q 678 1487 702 1487 q 620 1471 641 1487 q 566 1429 600 1456 l 498 1503 q 543 1564 518 1539 q 678 1620 599 1620 q 790 1581 727 1620 q 877 1541 853 1541 z "},"":{"ha":1426,"x_min":34,"x_max":1392,"o":"m 712 220 q 389 354 524 220 q 255 678 255 488 q 389 1002 255 867 q 712 1137 524 1137 q 1035 1002 901 1137 q 1169 678 1169 867 q 1035 354 1169 488 q 712 220 901 220 m 712 972 q 505 886 591 972 q 419 680 419 800 q 505 471 419 557 q 712 385 591 385 q 919 471 833 385 q 1005 680 1005 557 q 919 886 1005 800 q 712 972 833 972 m 712 1191 q 350 1041 500 1191 q 199 680 199 891 q 350 315 199 465 q 712 165 500 165 q 1074 315 924 165 q 1225 680 1225 465 q 1074 1041 1225 891 q 712 1191 924 1191 m 712 0 q 233 199 431 0 q 34 678 34 397 q 233 1157 34 958 q 712 1356 431 1356 q 1192 1157 993 1356 q 1392 678 1392 958 q 1192 199 1392 397 q 712 0 993 0 m 660 1651 l 949 1651 l 767 1407 l 580 1407 l 660 1651 z "},"":{"ha":1426,"x_min":34,"x_max":1392,"o":"m 712 220 q 389 354 524 220 q 255 678 255 488 q 389 1002 255 867 q 712 1137 524 1137 q 1035 1002 901 1137 q 1169 678 1169 867 q 1035 354 1169 488 q 712 220 901 220 m 712 972 q 505 886 591 972 q 419 680 419 800 q 505 471 419 557 q 712 385 591 385 q 919 471 833 385 q 1005 680 1005 557 q 919 886 1005 800 q 712 972 833 972 m 712 1191 q 350 1041 500 1191 q 199 680 199 891 q 350 315 199 465 q 712 165 500 165 q 1074 315 924 165 q 1225 680 1225 465 q 1074 1041 1225 891 q 712 1191 924 1191 m 712 0 q 233 199 431 0 q 34 678 34 397 q 233 1157 34 958 q 712 1356 431 1356 q 1192 1157 993 1356 q 1392 678 1392 958 q 1192 199 1392 397 q 712 0 993 0 m 836 1407 l 648 1407 l 467 1651 l 755 1651 l 836 1407 z "},"":{"ha":1426,"x_min":34,"x_max":1392,"o":"m 712 220 q 389 354 524 220 q 255 678 255 488 q 389 1002 255 867 q 712 1137 524 1137 q 1035 1002 901 1137 q 1169 678 1169 867 q 1035 354 1169 488 q 712 220 901 220 m 712 972 q 505 886 591 972 q 419 680 419 800 q 505 471 419 557 q 712 385 591 385 q 919 471 833 385 q 1005 680 1005 557 q 919 886 1005 800 q 712 972 833 972 m 712 1191 q 350 1041 500 1191 q 199 680 199 891 q 350 315 199 465 q 712 165 500 165 q 1074 315 924 165 q 1225 680 1225 465 q 1074 1041 1225 891 q 712 1191 924 1191 m 712 0 q 233 199 431 0 q 34 678 34 397 q 233 1157 34 958 q 712 1356 431 1356 q 1192 1157 993 1356 q 1392 678 1392 958 q 1192 199 1392 397 q 712 0 993 0 m 712 1524 l 631 1407 l 401 1407 l 572 1651 l 853 1651 l 1024 1407 l 795 1407 l 712 1524 z "},"":{"ha":1426,"x_min":34,"x_max":1392,"o":"m 712 220 q 389 354 524 220 q 255 678 255 488 q 389 1002 255 867 q 712 1137 524 1137 q 1035 1002 901 1137 q 1169 678 1169 867 q 1035 354 1169 488 q 712 220 901 220 m 712 972 q 505 886 591 972 q 419 680 419 800 q 505 471 419 557 q 712 385 591 385 q 919 471 833 385 q 1005 680 1005 557 q 919 886 1005 800 q 712 972 833 972 m 712 1191 q 350 1041 500 1191 q 199 680 199 891 q 350 315 199 465 q 712 165 500 165 q 1074 315 924 165 q 1225 680 1225 465 q 1074 1041 1225 891 q 712 1191 924 1191 m 712 0 q 233 199 431 0 q 34 678 34 397 q 233 1157 34 958 q 712 1356 431 1356 q 1192 1157 993 1356 q 1392 678 1392 958 q 1192 199 1392 397 q 712 0 993 0 m 648 1651 l 648 1407 l 404 1407 l 404 1651 l 648 1651 m 1006 1651 l 1006 1407 l 762 1407 l 762 1651 l 1006 1651 z "},"":{"ha":1426,"x_min":34,"x_max":1392,"o":"m 712 220 q 389 354 524 220 q 255 678 255 488 q 389 1002 255 867 q 712 1137 524 1137 q 1035 1002 901 1137 q 1169 678 1169 867 q 1035 354 1169 488 q 712 220 901 220 m 712 972 q 505 886 591 972 q 419 680 419 800 q 505 471 419 557 q 712 385 591 385 q 919 471 833 385 q 1005 680 1005 557 q 919 886 1005 800 q 712 972 833 972 m 712 1191 q 350 1041 500 1191 q 199 680 199 891 q 350 315 199 465 q 712 165 500 165 q 1074 315 924 165 q 1225 680 1225 465 q 1074 1041 1225 891 q 712 1191 924 1191 m 712 0 q 233 199 431 0 q 34 678 34 397 q 233 1157 34 958 q 712 1356 431 1356 q 1192 1157 993 1356 q 1392 678 1392 958 q 1192 199 1392 397 q 712 0 993 0 m 765 1541 q 823 1556 802 1541 q 877 1598 844 1571 l 945 1524 q 901 1463 924 1488 q 765 1407 844 1407 q 653 1447 716 1407 q 566 1486 590 1486 q 508 1471 529 1486 q 454 1428 488 1455 l 386 1503 q 431 1563 406 1539 q 566 1619 487 1619 q 678 1580 615 1619 q 765 1541 741 1541 z "},"":{"ha":1336,"x_min":34,"x_max":1302,"o":"m 792 954 q 910 1238 792 1119 q 1196 1356 1028 1356 l 1302 1356 l 1302 1191 l 1196 1191 q 1026 1120 1096 1191 q 956 951 956 1050 l 956 507 q 871 304 956 389 q 666 220 787 220 q 463 304 547 220 q 378 507 378 389 l 378 971 q 309 1120 373 1057 q 140 1191 239 1191 l 34 1191 l 34 1356 l 140 1356 q 426 1238 308 1356 q 544 952 544 1119 l 543 952 l 543 507 q 578 421 543 457 q 666 385 614 385 q 755 421 719 385 q 792 507 792 457 l 792 954 m 159 918 q 142 956 159 940 q 104 972 126 972 l 34 972 l 34 1137 l 142 1137 q 271 1083 217 1137 q 324 955 324 1029 l 324 507 q 425 267 324 368 q 666 165 525 165 q 910 267 810 165 q 1010 507 1010 368 l 1010 955 q 1063 1083 1010 1029 q 1192 1137 1116 1137 l 1302 1137 l 1302 972 l 1230 972 q 1192 956 1208 972 q 1176 918 1176 940 l 1176 507 q 1027 149 1176 297 q 666 0 878 0 q 307 149 456 0 q 159 507 159 297 l 159 918 m 648 1651 l 937 1651 l 755 1407 l 568 1407 l 648 1651 z "},"":{"ha":1336,"x_min":34,"x_max":1302,"o":"m 792 954 q 910 1238 792 1119 q 1196 1356 1028 1356 l 1302 1356 l 1302 1191 l 1196 1191 q 1026 1120 1096 1191 q 956 951 956 1050 l 956 507 q 871 304 956 389 q 666 220 787 220 q 463 304 547 220 q 378 507 378 389 l 378 971 q 309 1120 373 1057 q 140 1191 239 1191 l 34 1191 l 34 1356 l 140 1356 q 426 1238 308 1356 q 544 952 544 1119 l 543 952 l 543 507 q 578 421 543 457 q 666 385 614 385 q 755 421 719 385 q 792 507 792 457 l 792 954 m 159 918 q 142 956 159 940 q 104 972 126 972 l 34 972 l 34 1137 l 142 1137 q 271 1083 217 1137 q 324 955 324 1029 l 324 507 q 425 267 324 368 q 666 165 525 165 q 910 267 810 165 q 1010 507 1010 368 l 1010 955 q 1063 1083 1010 1029 q 1192 1137 1116 1137 l 1302 1137 l 1302 972 l 1230 972 q 1192 956 1208 972 q 1176 918 1176 940 l 1176 507 q 1027 149 1176 297 q 666 0 878 0 q 307 149 456 0 q 159 507 159 297 l 159 918 m 760 1407 l 573 1407 l 391 1651 l 680 1651 l 760 1407 z "},"":{"ha":1336,"x_min":34,"x_max":1302,"o":"m 792 954 q 910 1238 792 1119 q 1196 1356 1028 1356 l 1302 1356 l 1302 1191 l 1196 1191 q 1026 1120 1096 1191 q 956 951 956 1050 l 956 507 q 871 304 956 389 q 666 220 787 220 q 463 304 547 220 q 378 507 378 389 l 378 971 q 309 1120 373 1057 q 140 1191 239 1191 l 34 1191 l 34 1356 l 140 1356 q 426 1238 308 1356 q 544 952 544 1119 l 543 952 l 543 507 q 578 421 543 457 q 666 385 614 385 q 755 421 719 385 q 792 507 792 457 l 792 954 m 159 918 q 142 956 159 940 q 104 972 126 972 l 34 972 l 34 1137 l 142 1137 q 271 1083 217 1137 q 324 955 324 1029 l 324 507 q 425 267 324 368 q 666 165 525 165 q 910 267 810 165 q 1010 507 1010 368 l 1010 955 q 1063 1083 1010 1029 q 1192 1137 1116 1137 l 1302 1137 l 1302 972 l 1230 972 q 1192 956 1208 972 q 1176 918 1176 940 l 1176 507 q 1027 149 1176 297 q 666 0 878 0 q 307 149 456 0 q 159 507 159 297 l 159 918 m 661 1524 l 579 1407 l 350 1407 l 521 1651 l 802 1651 l 972 1407 l 743 1407 l 661 1524 z "},"":{"ha":1336,"x_min":34,"x_max":1302,"o":"m 792 954 q 910 1238 792 1119 q 1196 1356 1028 1356 l 1302 1356 l 1302 1191 l 1196 1191 q 1026 1120 1096 1191 q 956 951 956 1050 l 956 507 q 871 304 956 389 q 666 220 787 220 q 463 304 547 220 q 378 507 378 389 l 378 971 q 309 1120 373 1057 q 140 1191 239 1191 l 34 1191 l 34 1356 l 140 1356 q 426 1238 308 1356 q 544 952 544 1119 l 543 952 l 543 507 q 578 421 543 457 q 666 385 614 385 q 755 421 719 385 q 792 507 792 457 l 792 954 m 159 918 q 142 956 159 940 q 104 972 126 972 l 34 972 l 34 1137 l 142 1137 q 271 1083 217 1137 q 324 955 324 1029 l 324 507 q 425 267 324 368 q 666 165 525 165 q 910 267 810 165 q 1010 507 1010 368 l 1010 955 q 1063 1083 1010 1029 q 1192 1137 1116 1137 l 1302 1137 l 1302 972 l 1230 972 q 1192 956 1208 972 q 1176 918 1176 940 l 1176 507 q 1027 149 1176 297 q 666 0 878 0 q 307 149 456 0 q 159 507 159 297 l 159 918 m 604 1651 l 604 1407 l 359 1407 l 359 1651 l 604 1651 m 962 1651 l 962 1407 l 718 1407 l 718 1651 l 962 1651 z "},"":{"ha":1207,"x_min":102,"x_max":1105,"o":"m 796 0 l 631 0 l 631 967 l 1105 967 l 1105 803 l 796 803 l 796 0 m 576 1021 l 102 1021 l 102 1185 l 412 1185 l 412 1356 l 576 1356 l 576 1021 m 1105 1185 l 1105 1021 l 631 1021 l 631 1356 l 796 1356 l 796 1185 l 1105 1185 m 576 0 l 412 0 l 412 803 l 102 803 l 102 967 l 576 967 l 576 0 z "},"":{"ha":713,"x_min":102,"x_max":611,"o":"m 357 801 q 176 876 251 801 q 102 1056 102 950 q 176 1236 102 1162 q 357 1311 251 1311 q 536 1236 462 1311 q 611 1056 611 1162 q 536 876 611 950 q 357 801 462 801 m 357 918 q 454 958 414 918 q 494 1056 494 998 q 454 1154 494 1114 q 357 1194 414 1194 q 259 1154 299 1194 q 218 1056 218 1114 q 259 958 218 998 q 357 918 299 918 z "},"":{"ha":864,"x_min":102,"x_max":762,"o":"m 762 997 l 762 888 l 544 888 q 410 832 465 888 q 354 699 354 776 q 410 564 354 620 q 544 507 465 507 l 762 507 l 762 400 l 544 400 q 334 488 422 400 q 245 699 245 576 q 334 909 245 821 q 544 997 422 997 l 762 997 m 563 1177 l 671 1177 l 671 1139 l 762 1139 l 762 1032 l 563 1032 l 563 1177 m 528 217 l 420 217 l 420 274 q 231 387 313 304 q 102 699 102 515 q 231 1010 102 882 q 420 1123 313 1093 l 420 1177 l 528 1177 l 528 1032 q 308 935 400 1027 q 210 699 210 837 q 308 463 210 560 q 528 365 400 370 l 528 217 m 563 365 l 762 365 l 762 258 l 671 258 l 671 217 l 563 217 l 563 365 z "},"":{"ha":1392,"x_min":119,"x_max":1253,"o":"m 282 739 l 282 908 q 424 1251 282 1109 q 768 1394 566 1394 q 1112 1251 970 1394 q 1253 908 1253 1109 l 1086 908 q 993 1136 1086 1044 q 768 1228 899 1228 q 542 1136 635 1228 q 449 911 449 1044 l 449 739 l 503 739 l 503 908 q 580 1097 503 1019 q 768 1174 656 1174 q 956 1097 878 1174 q 1034 908 1034 1019 l 868 908 q 839 980 868 950 q 769 1010 810 1010 q 699 980 728 1010 q 669 909 669 950 l 669 739 l 863 739 l 863 570 l 669 570 l 669 441 q 686 402 669 419 q 724 385 703 385 l 1249 385 l 1249 220 l 684 220 q 556 273 609 220 q 503 400 503 326 l 503 570 l 449 570 l 449 377 q 517 235 457 296 q 686 165 587 165 l 1253 165 l 1253 0 l 686 0 q 401 119 519 0 q 286 342 304 215 l 282 342 l 282 570 l 119 570 l 119 739 l 282 739 z "},"":{"ha":1685,"x_min":34,"x_max":1651,"o":"m 1046 273 l 1215 273 q 1406 352 1326 273 q 1485 543 1485 431 q 1406 732 1485 654 q 1215 811 1326 811 l 1070 811 q 917 875 981 811 q 853 1028 853 939 q 917 1180 853 1116 q 1070 1244 981 1242 l 1651 1244 l 1651 1080 l 1070 1080 q 1034 1065 1048 1080 q 1019 1028 1019 1050 q 1034 991 1019 1006 q 1070 977 1048 977 l 1215 977 q 1522 849 1394 977 q 1651 543 1651 722 q 1522 234 1651 361 q 1215 107 1394 107 l 987 107 q 922 25 960 64 q 614 -102 793 -102 l 34 -102 l 34 64 l 614 64 q 805 143 726 64 q 884 334 884 222 q 805 524 884 445 q 614 602 726 602 l 469 602 q 316 666 380 602 q 252 819 252 730 q 316 971 252 907 q 469 1035 380 1034 l 635 1035 q 638 1089 635 1063 l 469 1089 q 279 1010 358 1089 q 199 821 199 932 q 279 630 199 709 q 469 551 358 551 l 614 549 q 768 486 704 549 q 831 335 831 423 q 768 182 831 245 q 614 118 704 118 l 34 118 l 34 283 l 614 283 q 651 298 636 283 q 666 335 666 313 q 651 370 666 355 q 614 385 636 385 l 469 385 q 161 512 289 385 q 34 821 34 639 q 161 1127 34 1000 q 469 1255 289 1255 l 697 1255 q 762 1336 724 1297 q 1070 1463 890 1463 l 1651 1463 l 1651 1298 l 1070 1298 q 880 1219 959 1298 q 800 1029 800 1141 q 880 839 800 918 q 1070 760 959 760 l 1215 758 q 1369 695 1305 758 q 1432 544 1432 632 q 1369 391 1432 454 q 1215 327 1305 327 l 1050 327 q 1046 273 1049 299 m 663 871 l 469 871 q 433 856 448 871 q 418 819 418 841 q 433 783 418 798 q 469 768 448 768 l 614 768 q 734 752 677 768 q 663 871 688 807 m 949 610 q 1021 492 996 555 l 1215 492 q 1252 507 1237 492 q 1267 544 1267 522 q 1252 579 1267 564 q 1215 594 1237 594 l 1070 594 q 949 610 1006 594 z "},"":{"ha":713,"x_min":102,"x_max":611,"o":"m 357 568 q 277 601 310 568 q 245 680 245 633 q 277 758 245 726 q 357 791 310 791 q 435 758 403 791 q 468 680 468 726 q 435 601 468 633 q 357 568 403 568 m 357 425 q 176 499 251 425 q 102 680 102 574 q 176 860 102 785 q 357 935 251 935 q 536 860 462 935 q 611 680 611 785 q 536 499 611 574 q 357 425 462 425 m 357 523 q 467 569 421 523 q 513 680 513 614 q 467 790 513 745 q 357 836 421 836 q 246 790 292 836 q 200 680 200 745 q 246 569 200 614 q 357 523 292 523 z "},"":{"ha":1696,"x_min":102,"x_max":1594,"o":"m 615 869 l 615 972 l 537 972 q 500 958 515 972 q 486 921 486 943 q 500 884 486 899 q 537 869 515 869 l 615 869 m 537 704 q 384 768 448 704 q 320 921 320 831 q 384 1073 320 1009 q 537 1137 448 1135 l 779 1137 l 779 704 l 537 704 m 537 1191 q 347 1112 426 1191 q 267 922 267 1034 q 347 732 267 811 q 537 652 426 652 l 779 652 l 779 -1 l 615 -1 l 615 487 l 537 487 q 229 614 357 487 q 102 922 102 741 q 229 1229 102 1101 q 537 1356 357 1356 l 1594 1356 l 1594 1191 l 537 1191 m 1091 972 l 999 972 l 999 -1 l 833 -1 l 833 1137 l 1255 1137 l 1255 0 l 1091 0 l 1091 972 m 1475 972 l 1475 0 l 1310 0 l 1310 1137 l 1594 1137 l 1594 972 l 1475 972 z "},"":{"ha":1186,"x_min":34,"x_max":1152,"o":"m 813 675 q 884 886 884 766 q 784 1128 884 1027 q 543 1228 684 1228 q 300 1128 400 1228 q 199 886 199 1027 l 199 -58 l 34 -58 l 34 886 q 183 1244 34 1095 q 543 1394 332 1394 q 901 1244 753 1394 q 1050 886 1050 1095 q 954 585 1050 705 q 958 557 943 572 q 1090 359 1051 467 q 1077 26 1152 189 q 830 -199 1001 -137 q 506 -188 666 -259 l 556 -27 q 568 -33 562 -31 q 773 -43 669 -81 q 926 96 878 -5 q 935 302 973 198 q 862 412 911 369 q 817 456 839 431 q 771 566 771 509 q 813 675 771 622 m 643 814 q 666 886 666 845 q 629 973 666 937 q 543 1010 593 1010 q 454 973 491 1010 q 419 886 418 937 l 419 -58 l 254 -58 l 254 886 q 337 1089 252 1004 q 543 1174 422 1174 q 747 1089 662 1174 q 831 886 831 1004 q 771 709 831 786 q 717 566 717 643 q 770 431 717 495 q 827 373 797 397 q 886 285 868 338 q 879 119 918 201 q 757 7 841 37 q 593 16 674 -24 q 572 26 582 20 l 624 191 q 652 168 638 180 q 661 164 656 165 q 701 162 680 155 q 730 189 721 170 q 732 228 739 208 q 718 248 727 240 q 621 347 661 291 q 545 566 545 452 q 618 782 545 679 q 643 814 630 799 z "},"":{"ha":1500,"x_min":102,"x_max":1398,"o":"m 749 1296 q 376 1141 532 1296 q 221 769 221 987 q 376 394 221 549 q 749 239 532 239 q 1122 394 967 239 q 1278 769 1278 549 q 1122 1141 1278 987 q 749 1296 967 1296 m 749 120 q 292 310 481 120 q 102 768 102 500 q 292 1225 102 1035 q 749 1415 481 1415 q 1208 1225 1018 1415 q 1398 768 1398 1035 q 1208 310 1398 500 q 749 120 1018 120 m 1042 530 l 949 530 q 866 565 901 530 q 831 648 831 600 q 866 730 831 696 q 876 739 873 737 q 882 747 878 743 q 938 882 938 803 q 882 1018 938 962 q 746 1074 825 1074 q 610 1018 666 1074 q 553 882 553 962 l 553 406 l 461 406 l 461 882 q 545 1083 461 1000 q 746 1167 628 1167 q 947 1083 864 1167 q 1030 882 1030 1000 q 947 681 1030 764 q 939 673 943 677 q 931 666 938 673 q 923 648 923 659 q 931 630 923 637 q 949 623 939 623 l 1042 623 l 1042 530 m 1042 406 l 949 406 q 779 477 850 406 q 708 648 708 548 q 779 819 708 747 q 796 835 787 827 q 815 882 815 854 q 795 931 815 911 q 746 951 774 951 q 697 931 718 951 q 677 882 676 911 l 677 406 l 584 406 l 584 882 q 631 996 583 949 q 746 1044 678 1044 q 861 996 813 1044 q 908 882 908 949 q 859 766 908 814 q 844 753 852 760 q 800 648 800 709 q 844 543 800 587 q 949 499 888 499 l 1042 499 l 1042 406 z "},"":{"ha":1500,"x_min":102,"x_max":1398,"o":"m 944 572 q 749 492 863 492 q 554 573 635 492 q 473 768 473 654 q 554 963 473 882 q 749 1044 635 1044 q 944 963 863 1044 l 874 892 q 749 944 823 944 q 625 892 677 944 q 573 768 573 841 q 625 643 573 694 q 749 591 677 591 q 874 643 823 591 l 944 572 m 968 987 q 749 1076 878 1076 q 531 986 622 1076 q 441 768 441 896 q 531 549 441 640 q 749 459 622 459 q 968 550 878 459 l 1038 479 q 749 359 918 359 q 461 479 581 359 q 341 768 341 599 q 461 1056 341 937 q 749 1176 581 1176 q 1038 1057 918 1176 l 968 987 m 749 120 q 292 310 481 120 q 102 768 102 500 q 292 1225 102 1035 q 749 1415 481 1415 q 1208 1225 1018 1415 q 1398 768 1398 1035 q 1208 310 1398 500 q 749 120 1018 120 m 749 1296 q 376 1141 532 1296 q 221 769 221 987 q 376 394 221 549 q 749 239 532 239 q 1122 394 967 239 q 1278 769 1278 549 q 1122 1141 1278 987 q 749 1296 967 1296 z "},"":{"ha":1289,"x_min":102,"x_max":1187,"o":"m 380 974 l 380 609 l 313 609 l 313 1035 l 503 1035 l 503 974 l 380 974 m 292 609 l 226 609 l 226 974 l 102 974 l 102 1035 l 292 1035 l 292 609 m 503 1118 l 503 1056 l 102 1056 l 102 1118 l 503 1118 m 833 722 q 832 724 833 723 q 749 1033 750 1030 q 735 1051 746 1045 q 712 1055 724 1057 q 694 1041 700 1052 q 577 609 688 1032 l 509 609 l 625 1048 q 637 1073 629 1061 q 696 1115 657 1105 q 770 1104 735 1124 q 814 1048 804 1085 l 848 917 l 882 1048 q 926 1104 892 1085 q 1000 1115 961 1124 q 1059 1073 1039 1105 q 1071 1048 1067 1061 l 1187 609 l 1118 609 q 1002 1041 1008 1032 q 984 1055 996 1052 q 961 1051 972 1057 q 946 1033 950 1045 q 864 724 945 1030 q 863 722 863 723 l 857 699 q 855 694 857 696 q 848 691 852 691 q 842 694 844 691 q 839 698 840 696 l 833 722 m 1097 609 l 1028 609 l 976 805 l 942 678 q 898 622 932 642 q 824 612 863 603 q 765 653 785 621 q 753 678 757 665 l 719 805 l 667 609 l 599 609 l 703 1002 q 704 1006 703 1004 l 710 1029 q 713 1033 711 1031 q 720 1036 716 1036 q 726 1033 723 1036 q 728 1028 728 1031 l 735 1003 l 735 1002 q 822 685 819 690 q 840 672 828 675 q 863 676 852 670 q 877 693 874 682 q 960 1002 878 695 l 967 1028 q 970 1033 967 1031 q 976 1036 972 1036 q 982 1033 980 1036 q 985 1029 984 1031 l 992 1002 l 1097 609 z "},"":{"ha":423,"x_min":27,"x_max":396,"o":"m 107 1292 l 396 1292 l 214 1048 l 27 1048 l 107 1292 z "},"":{"ha":656,"x_min":27,"x_max":629,"o":"m 271 1293 l 271 1048 l 27 1048 l 27 1293 l 271 1293 m 629 1293 l 629 1048 l 385 1048 l 385 1293 l 629 1293 z "},"":{"ha":1040,"x_min":102,"x_max":939,"o":"m 102 10 l 277 222 l 191 222 l 191 388 l 413 388 l 458 442 l 191 442 l 191 608 l 594 608 l 785 839 l 939 839 l 748 608 l 832 608 l 832 442 l 612 442 l 568 388 l 832 388 l 832 222 l 431 222 l 257 10 l 102 10 z "},"":{"ha":1986,"x_min":34,"x_max":1952,"o":"m 780 605 l 709 818 l 639 605 l 780 605 m 411 439 l 616 1063 q 643 1111 623 1090 q 709 1138 670 1138 q 779 1111 750 1138 q 806 1062 799 1089 q 1008 439 854 906 l 411 439 m 1377 19 l 1383 0 l 1210 0 l 853 1082 q 815 1146 842 1118 q 709 1190 772 1190 q 606 1146 648 1190 q 567 1081 578 1118 l 209 0 l 34 0 l 407 1128 q 487 1264 427 1204 q 709 1356 579 1356 q 933 1264 841 1356 q 1015 1124 994 1203 l 1100 864 l 1100 971 q 1218 1238 1107 1126 q 1506 1356 1337 1356 l 1952 1356 l 1952 1191 l 1506 1191 q 1336 1120 1407 1191 q 1265 951 1265 1050 l 1265 406 q 1336 236 1265 307 q 1506 165 1407 165 l 1952 165 l 1952 0 l 1506 0 q 1377 19 1438 0 m 1488 439 q 1504 401 1488 418 q 1542 385 1520 385 l 1952 385 l 1952 220 l 1503 220 q 1374 273 1428 220 q 1321 385 1326 321 l 1320 385 l 1320 646 l 1866 646 l 1866 480 l 1488 480 l 1488 439 m 1488 876 l 1866 876 l 1866 711 l 1320 711 l 1320 971 l 1321 971 q 1374 1084 1326 1035 q 1503 1137 1428 1137 l 1952 1137 l 1952 972 l 1542 972 q 1504 956 1520 972 q 1488 918 1488 940 l 1488 876 m 1027 385 q 1153 0 1082 213 l 978 0 l 906 220 l 513 220 l 441 0 l 266 0 l 392 385 l 1027 385 z "},"":{"ha":1426,"x_min":34,"x_max":1392,"o":"m 1006 1291 q 1192 1157 1107 1242 q 1392 678 1392 958 q 1192 199 1392 397 q 712 0 993 0 q 568 14 637 0 l 543 -60 l 366 -60 l 411 69 q 233 199 315 117 q 34 678 34 397 q 233 1157 34 958 q 712 1356 431 1356 q 849 1344 783 1356 l 873 1416 l 1048 1416 l 1006 1291 m 696 385 l 712 385 q 919 471 833 385 q 1005 680 1005 557 q 920 887 1005 800 q 879 921 899 906 l 696 385 m 933 1080 q 1035 1002 987 1050 q 1169 678 1169 867 q 1035 354 1169 488 q 712 220 901 220 q 640 225 675 220 l 623 172 q 712 165 666 165 q 1074 315 924 165 q 1225 680 1225 465 q 1074 1042 1225 891 q 951 1133 1017 1097 l 933 1080 m 722 972 l 712 972 q 505 886 591 972 q 419 680 419 800 q 506 472 419 557 q 538 442 521 456 l 722 972 m 776 1133 l 793 1185 q 712 1191 754 1191 q 350 1041 500 1191 q 199 680 199 891 q 350 316 199 465 q 465 228 404 262 l 483 281 q 389 354 433 311 q 255 678 255 488 q 389 1002 255 867 q 712 1137 524 1137 q 776 1133 745 1137 z "},"":{"ha":1400,"x_min":34,"x_max":1366,"o":"m 1104 1356 l 700 727 l 296 1356 l 492 1356 l 700 1034 l 907 1356 l 1104 1356 m 471 0 l 471 677 l 34 1356 l 231 1356 l 667 677 l 667 0 l 471 0 m 732 0 l 732 677 l 1169 1356 l 1366 1356 l 929 677 l 929 0 l 732 0 z "},"":{"ha":845,"x_min":102,"x_max":743,"o":"m 328 762 l 328 989 l 515 989 l 515 762 l 743 762 l 743 575 l 515 575 l 515 347 l 328 347 l 328 575 l 102 575 l 102 762 l 328 762 m 743 188 l 743 1 l 102 1 l 102 188 l 743 188 z "},"":{"ha":845,"x_min":102,"x_max":743,"o":"m 743 824 l 357 654 l 743 485 l 743 281 l 102 562 l 102 747 l 743 1028 l 743 824 m 743 187 l 743 0 l 102 0 l 102 187 l 743 187 z "},"":{"ha":845,"x_min":102,"x_max":743,"o":"m 102 1028 l 743 747 l 743 562 l 102 281 l 102 485 l 488 654 l 102 824 l 102 1028 m 743 187 l 743 0 l 102 0 l 102 187 l 743 187 z "},"":{"ha":1233,"x_min":34,"x_max":1199,"o":"m 960 1356 l 616 727 l 273 1356 l 440 1356 l 616 1034 l 793 1356 l 960 1356 m 644 389 l 1199 389 l 1199 224 l 812 224 l 812 0 l 644 0 l 644 389 m 589 0 l 422 0 l 422 224 l 34 224 l 34 389 l 589 389 l 589 0 m 589 444 l 34 444 l 34 609 l 422 609 l 422 677 l 51 1356 l 218 1356 l 589 677 l 589 444 m 644 677 l 1015 1356 l 1183 1356 l 812 677 l 812 609 l 1199 609 l 1199 444 l 644 444 l 644 677 z "},"":{"ha":1084,"x_min":34,"x_max":1050,"o":"m 666 507 l 666 1356 l 831 1356 l 831 507 q 746 303 831 388 q 541 218 661 218 q 337 303 422 218 q 252 507 252 388 l 252 1356 l 418 1356 l 418 507 q 454 420 418 456 q 541 384 490 384 q 629 420 593 384 q 666 507 666 456 m 198 -233 l 34 -233 l 34 1356 l 198 1356 l 198 -233 m 830 320 l 830 0 l 665 0 l 665 14 q 541 0 606 0 q 419 14 477 0 l 419 -233 l 254 -233 l 254 320 q 299 265 273 291 q 419 186 353 211 q 541 164 476 164 q 665 186 608 164 q 785 265 730 211 q 830 320 810 291 m 886 1356 l 1050 1356 l 1050 0 l 886 0 l 886 1356 z "},"":{"ha":650,"x_min":102,"x_max":548,"o":"m 548 1041 l 548 968 l 401 968 q 310 929 347 968 q 272 839 272 891 q 310 748 272 786 q 401 710 347 710 l 548 710 l 548 637 l 401 637 q 258 697 318 637 q 199 839 199 757 q 258 981 199 922 q 401 1041 318 1041 l 548 1041 m 414 1162 l 487 1162 l 487 1137 l 548 1137 l 548 1065 l 414 1065 l 414 1162 m 389 514 l 317 514 l 317 552 q 189 628 245 572 q 102 839 102 715 q 189 1050 102 963 q 317 1126 245 1106 l 317 1162 l 389 1162 l 389 1065 q 241 999 303 1061 q 175 839 175 932 q 241 680 175 745 q 389 614 303 617 l 389 514 m 414 614 l 548 614 l 548 541 l 487 541 l 487 514 l 414 514 l 414 614 z "},"":{"ha":1084,"x_min":34,"x_max":1050,"o":"m 838 678 l 587 384 l 1050 384 l 1050 220 l 274 220 q 260 225 266 220 q 254 241 254 232 q 260 258 254 251 l 621 678 l 260 1099 q 254 1115 254 1105 q 260 1131 254 1124 q 274 1137 266 1137 l 1050 1137 l 1050 972 l 587 972 l 838 678 m 548 678 l 221 297 q 199 243 199 274 q 222 188 199 210 q 277 165 244 165 l 1050 165 l 1050 0 l 277 0 q 104 71 175 0 q 34 243 34 141 q 75 377 34 319 l 332 678 l 75 979 q 34 1114 34 1038 q 104 1286 34 1215 q 277 1356 175 1356 l 1050 1356 l 1050 1191 l 277 1191 q 222 1168 244 1191 q 199 1114 199 1146 q 221 1059 199 1082 l 548 678 z "},"":{"ha":1084,"x_min":34,"x_max":1050,"o":"m 666 0 l 666 972 l 419 972 l 419 0 l 254 0 l 254 1137 l 831 1137 l 831 0 l 666 0 m 1050 1356 l 1050 0 l 886 0 l 886 1191 l 199 1191 l 199 0 l 34 0 l 34 1356 l 1050 1356 z "},"":{"ha":815,"x_min":102,"x_max":713,"o":"m 325 1145 q 378 1274 325 1220 q 507 1327 431 1327 l 526 1327 q 602 1356 558 1356 q 681 1324 648 1356 q 713 1245 713 1291 q 681 1166 713 1199 q 602 1134 648 1134 q 529 1161 559 1134 q 507 1147 517 1157 q 490 1109 490 1131 l 490 -22 q 437 -150 490 -96 q 309 -203 385 -203 l 289 -203 q 213 -233 257 -233 q 134 -200 167 -233 q 102 -121 102 -168 q 134 -43 102 -75 q 213 -10 167 -10 q 286 -37 256 -10 q 309 -23 298 -33 q 325 15 325 -7 l 325 1145 z "},"":{"ha":1015,"x_min":27,"x_max":987,"o":"m 547 1243 q 509 1257 531 1257 q 470 1243 486 1257 q 427 1161 455 1230 l 145 543 l 27 543 l 353 1257 q 393 1313 365 1288 q 508 1356 440 1356 q 623 1313 575 1356 q 662 1257 650 1288 l 987 543 l 433 543 l 433 642 l 825 642 l 589 1161 q 547 1243 558 1233 m 527 1211 l 770 674 l 433 674 l 433 774 l 608 774 l 508 994 l 302 543 l 184 543 l 488 1211 q 494 1221 490 1217 q 507 1225 500 1225 q 520 1221 515 1225 q 527 1211 525 1217 m 216 435 l 799 435 l 799 270 l 216 270 l 216 435 z "},"":{"ha":950,"x_min":27,"x_max":923,"o":"m 475 674 q 262 755 351 674 q 173 949 173 836 q 262 1144 173 1063 q 475 1225 351 1225 q 688 1144 599 1225 q 777 949 777 1063 q 688 755 777 836 q 475 674 599 674 m 475 1126 q 338 1074 395 1126 q 281 950 281 1023 q 338 825 281 877 q 475 774 395 774 q 611 825 554 774 q 668 950 668 877 q 611 1074 668 1023 q 475 1126 554 1126 m 475 1257 q 236 1167 335 1257 q 136 950 136 1077 q 236 732 136 822 q 475 642 335 642 q 714 732 614 642 q 813 950 813 822 q 714 1167 813 1077 q 475 1257 614 1257 m 475 543 q 158 662 290 543 q 27 949 27 781 q 158 1237 27 1117 q 475 1356 290 1356 q 791 1237 660 1356 q 923 949 923 1117 q 791 662 923 781 q 475 543 660 543 m 187 435 l 770 435 l 770 270 l 187 270 l 187 435 z "},"":{"ha":1592,"x_min":34,"x_max":1558,"o":"m 796 1356 q 1276 1158 1077 1356 q 1474 680 1474 959 q 1417 400 1474 528 l 1419 401 q 1411 385 1415 393 l 1558 385 l 1558 220 l 1028 220 q 1158 316 1097 255 q 1308 680 1308 465 q 1158 1041 1308 891 q 796 1191 1008 1191 q 435 1041 585 1191 q 285 680 285 891 q 434 316 285 465 q 564 220 495 255 l 34 220 l 34 385 l 182 385 q 174 401 178 393 l 175 400 q 118 680 118 528 q 317 1158 118 959 q 796 1356 515 1356 m 796 1137 q 1119 1002 985 1137 q 1253 680 1253 868 q 1119 354 1253 488 q 970 253 1052 286 l 970 165 l 1558 165 l 1558 0 l 859 0 l 859 391 q 1002 471 940 409 q 1088 680 1088 557 q 1002 886 1088 800 q 796 972 917 972 q 590 886 675 972 q 505 680 505 800 q 590 471 505 557 q 733 391 652 409 l 733 0 l 34 0 l 34 165 l 623 165 l 623 253 q 473 354 541 286 q 339 680 339 488 q 473 1002 339 868 q 796 1137 608 1137 z "},"":{"ha":2064,"x_min":34,"x_max":2030,"o":"m 791 1115 l 1160 220 l 648 220 l 648 385 l 914 385 l 762 751 l 450 0 l 271 0 l 732 1114 q 742 1130 735 1123 q 761 1138 750 1138 q 781 1130 773 1138 q 791 1115 788 1123 m 1485 11 l 1489 0 l 650 0 l 650 165 l 1242 165 l 884 1031 q 822 1168 838 1150 q 764 1191 798 1191 q 705 1168 728 1191 q 639 1031 682 1145 l 213 0 l 34 0 l 528 1191 q 587 1284 545 1242 q 762 1356 659 1356 q 936 1284 864 1356 q 996 1191 978 1242 l 1179 749 l 1179 971 q 1297 1238 1185 1126 q 1584 1356 1416 1356 l 2030 1356 l 2030 1191 l 1584 1191 q 1415 1120 1485 1191 q 1344 951 1344 1050 l 1344 406 q 1415 236 1344 307 q 1584 165 1485 165 l 2030 165 l 2030 0 l 1584 0 q 1485 11 1533 0 m 1567 439 q 1583 401 1567 418 q 1621 385 1599 385 l 2030 385 l 2030 220 l 1581 220 q 1453 273 1507 220 q 1400 385 1405 321 l 1398 385 l 1398 646 l 1945 646 l 1945 480 l 1567 480 l 1567 439 m 1567 876 l 1945 876 l 1945 711 l 1398 711 l 1398 971 l 1400 971 q 1453 1084 1405 1035 q 1581 1137 1507 1137 l 2030 1137 l 2030 972 l 1621 972 q 1583 956 1599 972 q 1567 918 1567 940 l 1567 876 z "},"":{"ha":1426,"x_min":34,"x_max":1392,"o":"m 1006 1291 q 1192 1157 1107 1242 q 1392 678 1392 958 q 1192 199 1392 397 q 712 0 993 0 q 568 14 637 0 l 543 -60 l 366 -60 l 411 69 q 233 199 315 117 q 34 678 34 397 q 233 1157 34 958 q 712 1356 431 1356 q 849 1344 783 1356 l 873 1416 l 1048 1416 l 1006 1291 m 696 385 l 712 385 q 919 471 833 385 q 1005 680 1005 557 q 920 887 1005 800 q 879 921 899 906 l 696 385 m 933 1080 q 1035 1002 987 1050 q 1169 678 1169 867 q 1035 354 1169 488 q 712 220 901 220 q 640 225 675 220 l 623 172 q 712 165 666 165 q 1074 315 924 165 q 1225 680 1225 465 q 1074 1042 1225 891 q 951 1133 1017 1097 l 933 1080 m 722 972 l 712 972 q 505 886 591 972 q 419 680 419 800 q 506 472 419 557 q 538 442 521 456 l 722 972 m 776 1133 l 793 1185 q 712 1191 754 1191 q 350 1041 500 1191 q 199 680 199 891 q 350 316 199 465 q 465 228 404 262 l 483 281 q 389 354 433 311 q 255 678 255 488 q 389 1002 255 867 q 712 1137 524 1137 q 776 1133 745 1137 z "},"":{"ha":1206,"x_min":102,"x_max":1104,"o":"m 959 146 q 604 0 811 0 q 248 147 395 0 q 102 502 102 294 q 248 857 102 711 q 411 967 321 930 l 411 991 l 576 991 l 576 838 l 571 838 q 365 741 452 827 q 266 502 266 642 q 365 264 266 362 q 604 165 464 165 q 842 263 743 165 q 940 475 930 353 l 1104 454 q 959 146 1089 278 m 411 1058 l 411 1356 l 576 1356 l 576 1058 l 411 1058 m 631 1058 l 631 1356 l 796 1356 l 796 1058 l 631 1058 m 803 302 q 604 220 720 220 q 403 302 486 220 q 320 502 320 385 q 403 703 320 620 q 604 785 486 785 l 631 785 l 631 991 l 796 991 l 796 620 l 604 620 q 520 585 555 620 q 486 502 486 551 q 520 418 486 453 q 604 384 555 384 q 688 418 652 384 q 722 500 722 453 l 886 481 q 803 302 879 377 z "},"":{"ha":589,"x_min":102,"x_max":487,"o":"m 102 1058 l 102 1356 l 267 1356 l 267 1058 l 102 1058 m 321 1058 l 321 1356 l 487 1356 l 487 1058 l 321 1058 m 102 0 l 102 1004 l 267 1004 l 267 0 l 102 0 m 321 0 l 321 1004 l 487 1004 l 487 0 l 321 0 z "},"":{"ha":834,"x_min":102,"x_max":732,"o":"m 567 564 l 102 564 l 102 730 l 731 730 l 731 728 l 732 728 l 732 356 l 567 356 l 567 564 z "},"":{"ha":1168,"x_min":34,"x_max":1134,"o":"m 557 692 l 557 0 l 392 0 l 392 528 q 153 645 254 543 q 34 930 34 764 l 34 1356 l 199 1356 l 199 930 q 269 762 199 831 q 438 692 339 692 l 557 692 m 730 692 q 899 762 829 692 q 968 930 968 831 l 968 1356 l 1134 1356 l 1134 930 q 1015 645 1134 764 q 777 529 913 543 l 777 0 l 612 0 l 612 692 l 730 692 m 438 750 q 311 803 363 750 q 258 930 258 856 l 258 1356 l 422 1356 l 422 970 q 439 931 422 948 q 477 914 456 914 l 690 914 q 729 931 712 914 q 746 970 746 948 l 746 1356 l 910 1356 l 910 930 q 857 803 910 856 q 730 750 804 750 l 438 750 z "},"":{"ha":978,"x_min":34,"x_max":944,"o":"m 492 688 l 113 688 l 113 853 l 363 853 l 406 1020 q 519 1233 429 1142 q 818 1356 643 1356 l 944 1356 l 944 1191 l 818 1191 q 637 1116 712 1191 q 578 1027 595 1074 l 492 688 m 621 972 q 677 1077 632 1032 q 819 1137 736 1137 l 944 1137 l 944 971 l 848 971 q 792 948 815 971 q 780 930 784 940 l 760 853 l 865 853 l 865 688 l 549 688 l 621 972 m 536 633 l 865 633 l 865 468 l 664 468 l 572 104 q 458 -109 549 -18 q 160 -233 335 -233 l 34 -233 l 34 -67 l 160 -67 q 340 7 266 -67 q 400 97 382 50 l 536 633 m 357 151 q 301 47 346 92 q 159 -13 241 -13 l 34 -13 l 34 153 l 130 153 q 186 176 163 153 q 198 193 194 184 l 267 468 l 113 468 l 113 633 l 479 633 l 357 151 z "},"":{"ha":940,"x_min":102,"x_max":838,"o":"m 600 1292 q 677 1314 650 1292 q 747 1373 704 1335 l 838 1267 q 779 1182 810 1217 q 600 1103 705 1103 q 453 1158 536 1103 q 339 1214 370 1214 q 262 1192 290 1214 q 192 1133 235 1171 l 102 1238 q 161 1324 128 1289 q 339 1403 235 1403 q 486 1348 404 1403 q 600 1292 569 1292 m 600 984 q 677 1006 650 984 q 747 1065 704 1027 l 838 960 q 779 874 810 909 q 600 795 705 795 q 453 850 536 795 q 339 906 370 906 q 262 884 290 906 q 192 825 235 863 l 102 930 q 161 1016 128 981 q 339 1095 235 1095 q 486 1040 404 1095 q 600 984 569 984 z "},"":{"ha":1525,"x_min":34,"x_max":1491,"o":"m 1243 165 l 886 1031 q 819 1168 842 1145 q 762 1191 797 1190 q 705 1168 728 1190 q 639 1031 682 1145 l 281 165 l 1243 165 m 34 0 l 528 1191 q 587 1284 545 1242 q 762 1356 659 1356 q 937 1284 865 1356 q 997 1191 979 1242 l 1491 0 l 34 0 m 732 1114 q 742 1130 735 1123 q 762 1138 750 1138 q 783 1130 774 1138 q 792 1114 789 1123 l 1162 220 l 362 220 l 732 1114 m 914 385 l 762 751 l 610 385 l 914 385 z "},"":{"ha":1139,"x_min":102,"x_max":1038,"o":"m 361 60 l 102 431 l 374 821 l 604 821 l 330 431 l 590 60 l 361 60 m 795 60 l 536 431 l 808 821 l 1038 821 l 764 431 l 1024 60 l 795 60 z "},"":{"ha":1139,"x_min":102,"x_max":1038,"o":"m 549 60 l 810 431 l 536 821 l 765 821 l 1038 431 l 779 60 l 549 60 m 115 60 l 376 431 l 102 821 l 331 821 l 604 431 l 345 60 l 115 60 z "},"":{"ha":1549,"x_min":102,"x_max":1447,"o":"m 102 385 l 521 385 l 521 220 l 102 220 l 102 302 l 102 385 m 102 165 l 521 165 l 521 0 l 102 0 l 102 165 m 565 385 l 984 385 l 984 220 l 565 220 l 565 302 l 565 385 m 565 165 l 984 165 l 984 0 l 565 0 l 565 165 m 1028 385 l 1447 385 l 1447 220 l 1028 220 l 1028 302 l 1028 385 m 1028 165 l 1447 165 l 1447 0 l 1028 0 l 1028 165 z "},"":{"ha":1417,"x_min":34,"x_max":1383,"o":"m 780 605 l 709 818 l 639 605 l 780 605 m 1015 1124 l 1383 0 l 1210 0 l 853 1082 q 815 1146 842 1118 q 709 1190 772 1190 q 606 1146 648 1190 q 567 1081 578 1118 l 209 0 l 34 0 l 407 1128 q 487 1264 427 1204 q 709 1356 579 1356 q 933 1264 841 1356 q 1015 1124 994 1203 m 411 439 l 616 1063 q 643 1111 623 1090 q 709 1138 670 1138 q 779 1111 750 1138 q 806 1062 799 1089 q 1008 439 854 906 l 411 439 m 1027 385 l 1153 0 l 978 0 l 906 220 l 513 220 l 441 0 l 266 0 l 392 385 l 1027 385 m 793 1407 l 606 1407 l 425 1651 l 713 1651 l 793 1407 z "},"":{"ha":1417,"x_min":34,"x_max":1383,"o":"m 780 605 l 709 818 l 639 605 l 780 605 m 1015 1124 l 1383 0 l 1210 0 l 853 1082 q 815 1146 842 1118 q 709 1190 772 1190 q 606 1146 648 1190 q 567 1081 578 1118 l 209 0 l 34 0 l 407 1128 q 487 1264 427 1204 q 709 1356 579 1356 q 933 1264 841 1356 q 1015 1124 994 1203 m 411 439 l 616 1063 q 643 1111 623 1090 q 709 1138 670 1138 q 779 1111 750 1138 q 806 1062 799 1089 q 1008 439 854 906 l 411 439 m 1027 385 l 1153 0 l 978 0 l 906 220 l 513 220 l 441 0 l 266 0 l 392 385 l 1027 385 m 798 1525 q 856 1540 836 1525 q 910 1582 877 1555 l 979 1508 q 934 1447 958 1472 q 798 1391 878 1391 q 686 1430 749 1391 q 600 1470 623 1470 q 542 1454 562 1470 q 488 1412 521 1439 l 419 1487 q 464 1547 439 1522 q 600 1603 520 1603 q 711 1564 648 1603 q 798 1525 774 1525 z "},"":{"ha":1426,"x_min":34,"x_max":1392,"o":"m 712 220 q 389 354 524 220 q 255 678 255 488 q 389 1002 255 867 q 712 1137 524 1137 q 1035 1002 901 1137 q 1169 678 1169 867 q 1035 354 1169 488 q 712 220 901 220 m 712 972 q 505 886 591 972 q 419 680 419 800 q 505 471 419 557 q 712 385 591 385 q 919 471 833 385 q 1005 680 1005 557 q 919 886 1005 800 q 712 972 833 972 m 712 1191 q 350 1041 500 1191 q 199 680 199 891 q 350 315 199 465 q 712 165 500 165 q 1074 315 924 165 q 1225 680 1225 465 q 1074 1041 1225 891 q 712 1191 924 1191 m 712 0 q 233 199 431 0 q 34 678 34 397 q 233 1157 34 958 q 712 1356 431 1356 q 1192 1157 993 1356 q 1392 678 1392 958 q 1192 199 1392 397 q 712 0 993 0 m 798 1525 q 856 1540 836 1525 q 910 1582 877 1555 l 979 1508 q 934 1447 958 1472 q 798 1391 878 1391 q 686 1430 749 1391 q 600 1470 623 1470 q 542 1454 562 1470 q 488 1412 521 1439 l 419 1487 q 464 1547 439 1522 q 600 1603 520 1603 q 711 1564 648 1603 q 798 1525 774 1525 z "},"":{"ha":1891,"x_min":34,"x_max":1857,"o":"m 712 972 q 505 886 591 972 q 419 680 419 800 q 505 471 419 557 q 712 385 591 385 q 919 471 833 385 q 1005 680 1005 557 q 919 886 1005 800 q 712 972 833 972 m 712 220 q 389 354 524 220 q 255 678 255 488 q 389 1002 255 867 q 712 1137 524 1137 q 1035 1002 901 1137 q 1169 678 1169 867 q 1035 354 1169 488 q 712 220 901 220 m 1408 220 q 1279 273 1333 220 q 1226 385 1232 321 l 1225 385 l 1225 646 l 1771 646 l 1771 480 l 1393 480 l 1393 439 q 1409 401 1393 418 q 1447 385 1426 385 l 1857 385 l 1857 220 l 1408 220 m 1225 711 l 1225 971 l 1226 971 q 1279 1084 1232 1035 q 1408 1137 1333 1137 l 1857 1137 l 1857 972 l 1447 972 q 1409 956 1426 972 q 1393 918 1393 940 l 1393 876 l 1771 876 l 1771 711 l 1225 711 m 1171 911 q 1074 1042 1134 982 q 712 1191 924 1191 q 350 1041 500 1191 q 199 680 199 891 q 350 315 199 465 q 712 165 500 165 q 1074 316 924 165 q 1171 446 1134 376 l 1171 406 q 1241 236 1171 307 q 1411 165 1312 165 l 1857 165 l 1857 0 l 1411 0 q 1123 118 1242 0 q 1112 129 1118 123 q 712 0 939 0 q 233 199 431 0 q 34 678 34 397 q 233 1157 34 958 q 712 1356 431 1356 q 1112 1226 939 1356 q 1123 1238 1118 1233 q 1411 1356 1242 1356 l 1857 1356 l 1857 1191 l 1411 1191 q 1241 1120 1312 1191 q 1233 1112 1237 1116 q 1171 951 1171 1044 l 1171 911 z "},"":{"ha":1891,"x_min":34,"x_max":1857,"o":"m 712 972 q 505 886 591 972 q 419 680 419 800 q 505 471 419 557 q 712 385 591 385 q 919 471 833 385 q 1005 680 1005 557 q 919 886 1005 800 q 712 972 833 972 m 712 220 q 389 354 524 220 q 255 678 255 488 q 389 1002 255 867 q 712 1137 524 1137 q 1035 1002 901 1137 q 1169 678 1169 867 q 1035 354 1169 488 q 712 220 901 220 m 1408 220 q 1279 273 1333 220 q 1226 385 1232 321 l 1225 385 l 1225 646 l 1771 646 l 1771 480 l 1393 480 l 1393 439 q 1409 401 1393 418 q 1447 385 1426 385 l 1857 385 l 1857 220 l 1408 220 m 1225 711 l 1225 971 l 1226 971 q 1279 1084 1232 1035 q 1408 1137 1333 1137 l 1857 1137 l 1857 972 l 1447 972 q 1409 956 1426 972 q 1393 918 1393 940 l 1393 876 l 1771 876 l 1771 711 l 1225 711 m 1171 911 q 1074 1042 1134 982 q 712 1191 924 1191 q 350 1041 500 1191 q 199 680 199 891 q 350 315 199 465 q 712 165 500 165 q 1074 316 924 165 q 1171 446 1134 376 l 1171 406 q 1241 236 1171 307 q 1411 165 1312 165 l 1857 165 l 1857 0 l 1411 0 q 1123 118 1242 0 q 1112 129 1118 123 q 712 0 939 0 q 233 199 431 0 q 34 678 34 397 q 233 1157 34 958 q 712 1356 431 1356 q 1112 1226 939 1356 q 1123 1238 1118 1233 q 1411 1356 1242 1356 l 1857 1356 l 1857 1191 l 1411 1191 q 1241 1120 1312 1191 q 1233 1112 1237 1116 q 1171 951 1171 1044 l 1171 911 z "},"":{"ha":623,"x_min":102,"x_max":521,"o":"m 102 730 l 521 730 l 521 564 l 102 564 l 102 730 z "},"":{"ha":1369,"x_min":102,"x_max":1267,"o":"m 102 730 l 1267 730 l 1267 564 l 102 564 l 102 647 l 102 730 z "},"":{"ha":1301,"x_min":102,"x_max":1200,"o":"m 865 648 l 1118 648 l 1118 483 l 699 483 l 699 922 q 827 1229 699 1101 q 1135 1356 954 1356 l 1200 1356 l 1200 1191 l 1135 1191 q 944 1112 1023 1191 q 865 922 865 1034 l 865 648 m 1084 868 l 1118 868 l 1118 703 l 919 703 l 919 922 q 981 1073 918 1009 q 1135 1137 1045 1135 l 1200 1137 l 1200 971 l 1135 971 q 1098 956 1113 971 q 1084 922 1083 941 l 1084 868 m 267 648 l 521 648 l 521 483 l 102 483 l 102 922 q 229 1229 102 1101 q 537 1356 357 1356 l 602 1356 l 602 1191 l 537 1191 q 347 1112 426 1191 q 267 922 267 1034 l 267 648 m 487 868 l 521 868 l 521 703 l 321 703 l 321 922 q 384 1073 320 1009 q 537 1137 448 1135 l 602 1137 l 602 971 l 537 971 q 500 956 515 971 q 487 922 486 941 l 487 868 z "},"":{"ha":1301,"x_min":102,"x_max":1200,"o":"m 437 1191 l 183 1191 l 183 1356 l 602 1356 l 602 917 q 475 610 602 738 q 167 483 347 483 l 102 483 l 102 648 l 167 648 q 357 727 278 648 q 437 917 437 806 l 437 1191 m 217 971 l 183 971 l 183 1137 l 382 1137 l 382 917 q 320 766 384 830 q 167 703 256 704 l 102 703 l 102 868 l 167 868 q 203 883 189 868 q 217 917 218 898 l 217 971 m 1034 1191 l 781 1191 l 781 1356 l 1200 1356 l 1200 917 q 1072 610 1200 738 q 764 483 945 483 l 699 483 l 699 648 l 764 648 q 955 727 876 648 q 1034 917 1034 806 l 1034 1191 m 814 971 l 781 971 l 781 1137 l 980 1137 l 980 917 q 918 766 981 830 q 764 703 854 704 l 699 703 l 699 868 l 764 868 q 801 883 786 868 q 814 917 816 898 l 814 971 z "},"":{"ha":704,"x_min":102,"x_max":602,"o":"m 267 648 l 521 648 l 521 483 l 102 483 l 102 922 q 229 1229 102 1101 q 537 1356 357 1356 l 602 1356 l 602 1191 l 537 1191 q 347 1112 426 1191 q 267 922 267 1034 l 267 648 m 487 868 l 521 868 l 521 703 l 321 703 l 321 922 q 384 1073 320 1009 q 537 1137 448 1135 l 602 1137 l 602 971 l 537 971 q 500 956 515 971 q 487 922 486 941 l 487 868 z "},"":{"ha":704,"x_min":102,"x_max":602,"o":"m 437 1191 l 183 1191 l 183 1356 l 602 1356 l 602 917 q 475 610 602 738 q 167 483 347 483 l 102 483 l 102 648 l 167 648 q 357 727 278 648 q 437 917 437 806 l 437 1191 m 217 971 l 183 971 l 183 1137 l 382 1137 l 382 917 q 320 766 384 830 q 167 703 256 704 l 102 703 l 102 868 l 167 868 q 203 883 189 868 q 217 917 218 898 l 217 971 z "},"":{"ha":845,"x_min":102,"x_max":743,"o":"m 743 764 l 743 576 l 102 576 l 102 764 l 743 764 m 431 936 q 351 968 384 936 q 319 1047 319 1001 q 351 1126 319 1093 q 431 1158 384 1158 q 509 1126 477 1158 q 542 1047 542 1093 q 509 968 542 1001 q 431 936 477 936 m 431 792 q 250 867 325 792 q 176 1047 176 941 q 250 1227 176 1153 q 431 1302 325 1302 q 610 1227 536 1302 q 685 1047 685 1153 q 610 867 685 941 q 431 792 536 792 m 431 890 q 541 936 495 890 q 587 1047 587 982 q 541 1158 587 1112 q 431 1204 495 1204 q 320 1158 366 1204 q 274 1047 274 1112 q 320 936 274 982 q 431 890 366 890 m 431 182 q 351 214 384 182 q 319 293 319 247 q 351 372 319 339 q 431 404 384 404 q 509 372 477 404 q 542 293 542 339 q 509 214 542 247 q 431 182 477 182 m 431 38 q 250 113 325 38 q 176 293 176 187 q 250 473 176 399 q 431 548 325 548 q 610 473 536 548 q 685 293 685 399 q 610 113 685 187 q 431 38 536 38 m 431 136 q 541 182 495 136 q 587 293 587 228 q 541 404 587 358 q 431 450 495 450 q 320 404 366 450 q 274 293 274 358 q 320 182 274 228 q 431 136 366 136 z "},"":{"ha":951,"x_min":102,"x_max":849,"o":"m 646 669 l 645 669 l 475 1055 l 306 669 l 307 669 l 476 282 l 646 669 m 102 669 l 102 669 l 382 1310 l 568 1310 l 849 669 l 569 27 l 383 27 l 102 669 m 476 443 l 377 669 l 376 669 l 475 895 l 574 669 l 575 669 l 476 443 z "},"":{"ha":1168,"x_min":34,"x_max":1134,"o":"m 968 404 l 968 1356 l 1134 1356 l 1134 404 q 1015 119 1134 237 q 730 0 897 0 l 34 0 l 34 165 l 730 165 q 899 235 829 165 q 968 404 968 305 m 910 692 l 910 400 q 857 273 910 326 q 730 220 804 220 l 34 220 l 34 385 l 690 385 q 729 402 712 385 q 746 441 746 419 l 746 526 l 438 526 q 153 645 271 526 q 34 930 34 764 l 34 1356 l 199 1356 l 199 930 q 269 762 199 831 q 438 692 339 692 l 910 692 m 438 750 q 311 803 363 750 q 258 930 258 856 l 258 1356 l 422 1356 l 422 970 q 439 931 422 948 q 477 914 456 914 l 746 914 l 746 1356 l 910 1356 l 910 750 l 438 750 m 527 1709 l 527 1465 l 283 1465 l 283 1709 l 527 1709 m 885 1709 l 885 1465 l 641 1465 l 641 1709 l 885 1709 z "},"":{"ha":1400,"x_min":34,"x_max":1366,"o":"m 1104 1356 l 700 727 l 296 1356 l 492 1356 l 700 1034 l 907 1356 l 1104 1356 m 37 0 l 471 677 l 34 1356 l 231 1356 l 667 677 l 233 0 l 37 0 m 297 0 l 1169 1356 l 1366 1356 l 494 0 l 297 0 m 643 1709 l 643 1465 l 399 1465 l 399 1709 l 643 1709 m 1001 1709 l 1001 1465 l 757 1465 l 757 1709 l 1001 1709 z "},"":{"ha":846,"x_min":102,"x_max":745,"o":"m 102 0 l 570 1356 l 745 1356 l 277 0 l 102 0 z "},"":{"ha":1324,"x_min":122,"x_max":1290,"o":"m 635 709 q 633 678 633 694 q 635 646 633 662 l 989 646 l 968 480 l 699 480 q 707 471 703 475 q 883 385 780 385 q 1059 471 986 385 l 1158 354 q 883 220 1044 220 q 608 354 722 220 q 529 480 557 412 l 479 480 q 575 316 510 389 q 883 165 703 165 q 1191 316 1063 165 l 1290 199 q 883 0 1120 0 q 476 199 644 0 q 330 480 369 323 l 122 480 l 142 646 l 307 646 l 307 709 l 122 709 l 142 875 l 330 875 q 476 1158 369 1032 q 883 1356 644 1356 q 1290 1158 1120 1356 l 1191 1042 q 883 1191 1063 1191 q 575 1042 703 1191 q 477 875 510 966 l 529 875 q 608 1002 557 944 q 883 1137 722 1137 q 1158 1002 1044 1137 l 1059 886 q 883 971 986 971 q 707 886 780 971 q 697 875 703 880 l 989 875 l 968 709 l 635 709 m 494 646 q 492 678 492 662 q 494 709 492 694 l 448 709 q 446 678 446 694 q 448 646 446 662 l 494 646 z "},"":{"ha":705,"x_min":102,"x_max":604,"o":"m 361 60 l 102 431 l 374 821 l 604 821 l 330 431 l 590 60 l 361 60 z "},"":{"ha":705,"x_min":102,"x_max":604,"o":"m 115 60 l 376 431 l 102 821 l 331 821 l 604 431 l 345 60 l 115 60 z "},"":{"ha":1372,"x_min":34,"x_max":1338,"o":"m 1338 1356 l 1338 0 l 1173 0 l 1173 1356 l 1338 1356 m 1118 1356 l 1118 0 l 953 0 l 953 1356 l 1118 1356 m 419 480 l 419 0 l 254 0 l 254 646 l 800 646 l 800 480 l 419 480 m 422 876 l 800 876 l 800 711 l 254 711 l 254 971 l 255 971 q 308 1084 260 1035 q 437 1137 362 1137 l 886 1137 l 886 972 l 476 972 q 438 956 454 972 q 422 918 422 940 l 422 876 m 199 0 l 34 0 l 34 971 q 152 1238 41 1126 q 439 1356 271 1356 l 886 1356 l 886 1191 l 439 1191 q 270 1120 340 1191 q 199 951 199 1050 l 199 0 z "},"":{"ha":1917,"x_min":34,"x_max":1883,"o":"m 419 480 l 419 0 l 254 0 l 254 646 l 800 646 l 800 480 l 419 480 m 422 876 l 800 876 l 800 711 l 254 711 l 254 971 l 255 971 q 308 1084 260 1035 q 437 1137 362 1137 l 886 1137 l 886 972 l 476 972 q 438 956 454 972 q 422 918 422 940 l 422 876 m 199 0 l 34 0 l 34 971 q 152 1238 41 1126 q 439 1356 271 1356 l 886 1356 l 886 1191 l 439 1191 q 270 1120 340 1191 q 199 951 199 1050 l 199 0 m 1165 1356 l 1329 1356 l 1329 441 q 1346 402 1329 419 q 1385 385 1363 385 l 1879 385 l 1879 220 l 1345 220 q 1218 273 1271 220 q 1165 400 1165 326 l 1165 1356 m 945 404 l 945 1356 l 1111 1356 l 1111 404 q 1181 235 1111 305 q 1350 165 1251 165 l 1883 165 l 1883 0 l 1350 0 q 1064 119 1183 0 q 945 404 945 237 z "},"":{"ha":1207,"x_min":102,"x_max":1105,"o":"m 1105 1185 l 1105 1021 l 631 1021 l 631 1356 l 796 1356 l 796 1185 l 1105 1185 m 576 0 l 412 0 l 412 171 l 102 171 l 102 335 l 576 335 l 576 0 m 796 171 l 796 0 l 631 0 l 631 335 l 1105 335 l 1105 171 l 796 171 m 412 803 l 102 803 l 102 967 l 576 967 l 576 389 l 102 389 l 102 553 l 412 553 l 412 803 m 631 967 l 1105 967 l 1105 803 l 796 803 l 796 553 l 1105 553 l 1105 389 l 631 389 l 631 967 m 576 1021 l 102 1021 l 102 1185 l 412 1185 l 412 1356 l 576 1356 l 576 1021 z "},"":{"ha":713,"x_min":102,"x_max":611,"o":"m 357 263 q 277 296 310 263 q 245 374 245 328 q 277 453 245 420 q 357 486 310 486 q 435 453 403 486 q 468 374 468 420 q 435 296 468 328 q 357 263 403 263 m 357 119 q 176 194 251 119 q 102 374 102 269 q 176 555 102 480 q 357 629 251 629 q 536 555 462 629 q 611 374 611 480 q 536 194 611 269 q 357 119 462 119 m 357 218 q 467 263 421 218 q 513 374 513 309 q 467 485 513 439 q 357 531 421 531 q 246 485 292 531 q 200 374 200 439 q 246 263 200 309 q 357 218 292 218 z "},"":{"ha":704,"x_min":102,"x_max":602,"o":"m 437 464 l 183 464 l 183 629 l 602 629 l 602 190 q 475 -117 602 11 q 167 -244 347 -244 l 102 -244 l 102 -79 l 167 -79 q 357 0 278 -79 q 437 190 437 79 l 437 464 m 217 244 l 183 244 l 183 410 l 382 410 l 382 190 q 320 39 384 103 q 167 -24 256 -23 l 102 -24 l 102 141 l 167 141 q 203 156 189 141 q 217 190 218 171 l 217 244 z "},"":{"ha":1301,"x_min":102,"x_max":1200,"o":"m 437 464 l 183 464 l 183 629 l 602 629 l 602 190 q 475 -117 602 11 q 167 -244 347 -244 l 102 -244 l 102 -79 l 167 -79 q 357 0 278 -79 q 437 190 437 79 l 437 464 m 217 244 l 183 244 l 183 410 l 382 410 l 382 190 q 320 39 384 103 q 167 -24 256 -23 l 102 -24 l 102 141 l 167 141 q 203 156 189 141 q 217 190 218 171 l 217 244 m 1034 464 l 781 464 l 781 629 l 1200 629 l 1200 190 q 1072 -117 1200 11 q 764 -244 945 -244 l 699 -244 l 699 -79 l 764 -79 q 955 0 876 -79 q 1034 190 1034 79 l 1034 464 m 814 244 l 781 244 l 781 410 l 980 410 l 980 190 q 918 39 981 103 q 764 -24 854 -23 l 699 -24 l 699 141 l 764 141 q 801 156 786 141 q 814 190 816 171 l 814 244 z "},"":{"ha":4042,"x_min":102,"x_max":3940,"o":"m 1042 0 l 1952 1356 l 2153 1356 l 1241 0 l 1042 0 m 776 0 l 1687 1356 l 1887 1356 l 977 0 l 776 0 m 1754 537 q 1911 916 1754 760 q 2291 1073 2068 1073 q 2670 916 2513 1073 q 2827 537 2827 760 q 2670 157 2827 315 q 2291 0 2513 0 q 1911 157 2068 0 q 1754 537 1754 315 m 2291 164 q 2553 273 2444 164 q 2662 537 2662 382 q 2553 800 2662 690 q 2291 909 2444 909 q 2027 800 2136 909 q 1918 537 1918 690 q 2027 273 1918 382 q 2291 164 2136 164 m 1990 537 q 2078 750 1990 662 q 2291 838 2166 838 q 2504 750 2416 838 q 2592 537 2592 662 q 2504 324 2592 412 q 2291 236 2416 236 q 2078 324 2166 236 q 1990 537 1990 412 m 2291 393 q 2393 435 2351 393 q 2435 537 2435 477 q 2393 639 2435 597 q 2291 681 2351 681 q 2189 639 2231 681 q 2147 537 2147 597 q 2189 435 2147 477 q 2291 393 2231 393 m 102 821 q 259 1200 102 1043 q 639 1356 416 1356 q 1018 1200 861 1356 q 1175 821 1175 1043 q 1018 441 1175 598 q 639 283 861 283 q 259 441 416 283 q 102 821 102 598 m 639 448 q 901 557 792 448 q 1010 821 1010 666 q 901 1083 1010 974 q 639 1192 792 1192 q 375 1083 484 1192 q 266 821 266 974 q 375 557 266 666 q 639 448 484 448 m 338 821 q 426 1034 338 945 q 639 1122 514 1122 q 852 1034 764 1122 q 940 821 940 945 q 852 608 940 696 q 639 519 764 519 q 426 608 514 519 q 338 821 338 696 m 639 677 q 741 719 699 677 q 783 821 783 761 q 741 922 783 880 q 639 964 699 964 q 537 922 579 964 q 495 821 495 880 q 537 719 495 761 q 639 677 579 677 m 2867 537 q 3025 916 2867 760 q 3404 1073 3182 1073 q 3784 916 3627 1073 q 3940 537 3940 760 q 3784 157 3940 315 q 3404 0 3627 0 q 3025 157 3182 0 q 2867 537 2867 315 m 3404 164 q 3667 273 3558 164 q 3776 537 3776 382 q 3667 800 3776 690 q 3404 909 3558 909 q 3141 800 3250 909 q 3031 537 3031 690 q 3141 273 3031 382 q 3404 164 3250 164 m 3103 537 q 3191 750 3103 662 q 3404 838 3280 838 q 3617 750 3529 838 q 3706 537 3706 662 q 3617 324 3706 412 q 3404 236 3529 236 q 3191 324 3280 236 q 3103 537 3103 412 m 3404 393 q 3506 435 3464 393 q 3548 537 3548 477 q 3506 639 3548 597 q 3404 681 3464 681 q 3303 639 3345 681 q 3261 537 3261 597 q 3303 435 3261 477 q 3404 393 3345 393 z "},"":{"ha":1417,"x_min":34,"x_max":1383,"o":"m 780 605 l 709 818 l 639 605 l 780 605 m 1015 1124 l 1383 0 l 1210 0 l 853 1082 q 815 1146 842 1118 q 709 1190 772 1190 q 606 1146 648 1190 q 567 1081 578 1118 l 209 0 l 34 0 l 407 1128 q 487 1264 427 1204 q 709 1356 579 1356 q 933 1264 841 1356 q 1015 1124 994 1203 m 411 439 l 616 1063 q 643 1111 623 1090 q 709 1138 670 1138 q 779 1111 750 1138 q 806 1062 799 1089 q 1008 439 854 906 l 411 439 m 1027 385 l 1153 0 l 978 0 l 906 220 l 513 220 l 441 0 l 266 0 l 392 385 l 1027 385 m 696 1524 l 614 1407 l 385 1407 l 556 1651 l 837 1651 l 1008 1407 l 779 1407 l 696 1524 z "},"":{"ha":920,"x_min":34,"x_max":886,"o":"m 422 876 l 800 876 l 800 711 l 254 711 l 254 971 l 255 971 q 308 1084 260 1035 q 437 1137 362 1137 l 886 1137 l 886 972 l 476 972 q 438 956 454 972 q 422 918 422 940 l 422 876 m 422 439 q 438 401 422 418 q 476 385 454 385 l 886 385 l 886 220 l 437 220 q 308 273 362 220 q 255 385 260 321 l 254 385 l 254 646 l 800 646 l 800 480 l 422 480 l 422 439 m 34 971 q 152 1238 41 1126 q 439 1356 271 1356 l 886 1356 l 886 1191 l 439 1191 q 270 1120 340 1191 q 199 951 199 1050 l 199 406 q 270 236 199 307 q 439 165 340 165 l 886 165 l 886 0 l 439 0 q 152 118 271 0 q 34 385 41 231 l 34 971 m 481 1524 l 400 1407 l 171 1407 l 342 1651 l 623 1651 l 793 1407 l 564 1407 l 481 1524 z "},"":{"ha":1417,"x_min":34,"x_max":1383,"o":"m 780 605 l 709 818 l 639 605 l 780 605 m 1015 1124 l 1383 0 l 1210 0 l 853 1082 q 815 1146 842 1118 q 709 1190 772 1190 q 606 1146 648 1190 q 567 1081 578 1118 l 209 0 l 34 0 l 407 1128 q 487 1264 427 1204 q 709 1356 579 1356 q 933 1264 841 1356 q 1015 1124 994 1203 m 411 439 l 616 1063 q 643 1111 623 1090 q 709 1138 670 1138 q 779 1111 750 1138 q 806 1062 799 1089 q 1008 439 854 906 l 411 439 m 1027 385 l 1153 0 l 978 0 l 906 220 l 513 220 l 441 0 l 266 0 l 392 385 l 1027 385 m 673 1651 l 962 1651 l 781 1407 l 593 1407 l 673 1651 z "},"":{"ha":920,"x_min":34,"x_max":886,"o":"m 422 876 l 800 876 l 800 711 l 254 711 l 254 971 l 255 971 q 308 1084 260 1035 q 437 1137 362 1137 l 886 1137 l 886 972 l 476 972 q 438 956 454 972 q 422 918 422 940 l 422 876 m 422 439 q 438 401 422 418 q 476 385 454 385 l 886 385 l 886 220 l 437 220 q 308 273 362 220 q 255 385 260 321 l 254 385 l 254 646 l 800 646 l 800 480 l 422 480 l 422 439 m 34 971 q 152 1238 41 1126 q 439 1356 271 1356 l 886 1356 l 886 1191 l 439 1191 q 270 1120 340 1191 q 199 951 199 1050 l 199 406 q 270 236 199 307 q 439 165 340 165 l 886 165 l 886 0 l 439 0 q 152 118 271 0 q 34 385 41 231 l 34 971 m 475 1651 l 475 1407 l 231 1407 l 231 1651 l 475 1651 m 833 1651 l 833 1407 l 589 1407 l 589 1651 l 833 1651 z "},"":{"ha":920,"x_min":34,"x_max":886,"o":"m 422 876 l 800 876 l 800 711 l 254 711 l 254 971 l 255 971 q 308 1084 260 1035 q 437 1137 362 1137 l 886 1137 l 886 972 l 476 972 q 438 956 454 972 q 422 918 422 940 l 422 876 m 422 439 q 438 401 422 418 q 476 385 454 385 l 886 385 l 886 220 l 437 220 q 308 273 362 220 q 255 385 260 321 l 254 385 l 254 646 l 800 646 l 800 480 l 422 480 l 422 439 m 34 971 q 152 1238 41 1126 q 439 1356 271 1356 l 886 1356 l 886 1191 l 439 1191 q 270 1120 340 1191 q 199 951 199 1050 l 199 406 q 270 236 199 307 q 439 165 340 165 l 886 165 l 886 0 l 439 0 q 152 118 271 0 q 34 385 41 231 l 34 971 m 600 1407 l 413 1407 l 231 1651 l 520 1651 l 600 1407 z "},"":{"ha":507,"x_min":34,"x_max":473,"o":"m 419 1356 l 419 0 l 254 0 l 254 1356 l 419 1356 m 199 1356 l 199 0 l 34 0 l 34 1356 l 199 1356 m 184 1651 l 473 1651 l 291 1407 l 104 1407 l 184 1651 z "},"":{"ha":690,"x_min":34,"x_max":656,"o":"m 538 1356 l 538 0 l 372 0 l 372 1356 l 538 1356 m 318 1356 l 318 0 l 153 0 l 153 1356 l 318 1356 m 345 1524 l 263 1407 l 34 1407 l 205 1651 l 486 1651 l 656 1407 l 427 1407 l 345 1524 z "},"":{"ha":670,"x_min":34,"x_max":636,"o":"m 528 1356 l 528 0 l 362 0 l 362 1356 l 528 1356 m 308 1356 l 308 0 l 142 0 l 142 1356 l 308 1356 m 278 1651 l 278 1407 l 34 1407 l 34 1651 l 278 1651 m 636 1651 l 636 1407 l 392 1407 l 392 1651 l 636 1651 z "},"":{"ha":507,"x_min":34,"x_max":473,"o":"m 473 1356 l 473 0 l 307 0 l 307 1356 l 473 1356 m 253 1356 l 253 0 l 87 0 l 87 1356 l 253 1356 m 403 1407 l 216 1407 l 34 1651 l 323 1651 l 403 1407 z "},"":{"ha":1426,"x_min":34,"x_max":1392,"o":"m 712 220 q 389 354 524 220 q 255 678 255 488 q 389 1002 255 867 q 712 1137 524 1137 q 1035 1002 901 1137 q 1169 678 1169 867 q 1035 354 1169 488 q 712 220 901 220 m 712 972 q 505 886 591 972 q 419 680 419 800 q 505 471 419 557 q 712 385 591 385 q 919 471 833 385 q 1005 680 1005 557 q 919 886 1005 800 q 712 972 833 972 m 712 1191 q 350 1041 500 1191 q 199 680 199 891 q 350 315 199 465 q 712 165 500 165 q 1074 315 924 165 q 1225 680 1225 465 q 1074 1041 1225 891 q 712 1191 924 1191 m 712 0 q 233 199 431 0 q 34 678 34 397 q 233 1157 34 958 q 712 1356 431 1356 q 1192 1157 993 1356 q 1392 678 1392 958 q 1192 199 1392 397 q 712 0 993 0 m 670 1651 l 959 1651 l 777 1407 l 590 1407 l 670 1651 z "},"":{"ha":1426,"x_min":34,"x_max":1392,"o":"m 712 220 q 389 354 524 220 q 255 678 255 488 q 389 1002 255 867 q 712 1137 524 1137 q 1035 1002 901 1137 q 1169 678 1169 867 q 1035 354 1169 488 q 712 220 901 220 m 712 972 q 505 886 591 972 q 419 680 419 800 q 505 471 419 557 q 712 385 591 385 q 919 471 833 385 q 1005 680 1005 557 q 919 886 1005 800 q 712 972 833 972 m 712 1191 q 350 1041 500 1191 q 199 680 199 891 q 350 315 199 465 q 712 165 500 165 q 1074 315 924 165 q 1225 680 1225 465 q 1074 1041 1225 891 q 712 1191 924 1191 m 712 0 q 233 199 431 0 q 34 678 34 397 q 233 1157 34 958 q 712 1356 431 1356 q 1192 1157 993 1356 q 1392 678 1392 958 q 1192 199 1392 397 q 712 0 993 0 m 712 1524 l 631 1407 l 401 1407 l 572 1651 l 853 1651 l 1024 1407 l 795 1407 l 712 1524 z "},"":{"ha":1426,"x_min":34,"x_max":1392,"o":"m 712 220 q 389 354 524 220 q 255 678 255 488 q 389 1002 255 867 q 712 1137 524 1137 q 1035 1002 901 1137 q 1169 678 1169 867 q 1035 354 1169 488 q 712 220 901 220 m 712 972 q 505 886 591 972 q 419 680 419 800 q 505 471 419 557 q 712 385 591 385 q 919 471 833 385 q 1005 680 1005 557 q 919 886 1005 800 q 712 972 833 972 m 712 1191 q 350 1041 500 1191 q 199 680 199 891 q 350 315 199 465 q 712 165 500 165 q 1074 315 924 165 q 1225 680 1225 465 q 1074 1041 1225 891 q 712 1191 924 1191 m 712 0 q 233 199 431 0 q 34 678 34 397 q 233 1157 34 958 q 712 1356 431 1356 q 1192 1157 993 1356 q 1392 678 1392 958 q 1192 199 1392 397 q 712 0 993 0 m 836 1407 l 648 1407 l 467 1651 l 755 1651 l 836 1407 z "},"":{"ha":1084,"x_min":34,"x_max":1050,"o":"m 666 507 l 666 1356 l 831 1356 l 831 507 q 746 303 831 388 q 541 218 661 218 q 337 303 422 218 q 252 507 252 388 l 252 1356 l 418 1356 l 418 507 q 454 420 418 456 q 541 384 490 384 q 629 420 593 384 q 666 507 666 456 m 886 507 l 886 1356 l 1050 1356 l 1050 507 q 901 149 1050 297 q 541 0 753 0 q 182 149 331 0 q 34 507 34 297 l 34 1356 l 198 1356 l 198 507 q 299 265 198 366 q 541 164 400 164 q 785 265 684 164 q 886 507 886 366 m 499 1651 l 788 1651 l 606 1407 l 419 1407 l 499 1651 z "},"":{"ha":1084,"x_min":34,"x_max":1050,"o":"m 666 507 l 666 1356 l 831 1356 l 831 507 q 746 303 831 388 q 541 218 661 218 q 337 303 422 218 q 252 507 252 388 l 252 1356 l 418 1356 l 418 507 q 454 420 418 456 q 541 384 490 384 q 629 420 593 384 q 666 507 666 456 m 886 507 l 886 1356 l 1050 1356 l 1050 507 q 901 149 1050 297 q 541 0 753 0 q 182 149 331 0 q 34 507 34 297 l 34 1356 l 198 1356 l 198 507 q 299 265 198 366 q 541 164 400 164 q 785 265 684 164 q 886 507 886 366 m 541 1524 l 460 1407 l 231 1407 l 401 1651 l 682 1651 l 853 1407 l 624 1407 l 541 1524 z "},"":{"ha":1084,"x_min":34,"x_max":1050,"o":"m 666 507 l 666 1356 l 831 1356 l 831 507 q 746 303 831 388 q 541 218 661 218 q 337 303 422 218 q 252 507 252 388 l 252 1356 l 418 1356 l 418 507 q 454 420 418 456 q 541 384 490 384 q 629 420 593 384 q 666 507 666 456 m 886 507 l 886 1356 l 1050 1356 l 1050 507 q 901 149 1050 297 q 541 0 753 0 q 182 149 331 0 q 34 507 34 297 l 34 1356 l 198 1356 l 198 507 q 299 265 198 366 q 541 164 400 164 q 785 265 684 164 q 886 507 886 366 m 665 1407 l 477 1407 l 296 1651 l 585 1651 l 665 1407 z "},"":{"ha":453,"x_min":34,"x_max":419,"o":"m 419 1356 l 419 0 l 254 0 l 254 1356 l 419 1356 m 199 1356 l 199 0 l 34 0 l 34 1356 l 199 1356 z "},"":{"ha":677,"x_min":27,"x_max":650,"o":"m 338 1166 l 256 1049 l 27 1049 l 198 1293 l 479 1293 l 650 1049 l 420 1049 l 338 1166 z "},"":{"ha":614,"x_min":27,"x_max":587,"o":"m 406 1183 q 464 1198 444 1183 q 518 1240 485 1213 l 587 1166 q 542 1105 566 1130 q 406 1049 486 1049 q 294 1088 357 1049 q 208 1128 231 1128 q 150 1113 170 1128 q 96 1070 129 1097 l 27 1145 q 72 1205 47 1181 q 208 1261 128 1261 q 319 1222 256 1261 q 406 1183 382 1183 z "},"":{"ha":568,"x_min":27,"x_max":541,"o":"m 27 1214 l 541 1214 l 541 1048 l 27 1048 l 27 1214 z "},"":{"ha":538,"x_min":27,"x_max":511,"o":"m 160 1291 q 192 1213 160 1246 q 270 1181 224 1181 q 347 1213 315 1181 q 378 1291 378 1246 l 511 1291 q 440 1120 511 1192 q 270 1049 370 1049 q 98 1120 170 1049 q 27 1291 27 1192 l 160 1291 z "},"":{"ha":233,"x_min":27,"x_max":206,"o":"m 117 1337 q 180 1311 154 1337 q 206 1247 206 1285 q 180 1184 206 1211 q 117 1157 154 1157 q 53 1184 79 1157 q 27 1247 27 1211 q 53 1311 27 1285 q 117 1337 79 1337 z "},"":{"ha":452,"x_min":27,"x_max":425,"o":"m 425 1247 q 366 1107 425 1166 q 227 1049 308 1049 q 85 1107 144 1049 q 27 1247 27 1166 q 85 1388 27 1330 q 227 1447 144 1447 q 366 1388 308 1447 q 425 1247 425 1330 m 227 1337 q 162 1311 189 1337 q 136 1247 136 1285 q 162 1184 136 1211 q 227 1157 189 1157 q 289 1184 263 1157 q 315 1247 315 1211 q 289 1311 315 1285 q 227 1337 263 1337 z "},"":{"ha":361,"x_min":27,"x_max":334,"o":"m 334 -92 q 289 -188 330 -149 q 180 -233 244 -233 l 27 -233 l 27 -92 l 84 -92 q 124 -75 107 -92 q 141 -35 141 -58 l 141 52 l 334 52 l 334 -92 z "},"":{"ha":632,"x_min":27,"x_max":605,"o":"m 107 1292 l 315 1292 l 133 1048 l 27 1048 l 107 1292 m 397 1292 l 605 1292 l 423 1048 l 317 1048 l 397 1292 z "},"":{"ha":463,"x_min":27,"x_max":435,"o":"m 200 72 q 164 -3 167 42 q 192 -83 161 -49 q 268 -119 222 -117 q 347 -91 313 -121 l 435 -190 q 261 -251 361 -256 q 94 -172 161 -245 q 33 4 27 -97 q 111 171 38 104 l 200 72 z "},"":{"ha":677,"x_min":27,"x_max":650,"o":"m 420 1293 l 650 1293 l 479 1049 l 198 1049 l 27 1293 l 256 1293 l 338 1177 l 420 1293 z "},"":{"ha":1278,"x_min":34,"x_max":1244,"o":"m 526 915 l 526 1356 l 690 1356 l 690 1020 l 900 1154 l 989 1015 l 690 823 l 690 441 q 707 402 690 419 q 746 385 724 385 l 1240 385 l 1240 220 l 707 220 q 579 273 632 220 q 526 400 526 326 l 526 718 l 472 683 l 472 404 q 542 235 472 305 q 711 165 612 165 l 1244 165 l 1244 0 l 711 0 q 425 119 544 0 q 307 404 307 237 l 307 577 l 123 460 l 34 600 l 307 774 l 307 1356 l 472 1356 l 472 880 l 526 915 z "},"":{"ha":1023,"x_min":34,"x_max":989,"o":"m 530 829 l 530 1356 l 696 1356 l 696 935 l 900 1066 l 989 926 l 696 739 l 696 0 l 530 0 l 530 632 l 476 597 l 476 0 l 311 0 l 311 492 l 123 372 l 34 511 l 311 688 l 311 1356 l 476 1356 l 476 795 l 530 829 z "},"":{"ha":1084,"x_min":34,"x_max":1050,"o":"m 614 0 l 34 0 l 34 165 l 614 165 q 805 245 726 165 q 884 435 884 324 q 805 625 884 547 q 614 704 726 704 l 469 704 q 316 768 380 704 q 252 921 252 831 q 316 1073 252 1009 q 469 1137 380 1135 l 1050 1137 l 1050 972 l 469 972 q 433 958 448 972 q 418 921 418 943 q 433 884 418 899 q 469 869 448 869 l 614 869 q 922 742 793 869 q 1050 435 1050 614 q 922 127 1050 254 q 614 0 793 0 m 614 385 q 651 400 636 385 q 666 437 666 415 q 651 472 666 457 q 614 487 636 487 l 469 487 q 161 614 289 487 q 34 922 34 741 q 161 1229 34 1101 q 469 1356 289 1356 l 1050 1356 l 1050 1191 l 469 1191 q 279 1112 358 1191 q 199 922 199 1034 q 279 732 199 811 q 469 652 358 652 l 614 651 q 768 588 704 651 q 831 437 831 525 q 768 283 831 347 q 614 220 704 220 l 34 220 l 34 385 l 614 385 m 624 1651 l 853 1651 l 682 1407 l 401 1407 l 231 1651 l 460 1651 l 541 1535 l 624 1651 z "},"":{"ha":1084,"x_min":34,"x_max":1050,"o":"m 614 0 l 34 0 l 34 165 l 614 165 q 805 245 726 165 q 884 435 884 324 q 805 625 884 547 q 614 704 726 704 l 469 704 q 316 768 380 704 q 252 921 252 831 q 316 1073 252 1009 q 469 1137 380 1135 l 1050 1137 l 1050 972 l 469 972 q 433 958 448 972 q 418 921 418 943 q 433 884 418 899 q 469 869 448 869 l 614 869 q 922 742 793 869 q 1050 435 1050 614 q 922 127 1050 254 q 614 0 793 0 m 614 385 q 651 400 636 385 q 666 437 666 415 q 651 472 666 457 q 614 487 636 487 l 469 487 q 161 614 289 487 q 34 922 34 741 q 161 1229 34 1101 q 469 1356 289 1356 l 1050 1356 l 1050 1191 l 469 1191 q 279 1112 358 1191 q 199 922 199 1034 q 279 732 199 811 q 469 652 358 652 l 614 651 q 768 588 704 651 q 831 437 831 525 q 768 283 831 347 q 614 220 704 220 l 34 220 l 34 385 l 614 385 m 624 1651 l 853 1651 l 682 1407 l 401 1407 l 231 1651 l 460 1651 l 541 1535 l 624 1651 z "},"":{"ha":1169,"x_min":34,"x_max":1135,"o":"m 909 1099 l 221 297 q 199 243 199 274 q 222 188 199 210 q 277 165 244 165 l 1135 165 l 1135 0 l 277 0 q 104 71 175 0 q 34 243 34 141 q 75 377 34 319 l 582 972 l 34 972 l 34 1137 l 895 1137 q 909 1131 903 1137 q 916 1115 916 1124 q 909 1099 916 1105 m 260 258 l 948 1059 q 970 1114 970 1082 q 947 1168 970 1146 q 892 1191 925 1191 l 34 1191 l 34 1356 l 892 1356 q 1065 1286 994 1356 q 1135 1114 1135 1215 q 1095 979 1135 1038 l 587 385 l 1135 385 l 1135 220 l 274 220 q 260 225 266 220 q 254 241 254 232 q 260 258 254 251 m 667 1651 l 896 1651 l 725 1407 l 444 1407 l 273 1651 l 503 1651 l 584 1535 l 667 1651 z "},"":{"ha":1169,"x_min":34,"x_max":1135,"o":"m 909 1099 l 221 297 q 199 243 199 274 q 222 188 199 210 q 277 165 244 165 l 1135 165 l 1135 0 l 277 0 q 104 71 175 0 q 34 243 34 141 q 75 377 34 319 l 582 972 l 34 972 l 34 1137 l 895 1137 q 909 1131 903 1137 q 916 1115 916 1124 q 909 1099 916 1105 m 260 258 l 948 1059 q 970 1114 970 1082 q 947 1168 970 1146 q 892 1191 925 1191 l 34 1191 l 34 1356 l 892 1356 q 1065 1286 994 1356 q 1135 1114 1135 1215 q 1095 979 1135 1038 l 587 385 l 1135 385 l 1135 220 l 274 220 q 260 225 266 220 q 254 241 254 232 q 260 258 254 251 m 667 1651 l 896 1651 l 725 1407 l 444 1407 l 273 1651 l 503 1651 l 584 1535 l 667 1651 z "},"":{"ha":369,"x_min":102,"x_max":267,"o":"m 267 1307 l 267 724 l 102 724 l 102 1307 l 267 1307 m 267 351 l 267 -232 l 102 -232 l 102 351 l 267 351 z "},"":{"ha":1338,"x_min":34,"x_max":1304,"o":"m 460 772 l 460 1137 l 626 1137 q 949 1002 814 1137 q 1083 678 1083 867 q 949 355 1083 490 q 625 220 814 220 l 460 220 l 460 585 l 406 585 l 406 165 l 626 165 q 988 315 838 165 q 1139 678 1139 465 q 988 1041 1139 891 q 626 1191 838 1191 l 406 1191 l 406 772 l 460 772 m 241 772 l 241 1356 l 626 1356 q 1105 1158 907 1356 q 1304 678 1304 959 q 1105 199 1304 397 q 626 0 907 0 l 241 0 l 241 585 l 34 585 l 34 772 l 241 772 m 626 585 l 626 385 q 832 471 747 385 q 918 678 918 557 q 832 886 918 800 q 626 972 747 972 l 626 772 l 774 772 l 774 585 l 626 585 z "},"":{"ha":1137,"x_min":34,"x_max":1103,"o":"m 617 398 q 673 461 659 418 q 668 545 688 505 q 605 601 648 587 q 520 595 562 616 q 464 532 479 576 q 470 448 450 489 q 533 392 490 407 q 617 398 576 378 m 322 374 q 308 586 271 477 q 447 744 345 694 q 657 758 549 795 q 817 618 766 722 q 830 409 867 517 q 690 250 793 300 q 480 236 589 199 q 322 374 372 273 m 646 1083 l 592 1074 l 738 779 q 675 808 709 796 q 423 791 545 852 q 257 602 301 731 q 273 351 213 472 q 463 184 334 229 q 715 201 592 140 q 880 390 836 261 q 864 642 924 519 l 646 1083 m 422 1044 l 179 1002 l 151 1164 l 346 1198 l 268 1356 l 452 1356 l 516 1227 l 570 1237 l 511 1356 l 696 1356 l 740 1267 l 987 1310 l 1016 1147 l 817 1112 l 1012 715 q 1037 338 1103 532 q 788 52 972 144 q 410 28 604 -38 q 125 277 216 94 q 100 655 34 462 q 350 940 166 849 q 454 979 401 965 l 422 1044 z "},"":{"ha":1400,"x_min":34,"x_max":1366,"o":"m 1104 1356 l 700 727 l 296 1356 l 492 1356 l 700 1034 l 907 1356 l 1104 1356 m 37 0 l 471 677 l 34 1356 l 231 1356 l 667 677 l 233 0 l 37 0 m 297 0 l 1169 1356 l 1366 1356 l 494 0 l 297 0 m 657 1651 l 946 1651 l 764 1407 l 577 1407 l 657 1651 z "},"":{"ha":1168,"x_min":34,"x_max":1134,"o":"m 968 404 l 968 1356 l 1134 1356 l 1134 404 q 1015 119 1134 237 q 730 0 897 0 l 34 0 l 34 165 l 730 165 q 899 235 829 165 q 968 404 968 305 m 910 692 l 910 400 q 857 273 910 326 q 730 220 804 220 l 34 220 l 34 385 l 690 385 q 729 402 712 385 q 746 441 746 419 l 746 526 l 438 526 q 153 645 271 526 q 34 930 34 764 l 34 1356 l 199 1356 l 199 930 q 269 762 199 831 q 438 692 339 692 l 910 692 m 438 750 q 311 803 363 750 q 258 930 258 856 l 258 1356 l 422 1356 l 422 970 q 439 931 422 948 q 477 914 456 914 l 746 914 l 746 1356 l 910 1356 l 910 750 l 438 750 m 541 1651 l 830 1651 l 648 1407 l 461 1407 l 541 1651 z "},"":{"ha":1084,"x_min":34,"x_max":1050,"o":"m 199 1356 l 199 0 l 34 0 l 34 678 l 34 1356 l 199 1356 m 419 731 l 419 629 l 614 629 q 651 644 636 629 q 666 680 666 659 q 651 716 666 701 q 614 731 636 731 l 419 731 m 614 410 q 805 488 726 410 q 884 678 884 567 q 805 869 884 789 q 614 948 726 948 l 254 948 l 254 1356 l 419 1356 l 419 1114 l 614 1114 q 922 987 795 1114 q 1050 678 1050 860 q 922 372 1050 499 q 614 244 795 244 l 419 244 l 419 0 l 254 0 l 254 410 l 614 410 m 254 464 l 254 897 l 614 897 q 768 833 704 897 q 831 680 831 769 q 768 528 831 591 q 614 464 704 465 l 254 464 z "},"":{"ha":1039,"x_min":34,"x_max":1005,"o":"m 254 850 l 519 850 q 707 773 629 850 q 785 585 785 696 q 707 397 785 475 q 519 319 629 319 l 254 319 l 254 850 m 419 487 l 519 487 q 589 516 560 487 q 618 586 618 545 q 589 656 618 627 q 519 686 560 686 l 419 686 l 419 487 m 254 1356 l 419 1356 l 419 1069 l 519 1070 q 863 928 722 1070 q 1005 585 1005 785 q 863 240 1005 382 q 519 98 722 98 l 419 98 l 419 -227 l 254 -227 l 254 266 l 519 266 q 745 359 651 266 q 838 587 838 453 q 745 812 838 720 q 519 905 651 905 l 254 905 l 254 1356 m 199 -227 l 34 -227 l 34 1356 l 199 1356 l 199 -227 z "},"":{"ha":845,"x_min":102,"x_max":743,"o":"m 743 751 l 743 564 l 102 564 l 102 751 l 743 751 z "},"":{"ha":789,"x_min":102,"x_max":688,"o":"m 262 648 l 102 808 l 234 940 l 394 780 l 555 941 l 688 809 l 526 648 l 688 486 l 555 354 l 394 515 l 234 355 l 102 488 l 262 648 z "},"":{"ha":416,"x_min":27,"x_max":389,"o":"m 388 1170 l 388 424 l 281 424 l 281 1080 l 27 1080 l 27 1170 l 388 1170 m 245 424 l 138 424 l 138 959 l 27 959 l 27 1050 l 245 1050 l 245 424 z "},"":{"ha":759,"x_min":27,"x_max":732,"o":"m 277 636 l 731 636 l 731 545 l 170 545 l 170 664 q 211 747 170 713 q 311 782 252 782 l 448 783 q 572 826 521 783 q 624 931 624 870 q 572 1036 624 992 q 448 1079 521 1079 l 71 1079 l 71 1170 l 448 1170 q 648 1100 565 1170 q 731 931 731 1030 q 648 761 731 831 q 448 692 565 692 l 311 692 q 287 683 297 692 q 277 664 277 675 l 277 636 m 134 515 l 731 515 l 731 424 l 27 424 l 27 663 q 110 832 27 762 q 310 902 193 902 l 448 902 q 472 910 462 902 q 482 930 482 918 q 472 951 482 942 q 448 959 462 959 l 71 959 l 71 1049 l 448 1049 q 548 1014 506 1048 q 589 930 589 979 q 548 846 589 881 q 448 811 506 811 l 310 811 q 186 768 238 811 q 134 663 134 724 l 134 515 z "},"":{"ha":688,"x_min":27,"x_max":661,"o":"m 239 902 l 380 902 q 404 910 394 902 q 414 930 414 918 q 404 951 414 942 q 380 959 394 959 l 27 959 l 27 1049 l 380 1049 q 480 1014 439 1048 q 521 930 521 979 q 480 846 521 881 q 380 811 439 811 l 239 811 l 239 902 m 239 783 l 378 783 q 477 748 436 783 q 519 663 519 713 q 477 580 519 615 q 378 545 436 545 l 27 545 l 27 636 l 378 636 q 401 644 392 636 q 411 663 411 652 q 401 683 411 675 q 378 692 392 692 l 239 692 l 239 783 m 534 863 q 553 932 553 895 q 502 1036 553 992 q 378 1079 450 1079 l 27 1079 l 27 1170 l 378 1170 q 578 1100 495 1170 q 661 932 661 1030 q 613 797 661 856 q 661 663 661 739 q 578 494 661 564 q 378 424 495 424 l 27 424 l 27 515 l 378 515 q 502 558 450 515 q 553 663 553 601 q 534 731 553 701 q 502 768 521 751 q 453 798 479 786 q 502 827 479 808 q 534 863 521 844 z "},"":{"ha":1591,"x_min":27,"x_max":1564,"o":"m 388 1170 l 388 424 l 281 424 l 281 1080 l 27 1080 l 27 1170 l 388 1170 m 245 424 l 138 424 l 138 959 l 27 959 l 27 1050 l 245 1050 l 245 424 m 368 0 l 836 1356 l 1010 1356 l 543 0 l 368 0 m 1109 212 l 1563 212 l 1563 121 l 1002 121 l 1002 240 q 1043 323 1002 289 q 1143 358 1085 358 l 1280 359 q 1404 402 1353 359 q 1456 507 1456 446 q 1404 612 1456 568 q 1280 655 1353 655 l 903 655 l 903 746 l 1280 746 q 1480 676 1398 746 q 1563 507 1563 606 q 1480 338 1563 407 q 1280 268 1398 268 l 1143 268 q 1119 260 1129 268 q 1109 240 1109 251 l 1109 212 m 966 91 l 1563 91 l 1563 0 l 859 0 l 859 239 q 942 408 859 338 q 1142 478 1026 478 l 1280 478 q 1304 486 1294 478 q 1314 507 1314 495 q 1304 527 1314 518 q 1280 535 1294 535 l 903 535 l 903 625 l 1280 625 q 1380 590 1339 624 q 1421 507 1421 555 q 1380 422 1421 457 q 1280 387 1339 387 l 1142 387 q 1018 344 1070 387 q 966 239 966 301 l 966 91 z "},"":{"ha":1520,"x_min":27,"x_max":1493,"o":"m 388 1170 l 388 424 l 281 424 l 281 1080 l 27 1080 l 27 1170 l 388 1170 m 245 424 l 138 424 l 138 959 l 27 959 l 27 1050 l 245 1050 l 245 424 m 368 0 l 836 1356 l 1010 1356 l 543 0 l 368 0 m 1181 746 l 854 212 l 1350 212 l 1350 0 l 1243 0 l 1243 121 l 676 121 l 1060 746 l 1181 746 m 1341 746 l 1088 333 l 1493 333 l 1493 0 l 1385 0 l 1385 242 l 912 242 l 1220 746 l 1341 746 z "},"":{"ha":1672,"x_min":27,"x_max":1645,"o":"m 239 902 l 380 902 q 404 910 394 902 q 414 930 414 918 q 404 951 414 942 q 380 959 394 959 l 27 959 l 27 1049 l 380 1049 q 480 1014 439 1048 q 521 930 521 979 q 480 846 521 881 q 380 811 439 811 l 239 811 l 239 902 m 239 783 l 378 783 q 477 748 436 783 q 519 663 519 713 q 477 580 519 615 q 378 545 436 545 l 27 545 l 27 636 l 378 636 q 401 644 392 636 q 411 663 411 652 q 401 683 411 675 q 378 692 392 692 l 239 692 l 239 783 m 534 863 q 553 932 553 895 q 502 1036 553 992 q 378 1079 450 1079 l 27 1079 l 27 1170 l 378 1170 q 578 1100 495 1170 q 661 932 661 1030 q 613 797 661 856 q 661 663 661 739 q 578 494 661 564 q 378 424 495 424 l 27 424 l 27 515 l 378 515 q 502 558 450 515 q 553 663 553 601 q 534 731 553 701 q 502 768 521 751 q 453 798 479 786 q 502 827 479 808 q 534 863 521 844 m 519 0 l 987 1356 l 1162 1356 l 694 0 l 519 0 m 1333 746 l 1006 212 l 1502 212 l 1502 0 l 1395 0 l 1395 121 l 828 121 l 1212 746 l 1333 746 m 1493 746 l 1240 333 l 1645 333 l 1645 0 l 1537 0 l 1537 242 l 1064 242 l 1372 746 l 1493 746 z "},"":{"ha":1096,"x_min":34,"x_max":1062,"o":"m 598 876 l 977 876 l 977 711 l 430 711 l 430 971 l 431 971 q 484 1084 437 1035 q 613 1137 538 1137 l 1062 1137 l 1062 972 l 652 972 q 614 956 631 972 q 598 918 598 940 l 598 876 m 430 368 l 430 646 l 977 646 l 977 480 l 595 480 l 595 368 l 777 368 l 777 203 l 595 203 l 595 0 l 430 0 l 430 203 l 376 203 l 376 0 l 210 0 l 210 203 l 34 203 l 34 368 l 210 368 l 210 971 q 328 1238 217 1126 q 616 1356 448 1356 l 1062 1356 l 1062 1191 l 616 1191 q 446 1120 517 1191 q 376 951 376 1050 l 376 368 l 430 368 z "},"":{"ha":1226,"x_min":34,"x_max":1192,"o":"m 791 385 l 791 646 l 956 646 l 956 220 l 712 220 q 388 354 522 220 q 254 678 254 488 q 388 1002 254 868 q 712 1137 522 1137 q 1036 1002 902 1137 l 920 886 q 712 971 834 971 q 505 886 591 971 q 419 678 419 800 q 505 471 419 556 q 712 385 591 385 l 791 385 m 1010 165 l 1010 646 l 1176 646 l 1176 0 l 712 0 q 233 199 431 0 q 34 678 34 397 q 233 1158 34 959 q 712 1356 431 1356 q 1192 1158 993 1356 l 1076 1042 q 712 1191 925 1191 q 350 1041 500 1191 q 199 678 199 891 q 350 315 199 465 q 712 165 500 165 l 1010 165 m 557 1624 q 589 1546 557 1579 q 667 1514 621 1514 q 744 1546 712 1514 q 776 1624 776 1579 l 909 1624 q 838 1453 909 1525 q 667 1382 767 1382 q 496 1453 567 1382 q 425 1624 425 1525 l 557 1624 z "},"":{"ha":1152,"x_min":34,"x_max":1118,"o":"m 712 1191 q 351 1042 500 1192 q 201 678 201 891 q 351 317 201 467 q 712 165 500 167 l 954 165 l 954 646 l 1118 646 l 1118 0 l 712 0 q 233 199 431 0 q 34 678 34 397 q 233 1158 34 959 q 712 1356 431 1356 l 1115 1356 l 1115 1191 l 712 1191 m 715 220 q 384 355 522 220 q 245 678 245 490 q 384 1001 245 865 q 715 1137 522 1137 l 1115 1137 l 1115 972 l 715 972 q 504 885 591 971 q 416 678 416 799 q 504 471 416 557 q 715 385 591 385 l 735 385 l 735 646 l 899 646 l 899 220 l 715 220 m 576 1706 q 608 1629 576 1662 q 686 1596 640 1596 q 762 1629 730 1596 q 794 1706 794 1662 l 927 1706 q 856 1536 927 1607 q 686 1465 785 1465 q 514 1536 585 1465 q 443 1706 443 1607 l 576 1706 z "},"":{"ha":453,"x_min":34,"x_max":419,"o":"m 419 1356 l 419 0 l 254 0 l 254 1356 l 419 1356 m 199 1356 l 199 0 l 34 0 l 34 1356 l 199 1356 m 227 1595 q 290 1569 264 1595 q 316 1505 316 1543 q 290 1441 316 1468 q 227 1415 264 1415 q 163 1441 189 1415 q 137 1505 137 1468 q 163 1569 137 1543 q 227 1595 189 1595 z "},"":{"ha":1084,"x_min":34,"x_max":1050,"o":"m 614 385 q 651 400 636 385 q 666 437 666 415 q 651 472 666 457 q 614 487 636 487 l 469 487 q 161 614 289 487 q 34 922 34 741 q 161 1229 34 1101 q 469 1356 289 1356 l 1050 1356 l 1050 1191 l 469 1191 q 279 1112 358 1191 q 199 922 199 1034 q 279 732 199 811 q 469 652 358 652 l 614 651 q 768 588 704 651 q 831 437 831 525 q 768 283 831 347 q 614 220 704 220 l 34 220 l 34 385 l 614 385 m 503 0 l 34 0 l 34 165 l 614 165 q 805 245 726 165 q 884 435 884 324 q 805 625 884 547 q 614 704 726 704 l 469 704 q 316 768 380 704 q 252 921 252 831 q 316 1073 252 1009 q 469 1137 380 1135 l 1050 1137 l 1050 972 l 469 972 q 433 958 448 972 q 418 921 418 943 q 433 884 418 899 q 469 869 448 869 l 614 869 q 922 742 793 869 q 1050 435 1050 614 q 922 127 1050 254 q 695 7 823 30 l 695 -92 q 650 -188 691 -149 q 542 -233 606 -233 l 389 -233 l 389 -92 l 446 -92 q 486 -75 469 -92 q 503 -35 503 -58 l 503 0 z "},"":{"ha":1084,"x_min":34,"x_max":1050,"o":"m 614 385 q 651 400 636 385 q 666 437 666 415 q 651 472 666 457 q 614 487 636 487 l 469 487 q 161 614 289 487 q 34 922 34 741 q 161 1229 34 1101 q 469 1356 289 1356 l 1050 1356 l 1050 1191 l 469 1191 q 279 1112 358 1191 q 199 922 199 1034 q 279 732 199 811 q 469 652 358 652 l 614 651 q 768 588 704 651 q 831 437 831 525 q 768 283 831 347 q 614 220 704 220 l 34 220 l 34 385 l 614 385 m 503 0 l 34 0 l 34 165 l 614 165 q 805 245 726 165 q 884 435 884 324 q 805 625 884 547 q 614 704 726 704 l 469 704 q 316 768 380 704 q 252 921 252 831 q 316 1073 252 1009 q 469 1137 380 1135 l 1050 1137 l 1050 972 l 469 972 q 433 958 448 972 q 418 921 418 943 q 433 884 418 899 q 469 869 448 869 l 614 869 q 922 742 793 869 q 1050 435 1050 614 q 922 127 1050 254 q 695 7 823 30 l 695 -92 q 650 -188 691 -149 q 542 -233 606 -233 l 389 -233 l 389 -92 l 446 -92 q 486 -75 469 -92 q 503 -35 503 -58 l 503 0 z "},"":{"ha":1226,"x_min":34,"x_max":1192,"o":"m 1036 354 q 712 220 902 220 q 388 354 522 220 q 254 678 254 488 q 388 1002 254 868 q 712 1137 522 1137 q 1036 1002 902 1137 l 920 886 q 712 971 834 971 q 505 886 591 971 q 419 678 419 800 q 505 471 419 556 q 712 385 591 385 q 920 471 834 385 l 1036 354 m 1076 1042 q 712 1191 925 1191 q 350 1041 500 1191 q 199 678 199 891 q 350 315 199 465 q 712 165 500 165 q 1076 316 925 165 l 1192 199 q 712 0 993 0 q 233 199 431 0 q 34 678 34 397 q 233 1158 34 959 q 712 1356 431 1356 q 1192 1158 993 1356 l 1076 1042 m 570 1709 l 859 1709 l 677 1465 l 490 1465 l 570 1709 z "},"":{"ha":1084,"x_min":34,"x_max":1050,"o":"m 1050 1137 l 1050 972 l 712 972 q 507 886 593 972 q 420 678 420 800 q 507 471 420 557 q 712 385 593 385 l 1050 385 l 1050 220 l 712 220 q 390 355 525 220 q 255 678 255 490 q 390 1002 255 867 q 712 1137 525 1137 l 1050 1137 m 712 0 q 233 199 431 0 q 34 678 34 397 q 233 1158 34 959 q 712 1356 431 1356 l 1050 1356 l 1050 1191 l 712 1191 q 351 1041 500 1191 q 201 678 201 891 q 351 315 201 465 q 712 165 500 165 l 1050 165 l 1050 0 l 712 0 m 570 1709 l 859 1709 l 677 1465 l 490 1465 l 570 1709 z "},"":{"ha":1226,"x_min":34,"x_max":1192,"o":"m 1036 354 q 712 220 902 220 q 388 354 522 220 q 254 678 254 488 q 388 1002 254 868 q 712 1137 522 1137 q 1036 1002 902 1137 l 920 886 q 712 971 834 971 q 505 886 591 971 q 419 678 419 800 q 505 471 419 556 q 712 385 591 385 q 920 471 834 385 l 1036 354 m 1076 1042 q 712 1191 925 1191 q 350 1041 500 1191 q 199 678 199 891 q 350 315 199 465 q 712 165 500 165 q 1076 316 925 165 l 1192 199 q 712 0 993 0 q 233 199 431 0 q 34 678 34 397 q 233 1158 34 959 q 712 1356 431 1356 q 1192 1158 993 1356 l 1076 1042 m 727 1709 l 956 1709 l 785 1465 l 505 1465 l 334 1709 l 563 1709 l 644 1592 l 727 1709 z "},"":{"ha":1084,"x_min":34,"x_max":1050,"o":"m 1050 1137 l 1050 972 l 712 972 q 507 886 593 972 q 420 678 420 800 q 507 471 420 557 q 712 385 593 385 l 1050 385 l 1050 220 l 712 220 q 390 355 525 220 q 255 678 255 490 q 390 1002 255 867 q 712 1137 525 1137 l 1050 1137 m 712 0 q 233 199 431 0 q 34 678 34 397 q 233 1158 34 959 q 712 1356 431 1356 l 1050 1356 l 1050 1191 l 712 1191 q 351 1041 500 1191 q 201 678 201 891 q 351 315 201 465 q 712 165 500 165 l 1050 165 l 1050 0 l 712 0 m 727 1709 l 956 1709 l 785 1465 l 505 1465 l 334 1709 l 563 1709 l 644 1592 l 727 1709 z "},"":{"ha":1113,"x_min":34,"x_max":1079,"o":"m 469 486 q 433 471 448 486 q 418 435 418 456 q 433 398 418 413 q 469 383 448 383 l 547 383 l 547 486 l 469 486 m 711 652 l 711 219 l 469 219 q 316 283 380 220 q 252 435 252 347 q 316 588 252 524 q 469 652 380 652 l 711 652 m 711 1013 l 711 703 l 469 703 q 279 624 358 703 q 199 433 199 545 q 279 243 199 322 q 469 165 358 165 l 766 165 l 766 1013 l 711 1013 m 931 1013 l 931 -1 l 469 -1 q 161 127 289 -1 q 34 433 34 254 q 161 742 34 615 q 469 869 289 869 l 547 869 l 547 1013 l 242 1013 l 242 1178 l 547 1178 l 547 1356 l 711 1356 l 711 1178 l 766 1178 l 766 1356 l 931 1356 l 931 1178 l 1079 1178 l 1079 1013 l 931 1013 z "},"":{"ha":787,"x_min":27,"x_max":760,"o":"m 302 490 q 393 452 340 452 q 485 490 447 452 q 522 581 522 528 q 485 672 522 634 q 394 710 447 710 q 302 672 340 710 q 264 581 264 634 q 302 490 264 527 m 653 439 l 760 332 l 643 215 l 536 321 q 393 286 472 286 q 252 321 315 286 l 144 214 l 28 332 l 134 438 q 98 581 98 502 q 134 723 98 659 l 27 831 l 144 947 l 252 840 q 394 876 316 876 q 536 840 473 876 l 644 947 l 760 830 l 653 723 q 689 581 689 659 q 653 439 688 503 z "},"":{"ha":696,"x_min":27,"x_max":669,"o":"m 669 1235 l 669 1048 l 27 1048 l 27 1235 l 669 1235 z "},"":{"ha":1417,"x_min":34,"x_max":1383,"o":"m 780 605 l 709 818 l 639 605 l 780 605 m 1015 1124 l 1383 0 l 1210 0 l 853 1082 q 815 1146 842 1118 q 709 1190 772 1190 q 606 1146 648 1190 q 567 1081 578 1118 l 209 0 l 34 0 l 407 1128 q 487 1264 427 1204 q 709 1356 579 1356 q 933 1264 841 1356 q 1015 1124 994 1203 m 411 439 l 616 1063 q 643 1111 623 1090 q 709 1138 670 1138 q 779 1111 750 1138 q 806 1062 799 1089 q 1008 439 854 906 l 411 439 m 1027 385 l 1153 0 l 978 0 l 906 220 l 513 220 l 441 0 l 266 0 l 392 385 l 1027 385 m 452 1630 l 966 1630 l 966 1465 l 452 1465 l 452 1630 z "},"":{"ha":1675,"x_min":34,"x_max":1641,"o":"m 534 1128 q 614 1264 555 1204 q 837 1356 707 1356 q 1061 1264 968 1356 q 1142 1124 1122 1203 l 1375 419 q 1389 401 1381 410 q 1427 385 1405 385 l 1641 385 l 1641 220 l 1397 220 q 1270 274 1322 221 q 1227 339 1240 304 l 981 1084 q 943 1147 970 1119 q 837 1191 899 1191 q 734 1147 776 1191 q 694 1082 705 1119 l 448 339 q 406 274 435 304 q 278 220 353 221 l 34 220 l 34 385 l 248 385 q 286 401 270 385 q 300 419 294 410 l 534 1128 m 656 269 q 560 119 623 180 q 275 0 442 0 l 34 0 l 34 165 l 275 165 q 444 236 374 165 q 502 332 479 271 l 743 1062 q 770 1109 750 1089 q 837 1137 798 1137 q 906 1109 878 1137 q 932 1061 926 1088 l 1173 332 q 1232 236 1196 271 q 1400 165 1301 165 l 1641 165 l 1641 0 l 1400 0 q 1115 119 1233 0 q 1019 269 1053 180 l 837 818 l 656 269 m 581 1630 l 1095 1630 l 1095 1465 l 581 1465 l 581 1630 z "},"":{"ha":1417,"x_min":34,"x_max":1383,"o":"m 780 605 l 709 818 l 639 605 l 780 605 m 1015 1124 l 1383 0 l 1210 0 l 853 1082 q 815 1146 842 1118 q 709 1190 772 1190 q 606 1146 648 1190 q 567 1081 578 1118 l 209 0 l 34 0 l 407 1128 q 487 1264 427 1204 q 709 1356 579 1356 q 933 1264 841 1356 q 1015 1124 994 1203 m 411 439 l 616 1063 q 643 1111 623 1090 q 709 1138 670 1138 q 779 1111 750 1138 q 806 1062 799 1089 q 1008 439 854 906 l 411 439 m 1027 385 l 1153 0 l 978 0 l 906 220 l 513 220 l 441 0 l 266 0 l 392 385 l 1027 385 m 600 1706 q 631 1629 600 1662 q 709 1596 663 1596 q 786 1629 754 1596 q 818 1706 818 1662 l 951 1706 q 880 1536 951 1607 q 709 1465 809 1465 q 538 1536 609 1465 q 467 1706 467 1607 l 600 1706 z "},"":{"ha":1675,"x_min":34,"x_max":1641,"o":"m 534 1128 q 614 1264 555 1204 q 837 1356 707 1356 q 1061 1264 968 1356 q 1142 1124 1122 1203 l 1375 419 q 1389 401 1381 410 q 1427 385 1405 385 l 1641 385 l 1641 220 l 1397 220 q 1270 274 1322 221 q 1227 339 1240 304 l 981 1084 q 943 1147 970 1119 q 837 1191 899 1191 q 734 1147 776 1191 q 694 1082 705 1119 l 448 339 q 406 274 435 304 q 278 220 353 221 l 34 220 l 34 385 l 248 385 q 286 401 270 385 q 300 419 294 410 l 534 1128 m 656 269 q 560 119 623 180 q 275 0 442 0 l 34 0 l 34 165 l 275 165 q 444 236 374 165 q 502 332 479 271 l 743 1062 q 770 1109 750 1089 q 837 1137 798 1137 q 906 1109 878 1137 q 932 1061 926 1088 l 1173 332 q 1232 236 1196 271 q 1400 165 1301 165 l 1641 165 l 1641 0 l 1400 0 q 1115 119 1233 0 q 1019 269 1053 180 l 837 818 l 656 269 m 728 1706 q 760 1629 728 1662 q 838 1596 792 1596 q 915 1629 883 1596 q 947 1706 947 1662 l 1080 1706 q 1009 1536 1080 1607 q 838 1465 938 1465 q 667 1536 738 1465 q 595 1706 595 1607 l 728 1706 z "},"":{"ha":1417,"x_min":34,"x_max":1383,"o":"m 780 605 l 709 818 l 639 605 l 780 605 m 1015 1124 l 1383 0 l 1210 0 l 853 1082 q 815 1146 842 1118 q 709 1190 772 1190 q 606 1146 648 1190 q 567 1081 578 1118 l 209 0 l 34 0 l 407 1128 q 487 1264 427 1204 q 709 1356 579 1356 q 933 1264 841 1356 q 1015 1124 994 1203 m 411 439 l 616 1063 q 643 1111 623 1090 q 709 1138 670 1138 q 779 1111 750 1138 q 806 1062 799 1089 q 1008 439 854 906 l 411 439 m 981 0 l 978 0 l 906 220 l 513 220 l 441 0 l 266 0 l 392 385 l 1027 385 l 1153 0 l 1112 0 q 1140 -65 1115 -37 q 1216 -100 1170 -98 q 1295 -73 1261 -102 l 1383 -172 q 1209 -232 1310 -237 q 1042 -153 1109 -227 q 981 0 983 -87 z "},"":{"ha":1675,"x_min":34,"x_max":1641,"o":"m 534 1128 q 614 1264 555 1204 q 837 1356 707 1356 q 1061 1264 968 1356 q 1142 1124 1122 1203 l 1375 419 q 1389 401 1381 410 q 1427 385 1405 385 l 1641 385 l 1641 220 l 1397 220 q 1270 274 1322 221 q 1227 339 1240 304 l 981 1084 q 943 1147 970 1119 q 837 1191 899 1191 q 734 1147 776 1191 q 694 1082 705 1119 l 448 339 q 406 274 435 304 q 278 220 353 221 l 34 220 l 34 385 l 248 385 q 286 401 270 385 q 300 419 294 410 l 534 1128 m 1239 33 q 1115 119 1171 62 q 1019 269 1053 180 l 837 818 l 656 269 q 560 119 623 180 q 275 0 442 0 l 34 0 l 34 165 l 275 165 q 444 236 374 165 q 502 332 479 271 l 743 1062 q 770 1109 750 1089 q 837 1137 798 1137 q 906 1109 878 1137 q 932 1061 926 1088 l 1173 332 q 1232 236 1196 271 q 1400 165 1301 165 l 1641 165 l 1641 0 l 1400 0 q 1370 1 1385 0 q 1398 -65 1372 -36 q 1473 -100 1428 -98 q 1552 -73 1519 -102 l 1641 -172 q 1467 -232 1567 -237 q 1300 -153 1367 -227 q 1238 22 1233 -79 q 1239 33 1238 27 z "},"":{"ha":1226,"x_min":34,"x_max":1192,"o":"m 1036 354 q 712 220 902 220 q 388 354 522 220 q 254 678 254 488 q 388 1002 254 868 q 712 1137 522 1137 q 1036 1002 902 1137 l 920 886 q 712 971 834 971 q 505 886 591 971 q 419 678 419 800 q 505 471 419 556 q 712 385 591 385 q 920 471 834 385 l 1036 354 m 1076 1042 q 712 1191 925 1191 q 350 1041 500 1191 q 199 678 199 891 q 350 315 199 465 q 712 165 500 165 q 1076 316 925 165 l 1192 199 q 712 0 993 0 q 233 199 431 0 q 34 678 34 397 q 233 1158 34 959 q 712 1356 431 1356 q 1192 1158 993 1356 l 1076 1042 m 691 1581 l 610 1465 l 380 1465 l 551 1709 l 832 1709 l 1003 1465 l 774 1465 l 691 1581 z "},"":{"ha":1084,"x_min":34,"x_max":1050,"o":"m 1050 1137 l 1050 972 l 712 972 q 507 886 593 972 q 420 678 420 800 q 507 471 420 557 q 712 385 593 385 l 1050 385 l 1050 220 l 712 220 q 390 355 525 220 q 255 678 255 490 q 390 1002 255 867 q 712 1137 525 1137 l 1050 1137 m 712 0 q 233 199 431 0 q 34 678 34 397 q 233 1158 34 959 q 712 1356 431 1356 l 1050 1356 l 1050 1191 l 712 1191 q 351 1041 500 1191 q 201 678 201 891 q 351 315 201 465 q 712 165 500 165 l 1050 165 l 1050 0 l 712 0 m 652 1581 l 570 1465 l 341 1465 l 512 1709 l 793 1709 l 964 1465 l 734 1465 l 652 1581 z "},"":{"ha":1226,"x_min":34,"x_max":1192,"o":"m 1036 354 q 712 220 902 220 q 388 354 522 220 q 254 678 254 488 q 388 1002 254 868 q 712 1137 522 1137 q 1036 1002 902 1137 l 920 886 q 712 971 834 971 q 505 886 591 971 q 419 678 419 800 q 505 471 419 556 q 712 385 591 385 q 920 471 834 385 l 1036 354 m 1076 1042 q 712 1191 925 1191 q 350 1041 500 1191 q 199 678 199 891 q 350 315 199 465 q 712 165 500 165 q 1076 316 925 165 l 1192 199 q 712 0 993 0 q 233 199 431 0 q 34 678 34 397 q 233 1158 34 959 q 712 1356 431 1356 q 1192 1158 993 1356 l 1076 1042 m 698 1645 q 761 1619 734 1645 q 787 1555 787 1593 q 761 1492 787 1518 q 698 1465 734 1465 q 634 1492 660 1465 q 608 1555 608 1518 q 634 1619 608 1593 q 698 1645 660 1645 z "},"":{"ha":1084,"x_min":34,"x_max":1050,"o":"m 1050 1137 l 1050 972 l 712 972 q 507 886 593 972 q 420 678 420 800 q 507 471 420 557 q 712 385 593 385 l 1050 385 l 1050 220 l 712 220 q 390 355 525 220 q 255 678 255 490 q 390 1002 255 867 q 712 1137 525 1137 l 1050 1137 m 712 0 q 233 199 431 0 q 34 678 34 397 q 233 1158 34 959 q 712 1356 431 1356 l 1050 1356 l 1050 1191 l 712 1191 q 351 1041 500 1191 q 201 678 201 891 q 351 315 201 465 q 712 165 500 165 l 1050 165 l 1050 0 l 712 0 m 698 1645 q 761 1619 734 1645 q 787 1555 787 1593 q 761 1492 787 1518 q 698 1465 734 1465 q 634 1492 660 1465 q 608 1555 608 1518 q 634 1619 608 1593 q 698 1645 660 1645 z "},"":{"ha":1131,"x_min":34,"x_max":1097,"o":"m 34 0 l 34 1356 l 419 1356 q 899 1158 700 1356 q 1097 678 1097 959 q 899 199 1097 397 q 419 0 700 0 l 34 0 m 199 1191 l 199 165 l 419 165 q 781 315 631 165 q 932 678 932 465 q 781 1041 932 891 q 419 1191 631 1191 l 199 1191 m 419 1137 q 742 1002 608 1137 q 876 678 876 867 q 742 355 876 490 q 418 220 608 220 l 254 220 l 254 1137 l 419 1137 m 419 385 q 625 471 540 385 q 711 678 711 557 q 625 886 711 800 q 419 972 540 972 l 419 385 m 648 1651 l 877 1651 l 706 1407 l 425 1407 l 254 1651 l 484 1651 l 565 1535 l 648 1651 z "},"":{"ha":1719,"x_min":34,"x_max":1685,"o":"m 1520 1191 l 1266 1191 l 1266 1356 l 1685 1356 l 1685 917 q 1558 610 1685 738 q 1250 483 1430 483 l 1185 483 l 1185 648 l 1250 648 q 1440 727 1361 648 q 1520 917 1520 806 l 1520 1191 m 1300 971 l 1266 971 l 1266 1137 l 1466 1137 l 1466 917 q 1403 766 1467 830 q 1250 703 1339 704 l 1185 703 l 1185 868 l 1250 868 q 1286 883 1272 868 q 1300 917 1301 898 l 1300 971 m 34 0 l 34 1356 l 419 1356 q 899 1158 700 1356 q 1097 678 1097 959 q 899 199 1097 397 q 419 0 700 0 l 34 0 m 199 1191 l 199 165 l 419 165 q 781 315 631 165 q 932 678 932 465 q 781 1041 932 891 q 419 1191 631 1191 l 199 1191 m 419 1137 q 742 1002 608 1137 q 876 678 876 867 q 742 355 876 490 q 418 220 608 220 l 254 220 l 254 1137 l 419 1137 m 419 385 q 625 471 540 385 q 711 678 711 557 q 625 886 711 800 q 419 972 540 972 l 419 385 z "},"":{"ha":1338,"x_min":34,"x_max":1304,"o":"m 460 772 l 460 1137 l 626 1137 q 949 1002 814 1137 q 1083 678 1083 867 q 949 355 1083 490 q 625 220 814 220 l 460 220 l 460 585 l 406 585 l 406 165 l 626 165 q 988 315 838 165 q 1139 678 1139 465 q 988 1041 1139 891 q 626 1191 838 1191 l 406 1191 l 406 772 l 460 772 m 241 772 l 241 1356 l 626 1356 q 1105 1158 907 1356 q 1304 678 1304 959 q 1105 199 1304 397 q 626 0 907 0 l 241 0 l 241 585 l 34 585 l 34 772 l 241 772 m 626 585 l 626 385 q 832 471 747 385 q 918 678 918 557 q 832 886 918 800 q 626 972 747 972 l 626 772 l 774 772 l 774 585 l 626 585 z "},"":{"ha":920,"x_min":34,"x_max":886,"o":"m 422 876 l 800 876 l 800 711 l 254 711 l 254 971 l 255 971 q 308 1084 260 1035 q 437 1137 362 1137 l 886 1137 l 886 972 l 476 972 q 438 956 454 972 q 422 918 422 940 l 422 876 m 422 439 q 438 401 422 418 q 476 385 454 385 l 886 385 l 886 220 l 437 220 q 308 273 362 220 q 255 385 260 321 l 254 385 l 254 646 l 800 646 l 800 480 l 422 480 l 422 439 m 34 971 q 152 1238 41 1126 q 439 1356 271 1356 l 886 1356 l 886 1191 l 439 1191 q 270 1120 340 1191 q 199 951 199 1050 l 199 406 q 270 236 199 307 q 439 165 340 165 l 886 165 l 886 0 l 439 0 q 152 118 271 0 q 34 385 41 231 l 34 971 m 244 1573 l 758 1573 l 758 1407 l 244 1407 l 244 1573 z "},"":{"ha":920,"x_min":34,"x_max":886,"o":"m 422 876 l 800 876 l 800 711 l 254 711 l 254 971 l 255 971 q 308 1084 260 1035 q 437 1137 362 1137 l 886 1137 l 886 972 l 476 972 q 438 956 454 972 q 422 918 422 940 l 422 876 m 422 439 q 438 401 422 418 q 476 385 454 385 l 886 385 l 886 220 l 437 220 q 308 273 362 220 q 255 385 260 321 l 254 385 l 254 646 l 800 646 l 800 480 l 422 480 l 422 439 m 34 971 q 152 1238 41 1126 q 439 1356 271 1356 l 886 1356 l 886 1191 l 439 1191 q 270 1120 340 1191 q 199 951 199 1050 l 199 406 q 270 236 199 307 q 439 165 340 165 l 886 165 l 886 0 l 439 0 q 152 118 271 0 q 34 385 41 231 l 34 971 m 244 1573 l 758 1573 l 758 1407 l 244 1407 l 244 1573 z "},"":{"ha":920,"x_min":34,"x_max":886,"o":"m 422 876 l 800 876 l 800 711 l 254 711 l 254 971 l 255 971 q 308 1084 260 1035 q 437 1137 362 1137 l 886 1137 l 886 972 l 476 972 q 438 956 454 972 q 422 918 422 940 l 422 876 m 422 439 q 438 401 422 418 q 476 385 454 385 l 886 385 l 886 220 l 437 220 q 308 273 362 220 q 255 385 260 321 l 254 385 l 254 646 l 800 646 l 800 480 l 422 480 l 422 439 m 34 971 q 152 1238 41 1126 q 439 1356 271 1356 l 886 1356 l 886 1191 l 439 1191 q 270 1120 340 1191 q 199 951 199 1050 l 199 406 q 270 236 199 307 q 439 165 340 165 l 886 165 l 886 0 l 439 0 q 152 118 271 0 q 34 385 41 231 l 34 971 m 406 1649 q 438 1571 406 1604 q 516 1539 470 1539 q 593 1571 561 1539 q 625 1649 625 1604 l 758 1649 q 687 1478 758 1550 q 516 1407 616 1407 q 345 1478 416 1407 q 273 1649 273 1550 l 406 1649 z "},"":{"ha":920,"x_min":34,"x_max":886,"o":"m 422 876 l 800 876 l 800 711 l 254 711 l 254 971 l 255 971 q 308 1084 260 1035 q 437 1137 362 1137 l 886 1137 l 886 972 l 476 972 q 438 956 454 972 q 422 918 422 940 l 422 876 m 422 439 q 438 401 422 418 q 476 385 454 385 l 886 385 l 886 220 l 437 220 q 308 273 362 220 q 255 385 260 321 l 254 385 l 254 646 l 800 646 l 800 480 l 422 480 l 422 439 m 34 971 q 152 1238 41 1126 q 439 1356 271 1356 l 886 1356 l 886 1191 l 439 1191 q 270 1120 340 1191 q 199 951 199 1050 l 199 406 q 270 236 199 307 q 439 165 340 165 l 886 165 l 886 0 l 439 0 q 152 118 271 0 q 34 385 41 231 l 34 971 m 406 1649 q 438 1571 406 1604 q 516 1539 470 1539 q 593 1571 561 1539 q 625 1649 625 1604 l 758 1649 q 687 1478 758 1550 q 516 1407 616 1407 q 345 1478 416 1407 q 273 1649 273 1550 l 406 1649 z "},"":{"ha":920,"x_min":34,"x_max":886,"o":"m 422 876 l 800 876 l 800 711 l 254 711 l 254 971 l 255 971 q 308 1084 260 1035 q 437 1137 362 1137 l 886 1137 l 886 972 l 476 972 q 438 956 454 972 q 422 918 422 940 l 422 876 m 422 439 q 438 401 422 418 q 476 385 454 385 l 886 385 l 886 220 l 437 220 q 308 273 362 220 q 255 385 260 321 l 254 385 l 254 646 l 800 646 l 800 480 l 422 480 l 422 439 m 34 971 q 152 1238 41 1126 q 439 1356 271 1356 l 886 1356 l 886 1191 l 439 1191 q 270 1120 340 1191 q 199 951 199 1050 l 199 406 q 270 236 199 307 q 439 165 340 165 l 886 165 l 886 0 l 439 0 q 152 118 271 0 q 34 385 41 231 l 34 971 m 537 1573 q 600 1547 574 1573 q 626 1482 626 1520 q 600 1419 626 1446 q 537 1392 574 1392 q 473 1419 499 1392 q 447 1482 447 1446 q 473 1547 447 1520 q 537 1573 499 1573 z "},"":{"ha":920,"x_min":34,"x_max":886,"o":"m 422 876 l 800 876 l 800 711 l 254 711 l 254 971 l 255 971 q 308 1084 260 1035 q 437 1137 362 1137 l 886 1137 l 886 972 l 476 972 q 438 956 454 972 q 422 918 422 940 l 422 876 m 422 439 q 438 401 422 418 q 476 385 454 385 l 886 385 l 886 220 l 437 220 q 308 273 362 220 q 255 385 260 321 l 254 385 l 254 646 l 800 646 l 800 480 l 422 480 l 422 439 m 34 971 q 152 1238 41 1126 q 439 1356 271 1356 l 886 1356 l 886 1191 l 439 1191 q 270 1120 340 1191 q 199 951 199 1050 l 199 406 q 270 236 199 307 q 439 165 340 165 l 886 165 l 886 0 l 439 0 q 152 118 271 0 q 34 385 41 231 l 34 971 m 537 1573 q 600 1547 574 1573 q 626 1482 626 1520 q 600 1419 626 1446 q 537 1392 574 1392 q 473 1419 499 1392 q 447 1482 447 1446 q 473 1547 447 1520 q 537 1573 499 1573 z "},"":{"ha":920,"x_min":34,"x_max":886,"o":"m 422 876 l 800 876 l 800 711 l 254 711 l 254 971 l 255 971 q 308 1084 260 1035 q 437 1137 362 1137 l 886 1137 l 886 972 l 476 972 q 438 956 454 972 q 422 918 422 940 l 422 876 m 483 0 l 439 0 q 152 118 271 0 q 34 385 41 231 l 34 971 q 152 1238 41 1126 q 439 1356 271 1356 l 886 1356 l 886 1191 l 439 1191 q 270 1120 340 1191 q 199 951 199 1050 l 199 406 q 270 236 199 307 q 439 165 340 165 l 886 165 l 886 0 l 615 0 q 614 -5 614 -3 q 642 -85 612 -51 q 718 -121 672 -119 q 797 -93 764 -123 l 886 -192 q 711 -253 812 -258 q 545 -174 611 -248 q 483 0 478 -100 m 422 439 q 438 401 422 418 q 476 385 454 385 l 886 385 l 886 220 l 437 220 q 308 273 362 220 q 255 385 260 321 l 254 385 l 254 646 l 800 646 l 800 480 l 422 480 l 422 439 z "},"":{"ha":920,"x_min":34,"x_max":886,"o":"m 422 876 l 800 876 l 800 711 l 254 711 l 254 971 l 255 971 q 308 1084 260 1035 q 437 1137 362 1137 l 886 1137 l 886 972 l 476 972 q 438 956 454 972 q 422 918 422 940 l 422 876 m 483 0 l 439 0 q 152 118 271 0 q 34 385 41 231 l 34 971 q 152 1238 41 1126 q 439 1356 271 1356 l 886 1356 l 886 1191 l 439 1191 q 270 1120 340 1191 q 199 951 199 1050 l 199 406 q 270 236 199 307 q 439 165 340 165 l 886 165 l 886 0 l 615 0 q 614 -5 614 -3 q 642 -85 612 -51 q 718 -121 672 -119 q 797 -93 764 -123 l 886 -192 q 711 -253 812 -258 q 545 -174 611 -248 q 483 0 478 -100 m 422 439 q 438 401 422 418 q 476 385 454 385 l 886 385 l 886 220 l 437 220 q 308 273 362 220 q 255 385 260 321 l 254 385 l 254 646 l 800 646 l 800 480 l 422 480 l 422 439 z "},"":{"ha":920,"x_min":34,"x_max":886,"o":"m 422 876 l 800 876 l 800 711 l 254 711 l 254 971 l 255 971 q 308 1084 260 1035 q 437 1137 362 1137 l 886 1137 l 886 972 l 476 972 q 438 956 454 972 q 422 918 422 940 l 422 876 m 422 439 q 438 401 422 418 q 476 385 454 385 l 886 385 l 886 220 l 437 220 q 308 273 362 220 q 255 385 260 321 l 254 385 l 254 646 l 800 646 l 800 480 l 422 480 l 422 439 m 34 971 q 152 1238 41 1126 q 439 1356 271 1356 l 886 1356 l 886 1191 l 439 1191 q 270 1120 340 1191 q 199 951 199 1050 l 199 406 q 270 236 199 307 q 439 165 340 165 l 886 165 l 886 0 l 439 0 q 152 118 271 0 q 34 385 41 231 l 34 971 m 542 1709 l 771 1709 l 600 1465 l 319 1465 l 149 1709 l 378 1709 l 459 1592 l 542 1709 z "},"":{"ha":920,"x_min":34,"x_max":886,"o":"m 422 876 l 800 876 l 800 711 l 254 711 l 254 971 l 255 971 q 308 1084 260 1035 q 437 1137 362 1137 l 886 1137 l 886 972 l 476 972 q 438 956 454 972 q 422 918 422 940 l 422 876 m 422 439 q 438 401 422 418 q 476 385 454 385 l 886 385 l 886 220 l 437 220 q 308 273 362 220 q 255 385 260 321 l 254 385 l 254 646 l 800 646 l 800 480 l 422 480 l 422 439 m 34 971 q 152 1238 41 1126 q 439 1356 271 1356 l 886 1356 l 886 1191 l 439 1191 q 270 1120 340 1191 q 199 951 199 1050 l 199 406 q 270 236 199 307 q 439 165 340 165 l 886 165 l 886 0 l 439 0 q 152 118 271 0 q 34 385 41 231 l 34 971 m 542 1709 l 771 1709 l 600 1465 l 319 1465 l 149 1709 l 378 1709 l 459 1592 l 542 1709 z "},"":{"ha":1226,"x_min":34,"x_max":1192,"o":"m 791 385 l 791 646 l 956 646 l 956 220 l 712 220 q 388 354 522 220 q 254 678 254 488 q 388 1002 254 868 q 712 1137 522 1137 q 1036 1002 902 1137 l 920 886 q 712 971 834 971 q 505 886 591 971 q 419 678 419 800 q 505 471 419 556 q 712 385 591 385 l 791 385 m 1010 165 l 1010 646 l 1176 646 l 1176 0 l 712 0 q 233 199 431 0 q 34 678 34 397 q 233 1158 34 959 q 712 1356 431 1356 q 1192 1158 993 1356 l 1076 1042 q 712 1191 925 1191 q 350 1041 500 1191 q 199 678 199 891 q 350 315 199 465 q 712 165 500 165 l 1010 165 m 612 1581 l 531 1465 l 302 1465 l 473 1709 l 753 1709 l 924 1465 l 695 1465 l 612 1581 z "},"":{"ha":1152,"x_min":34,"x_max":1118,"o":"m 712 1191 q 351 1042 500 1192 q 201 678 201 891 q 351 317 201 467 q 712 165 500 167 l 954 165 l 954 646 l 1118 646 l 1118 0 l 712 0 q 233 199 431 0 q 34 678 34 397 q 233 1158 34 959 q 712 1356 431 1356 l 1115 1356 l 1115 1191 l 712 1191 m 715 220 q 384 355 522 220 q 245 678 245 490 q 384 1001 245 865 q 715 1137 522 1137 l 1115 1137 l 1115 972 l 715 972 q 504 885 591 971 q 416 678 416 799 q 504 471 416 557 q 715 385 591 385 l 735 385 l 735 646 l 899 646 l 899 220 l 715 220 m 612 1581 l 531 1465 l 302 1465 l 473 1709 l 753 1709 l 924 1465 l 695 1465 l 612 1581 z "},"":{"ha":1226,"x_min":34,"x_max":1192,"o":"m 791 385 l 791 646 l 956 646 l 956 220 l 712 220 q 388 354 522 220 q 254 678 254 488 q 388 1002 254 868 q 712 1137 522 1137 q 1036 1002 902 1137 l 920 886 q 712 971 834 971 q 505 886 591 971 q 419 678 419 800 q 505 471 419 556 q 712 385 591 385 l 791 385 m 1010 165 l 1010 646 l 1176 646 l 1176 0 l 712 0 q 233 199 431 0 q 34 678 34 397 q 233 1158 34 959 q 712 1356 431 1356 q 1192 1158 993 1356 l 1076 1042 q 712 1191 925 1191 q 350 1041 500 1191 q 199 678 199 891 q 350 315 199 465 q 712 165 500 165 l 1010 165 m 682 1645 q 745 1619 719 1645 q 771 1555 771 1593 q 745 1492 771 1518 q 682 1465 719 1465 q 618 1492 644 1465 q 592 1555 592 1518 q 618 1619 592 1593 q 682 1645 644 1645 z "},"":{"ha":1152,"x_min":34,"x_max":1118,"o":"m 712 1191 q 351 1042 500 1192 q 201 678 201 891 q 351 317 201 467 q 712 165 500 167 l 954 165 l 954 646 l 1118 646 l 1118 0 l 712 0 q 233 199 431 0 q 34 678 34 397 q 233 1158 34 959 q 712 1356 431 1356 l 1115 1356 l 1115 1191 l 712 1191 m 715 220 q 384 355 522 220 q 245 678 245 490 q 384 1001 245 865 q 715 1137 522 1137 l 1115 1137 l 1115 972 l 715 972 q 504 885 591 971 q 416 678 416 799 q 504 471 416 557 q 715 385 591 385 l 735 385 l 735 646 l 899 646 l 899 220 l 715 220 m 682 1645 q 745 1619 719 1645 q 771 1555 771 1593 q 745 1492 771 1518 q 682 1465 719 1465 q 618 1492 644 1465 q 592 1555 592 1518 q 618 1619 592 1593 q 682 1645 644 1645 z "},"":{"ha":1226,"x_min":34,"x_max":1192,"o":"m 791 385 l 791 646 l 956 646 l 956 220 l 712 220 q 388 354 522 220 q 254 678 254 488 q 388 1002 254 868 q 712 1137 522 1137 q 1036 1002 902 1137 l 920 886 q 712 971 834 971 q 505 886 591 971 q 419 678 419 800 q 505 471 419 556 q 712 385 591 385 l 791 385 m 637 3 q 233 199 404 27 q 34 678 34 397 q 233 1158 34 959 q 712 1356 431 1356 q 1192 1158 993 1356 l 1076 1042 q 712 1191 925 1191 q 350 1041 500 1191 q 199 678 199 891 q 350 315 199 465 q 712 165 500 165 l 1010 165 l 1010 646 l 1176 646 l 1176 0 l 830 0 l 830 -90 q 785 -186 826 -147 q 677 -231 741 -231 l 524 -231 l 524 -90 l 581 -90 q 621 -73 604 -90 q 637 -33 637 -56 l 637 3 z "},"":{"ha":1152,"x_min":34,"x_max":1118,"o":"m 712 1191 q 351 1042 500 1192 q 201 678 201 891 q 351 317 201 467 q 712 165 500 167 l 954 165 l 954 646 l 1118 646 l 1118 0 l 712 0 q 233 199 431 0 q 34 678 34 397 q 233 1158 34 959 q 712 1356 431 1356 l 1115 1356 l 1115 1191 l 712 1191 m 715 220 q 384 355 522 220 q 245 678 245 490 q 384 1001 245 865 q 715 1137 522 1137 l 1115 1137 l 1115 972 l 715 972 q 504 885 591 971 q 416 678 416 799 q 504 471 416 557 q 715 385 591 385 l 735 385 l 735 646 l 899 646 l 899 220 l 715 220 m 689 1630 l 943 1630 l 943 1465 l 524 1465 l 524 1904 q 651 2211 524 2083 q 959 2338 779 2338 l 1024 2338 l 1024 2173 l 959 2173 q 768 2094 848 2173 q 689 1904 689 2016 l 689 1630 m 909 1850 l 943 1850 l 943 1685 l 743 1685 l 743 1904 q 806 2055 742 1991 q 959 2119 869 2117 l 1024 2119 l 1024 1953 l 959 1953 q 922 1938 937 1953 q 909 1904 907 1923 l 909 1850 z "},"":{"ha":1084,"x_min":34,"x_max":1050,"o":"m 199 1356 l 199 0 l 34 0 l 34 678 l 34 1356 l 199 1356 m 1050 1356 l 1050 0 l 886 0 l 886 1356 l 1050 1356 m 831 1356 l 831 711 l 254 711 l 254 1356 l 419 1356 l 419 875 l 666 875 l 666 1356 l 831 1356 m 666 0 l 666 479 l 419 479 l 419 0 l 254 0 l 254 646 l 831 646 l 831 0 l 666 0 m 541 1581 l 460 1465 l 231 1465 l 401 1709 l 682 1709 l 853 1465 l 624 1465 l 541 1581 z "},"":{"ha":1084,"x_min":34,"x_max":1050,"o":"m 199 1356 l 199 0 l 34 0 l 34 678 l 34 1356 l 199 1356 m 1050 1356 l 1050 0 l 886 0 l 886 1356 l 1050 1356 m 831 1356 l 831 711 l 254 711 l 254 1356 l 419 1356 l 419 875 l 666 875 l 666 1356 l 831 1356 m 666 0 l 666 479 l 419 479 l 419 0 l 254 0 l 254 646 l 831 646 l 831 0 l 666 0 m 541 1581 l 460 1465 l 231 1465 l 401 1709 l 682 1709 l 853 1465 l 624 1465 l 541 1581 z "},"":{"ha":1355,"x_min":34,"x_max":1321,"o":"m 801 0 l 801 479 l 554 479 l 554 0 l 389 0 l 389 646 l 966 646 l 966 0 l 801 0 m 554 1055 l 554 875 l 801 875 l 801 1055 l 554 1055 m 169 1221 l 169 1356 l 334 1356 l 334 1221 l 389 1221 l 389 1356 l 554 1356 l 554 1221 l 801 1221 l 801 1356 l 966 1356 l 966 1221 l 1021 1221 l 1021 1356 l 1185 1356 l 1185 1221 l 1321 1221 l 1321 1055 l 1185 1055 l 1185 0 l 1021 0 l 1021 1055 l 966 1055 l 966 711 l 389 711 l 389 1055 l 334 1055 l 334 0 l 169 0 l 169 1055 l 34 1055 l 34 1221 l 169 1221 z "},"":{"ha":1394,"x_min":34,"x_max":1360,"o":"m 977 415 q 941 503 977 467 q 853 538 905 538 q 765 503 802 538 q 728 415 728 467 l 728 0 l 563 0 l 563 415 q 648 619 563 534 q 853 704 734 704 q 1057 619 972 704 q 1142 415 1142 534 l 1142 0 l 977 0 l 977 415 m 345 1017 l 34 1017 l 34 1183 l 345 1183 l 345 1356 l 509 1356 l 509 1183 l 564 1183 l 564 1356 l 730 1356 l 730 1183 l 1038 1183 l 1038 1017 l 730 1017 l 730 909 q 853 922 789 922 q 1212 774 1063 922 q 1360 415 1360 625 l 1360 0 l 1196 0 l 1196 415 q 1095 657 1196 556 q 853 758 994 758 q 730 736 787 758 q 610 657 664 711 q 564 602 584 631 l 564 1017 l 509 1017 l 509 0 l 345 0 l 345 1017 z "},"":{"ha":627,"x_min":34,"x_max":593,"o":"m 504 1356 l 504 0 l 338 0 l 338 1356 l 504 1356 m 284 1356 l 284 0 l 119 0 l 119 1356 l 284 1356 m 413 1598 q 471 1614 450 1598 q 525 1656 492 1629 l 593 1581 q 549 1521 572 1546 q 413 1465 492 1465 q 301 1504 364 1465 q 214 1544 238 1544 q 156 1528 177 1544 q 102 1486 136 1513 l 34 1560 q 79 1621 54 1596 q 214 1677 135 1677 q 326 1638 263 1677 q 413 1598 389 1598 z "},"":{"ha":627,"x_min":34,"x_max":593,"o":"m 504 1356 l 504 0 l 338 0 l 338 1356 l 504 1356 m 284 1356 l 284 0 l 119 0 l 119 1356 l 284 1356 m 413 1598 q 471 1614 450 1598 q 525 1656 492 1629 l 593 1581 q 549 1521 572 1546 q 413 1465 492 1465 q 301 1504 364 1465 q 214 1544 238 1544 q 156 1528 177 1544 q 102 1486 136 1513 l 34 1560 q 79 1621 54 1596 q 214 1677 135 1677 q 326 1638 263 1677 q 413 1598 389 1598 z "},"":{"ha":581,"x_min":34,"x_max":547,"o":"m 483 1356 l 483 0 l 317 0 l 317 1356 l 483 1356 m 263 1356 l 263 0 l 98 0 l 98 1356 l 263 1356 m 34 1630 l 547 1630 l 547 1465 l 34 1465 l 34 1630 z "},"":{"ha":581,"x_min":34,"x_max":547,"o":"m 483 1356 l 483 0 l 317 0 l 317 1356 l 483 1356 m 263 1356 l 263 0 l 98 0 l 98 1356 l 263 1356 m 34 1630 l 547 1630 l 547 1465 l 34 1465 l 34 1630 z "},"":{"ha":552,"x_min":34,"x_max":518,"o":"m 469 1356 l 469 0 l 303 0 l 303 1356 l 469 1356 m 249 1356 l 249 0 l 83 0 l 83 1356 l 249 1356 m 167 1706 q 199 1629 167 1662 q 277 1596 231 1596 q 353 1629 321 1596 q 385 1706 385 1662 l 518 1706 q 447 1536 518 1607 q 277 1465 376 1465 q 105 1536 176 1465 q 34 1706 34 1607 l 167 1706 z "},"":{"ha":552,"x_min":34,"x_max":518,"o":"m 469 1356 l 469 0 l 303 0 l 303 1356 l 469 1356 m 249 1356 l 249 0 l 83 0 l 83 1356 l 249 1356 m 167 1706 q 199 1629 167 1662 q 277 1596 231 1596 q 353 1629 321 1596 q 385 1706 385 1662 l 518 1706 q 447 1536 518 1607 q 277 1465 376 1465 q 105 1536 176 1465 q 34 1706 34 1607 l 167 1706 z "},"":{"ha":476,"x_min":34,"x_max":442,"o":"m 442 1356 l 442 0 l 277 0 l 277 1356 l 442 1356 m 57 85 l 57 1356 l 222 1356 l 222 0 l 171 0 l 171 -3 q 199 -83 168 -49 q 274 -119 229 -117 q 353 -91 320 -121 l 442 -190 q 268 -251 368 -256 q 101 -172 168 -245 q 39 4 34 -97 q 57 85 41 47 z "},"":{"ha":476,"x_min":34,"x_max":442,"o":"m 442 1356 l 442 0 l 277 0 l 277 1356 l 442 1356 m 57 85 l 57 1356 l 222 1356 l 222 0 l 171 0 l 171 -3 q 199 -83 168 -49 q 274 -119 229 -117 q 353 -91 320 -121 l 442 -190 q 268 -251 368 -256 q 101 -172 168 -245 q 39 4 34 -97 q 57 85 41 47 z "},"":{"ha":1554,"x_min":34,"x_max":1520,"o":"m 419 1356 l 419 0 l 254 0 l 254 1356 l 419 1356 m 199 1356 l 199 0 l 34 0 l 34 1356 l 199 1356 m 1302 509 q 1217 304 1302 389 q 1013 220 1133 220 q 808 304 894 220 q 723 509 723 389 l 888 509 q 925 421 888 457 q 1013 385 962 385 q 1101 421 1065 385 q 1137 509 1137 457 l 1137 1356 l 1302 1356 l 1302 509 m 1520 507 q 1373 149 1520 297 q 1013 0 1225 0 q 654 149 803 0 q 505 509 505 297 l 669 509 q 770 267 669 368 q 1013 165 871 165 q 1255 267 1154 165 q 1356 509 1356 368 l 1356 1356 l 1520 1356 l 1520 507 z "},"":{"ha":1554,"x_min":34,"x_max":1520,"o":"m 419 1356 l 419 0 l 254 0 l 254 1356 l 419 1356 m 199 1356 l 199 0 l 34 0 l 34 1356 l 199 1356 m 1302 509 q 1217 304 1302 389 q 1013 220 1133 220 q 808 304 894 220 q 723 509 723 389 l 888 509 q 925 421 888 457 q 1013 385 962 385 q 1101 421 1065 385 q 1137 509 1137 457 l 1137 1356 l 1302 1356 l 1302 509 m 1520 507 q 1373 149 1520 297 q 1013 0 1225 0 q 654 149 803 0 q 505 509 505 297 l 669 509 q 770 267 669 368 q 1013 165 871 165 q 1255 267 1154 165 q 1356 509 1356 368 l 1356 1356 l 1520 1356 l 1520 507 z "},"":{"ha":1204,"x_min":34,"x_max":1170,"o":"m 831 509 q 747 304 831 389 q 543 220 662 220 q 338 304 423 220 q 252 509 252 389 l 418 509 q 454 421 418 457 q 543 385 491 385 q 630 421 594 385 q 666 509 666 457 l 666 1356 l 831 1356 l 831 509 m 1050 507 q 902 149 1050 297 q 543 0 754 0 q 183 149 332 0 q 34 509 34 297 l 198 509 q 299 267 198 368 q 543 165 400 165 q 785 267 684 165 q 886 509 886 368 l 886 1356 l 1050 1356 l 1050 507 m 858 1581 l 777 1465 l 547 1465 l 718 1709 l 999 1709 l 1170 1465 l 941 1465 l 858 1581 z "},"":{"ha":1204,"x_min":34,"x_max":1170,"o":"m 831 509 q 747 304 831 389 q 543 220 662 220 q 338 304 423 220 q 252 509 252 389 l 418 509 q 454 421 418 457 q 543 385 491 385 q 630 421 594 385 q 666 509 666 457 l 666 1356 l 831 1356 l 831 509 m 1050 507 q 902 149 1050 297 q 543 0 754 0 q 183 149 332 0 q 34 509 34 297 l 198 509 q 299 267 198 368 q 543 165 400 165 q 785 267 684 165 q 886 509 886 368 l 886 1356 l 1050 1356 l 1050 507 m 858 1581 l 777 1465 l 547 1465 l 718 1709 l 999 1709 l 1170 1465 l 941 1465 l 858 1581 z "},"":{"ha":1195,"x_min":34,"x_max":1161,"o":"m 198 0 l 34 0 l 34 1356 l 198 1356 l 198 0 m 419 1149 l 629 1356 l 864 1356 l 255 761 l 255 1356 l 419 1356 l 419 1149 m 928 1356 l 1161 1356 l 670 875 l 774 875 q 1042 757 929 868 q 1160 469 1160 637 l 1160 0 l 994 0 l 994 469 q 924 639 994 568 q 754 709 853 709 l 267 709 l 928 1356 m 255 654 l 774 654 q 887 601 838 648 q 940 472 940 547 l 940 0 l 776 0 l 776 433 q 760 471 776 454 q 722 487 743 487 l 419 487 l 419 0 l 255 0 l 255 654 m 534 -212 q 517 -192 524 -203 q 501 -117 490 -155 q 553 -59 512 -77 q 642 -54 594 -40 q 716 -103 690 -66 q 731 -180 742 -140 q 724 -197 728 -189 q 594 -381 667 -339 q 429 -402 516 -425 l 366 -385 l 410 -226 l 473 -243 q 512 -238 494 -248 q 534 -212 529 -228 z "},"":{"ha":1204,"x_min":34,"x_max":1171,"o":"m 198 0 l 34 0 l 34 1356 l 198 1356 l 198 0 m 419 1149 l 629 1356 l 864 1356 l 255 761 l 255 1356 l 419 1356 l 419 1149 m 928 1356 l 1161 1356 l 644 850 l 917 422 q 936 399 925 410 q 974 382 952 382 l 1171 382 l 1171 220 l 954 220 q 826 273 879 220 q 798 308 808 290 l 434 872 l 928 1356 m 734 301 q 784 236 770 250 q 954 165 854 165 l 1171 165 l 1171 0 l 924 0 q 667 117 774 9 q 598 206 625 159 l 419 486 l 419 0 l 255 0 l 255 697 l 396 836 l 734 301 m 515 -212 q 498 -193 506 -203 q 483 -117 472 -156 q 535 -59 494 -78 q 624 -54 576 -41 q 697 -104 671 -67 q 713 -180 724 -141 q 706 -198 710 -190 q 576 -382 649 -340 q 411 -403 498 -425 l 348 -386 l 392 -227 l 454 -243 q 494 -239 475 -249 q 515 -212 511 -229 z "},"":{"ha":1204,"x_min":34,"x_max":1171,"o":"m 198 0 l 34 0 l 34 1356 l 198 1356 l 198 0 m 419 1149 l 629 1356 l 864 1356 l 255 761 l 255 1356 l 419 1356 l 419 1149 m 928 1356 l 1161 1356 l 644 850 l 917 422 q 936 399 925 410 q 974 382 952 382 l 1171 382 l 1171 220 l 954 220 q 826 273 879 220 q 798 308 808 290 l 434 872 l 928 1356 m 734 301 q 784 236 770 250 q 954 165 854 165 l 1171 165 l 1171 0 l 924 0 q 667 117 774 9 q 598 206 625 159 l 419 486 l 419 0 l 255 0 l 255 697 l 396 836 l 734 301 z "},"":{"ha":1005,"x_min":34,"x_max":971,"o":"m 254 1356 l 418 1356 l 418 441 q 435 402 418 419 q 473 385 452 385 l 971 385 l 971 220 l 434 220 q 307 273 359 220 q 254 400 254 326 l 254 1356 m 34 404 l 34 1356 l 199 1356 l 199 404 q 269 235 199 305 q 438 165 339 165 l 971 165 l 971 0 l 438 0 q 153 119 271 0 q 34 404 34 237 m 460 1709 l 749 1709 l 567 1465 l 380 1465 l 460 1709 z "},"":{"ha":1005,"x_min":34,"x_max":971,"o":"m 254 1356 l 418 1356 l 418 441 q 435 402 418 419 q 473 385 452 385 l 967 385 l 967 220 l 434 220 q 307 273 359 220 q 254 400 254 326 l 254 1356 m 34 404 l 34 1356 l 199 1356 l 199 404 q 269 235 199 305 q 438 165 339 165 l 971 165 l 971 0 l 438 0 q 153 119 271 0 q 34 404 34 237 m 460 1709 l 749 1709 l 567 1465 l 380 1465 l 460 1709 z "},"":{"ha":1005,"x_min":34,"x_max":971,"o":"m 254 1356 l 418 1356 l 418 441 q 435 402 418 419 q 473 385 452 385 l 971 385 l 971 220 l 434 220 q 307 273 359 220 q 254 400 254 326 l 254 1356 m 34 404 l 34 1356 l 199 1356 l 199 404 q 269 235 199 305 q 438 165 339 165 l 971 165 l 971 0 l 438 0 q 153 119 271 0 q 34 404 34 237 m 408 -212 q 391 -193 398 -203 q 375 -117 364 -156 q 427 -59 386 -78 q 516 -54 468 -41 q 590 -104 564 -67 q 605 -180 616 -141 q 598 -198 602 -190 q 468 -382 541 -340 q 303 -403 390 -425 l 240 -386 l 284 -227 l 347 -243 q 386 -239 368 -249 q 408 -212 403 -229 z "},"":{"ha":1005,"x_min":34,"x_max":971,"o":"m 254 1356 l 418 1356 l 418 441 q 435 402 418 419 q 473 385 452 385 l 967 385 l 967 220 l 434 220 q 307 273 359 220 q 254 400 254 326 l 254 1356 m 34 404 l 34 1356 l 199 1356 l 199 404 q 269 235 199 305 q 438 165 339 165 l 971 165 l 971 0 l 438 0 q 153 119 271 0 q 34 404 34 237 m 408 -212 q 391 -193 398 -203 q 375 -117 364 -156 q 427 -59 386 -78 q 516 -54 468 -41 q 590 -104 564 -67 q 605 -180 616 -141 q 598 -198 602 -190 q 468 -382 541 -340 q 303 -403 390 -425 l 240 -386 l 284 -227 l 347 -243 q 386 -239 368 -249 q 408 -212 403 -229 z "},"":{"ha":1219,"x_min":34,"x_max":1185,"o":"m 1019 1191 l 766 1191 l 766 1356 l 1185 1356 l 1185 917 q 1057 610 1185 738 q 749 483 930 483 l 684 483 l 684 648 l 749 648 q 940 727 861 648 q 1019 917 1019 806 l 1019 1191 m 800 971 l 766 971 l 766 1137 l 965 1137 l 965 917 q 903 766 966 830 q 749 703 839 704 l 684 703 l 684 868 l 749 868 q 786 883 771 868 q 800 917 801 898 l 800 971 m 254 1356 l 418 1356 l 418 441 q 435 402 418 419 q 473 385 452 385 l 967 385 l 967 220 l 434 220 q 307 273 359 220 q 254 400 254 326 l 254 1356 m 34 404 l 34 1356 l 199 1356 l 199 404 q 269 235 199 305 q 438 165 339 165 l 971 165 l 971 0 l 438 0 q 153 119 271 0 q 34 404 34 237 z "},"":{"ha":1219,"x_min":34,"x_max":1185,"o":"m 1019 1191 l 766 1191 l 766 1356 l 1185 1356 l 1185 917 q 1057 610 1185 738 q 749 483 930 483 l 684 483 l 684 648 l 749 648 q 940 727 861 648 q 1019 917 1019 806 l 1019 1191 m 800 971 l 766 971 l 766 1137 l 965 1137 l 965 917 q 903 766 966 830 q 749 703 839 704 l 684 703 l 684 868 l 749 868 q 786 883 771 868 q 800 917 801 898 l 800 971 m 254 1356 l 418 1356 l 418 441 q 435 402 418 419 q 473 385 452 385 l 967 385 l 967 220 l 434 220 q 307 273 359 220 q 254 400 254 326 l 254 1356 m 34 404 l 34 1356 l 199 1356 l 199 404 q 269 235 199 305 q 438 165 339 165 l 971 165 l 971 0 l 438 0 q 153 119 271 0 q 34 404 34 237 z "},"":{"ha":1087,"x_min":34,"x_max":1053,"o":"m 254 1356 l 418 1356 l 418 441 q 435 402 418 419 q 473 385 452 385 l 971 385 l 971 220 l 434 220 q 307 273 359 220 q 254 400 254 326 l 254 1356 m 34 404 l 34 1356 l 199 1356 l 199 404 q 269 235 199 305 q 438 165 339 165 l 971 165 l 971 0 l 438 0 q 153 119 271 0 q 34 404 34 237 m 799 696 q 720 728 752 696 q 687 807 687 761 q 720 886 687 853 q 799 918 752 918 q 878 886 845 918 q 910 807 910 853 q 878 728 910 761 q 799 696 845 696 m 799 552 q 618 627 693 552 q 544 807 544 701 q 618 987 544 913 q 799 1062 693 1062 q 979 987 904 1062 q 1053 807 1053 913 q 979 627 1053 701 q 799 552 904 552 m 799 650 q 909 696 863 650 q 955 807 955 742 q 909 918 955 872 q 799 964 863 964 q 688 918 734 964 q 642 807 642 872 q 688 696 642 742 q 799 650 734 650 z "},"":{"ha":1087,"x_min":34,"x_max":1053,"o":"m 254 1356 l 418 1356 l 418 441 q 435 402 418 419 q 473 385 452 385 l 967 385 l 967 220 l 434 220 q 307 273 359 220 q 254 400 254 326 l 254 1356 m 34 404 l 34 1356 l 199 1356 l 199 404 q 269 235 199 305 q 438 165 339 165 l 971 165 l 971 0 l 438 0 q 153 119 271 0 q 34 404 34 237 m 799 696 q 720 728 752 696 q 687 807 687 761 q 720 886 687 853 q 799 918 752 918 q 878 886 845 918 q 910 807 910 853 q 878 728 910 761 q 799 696 845 696 m 799 552 q 618 627 693 552 q 544 807 544 701 q 618 987 544 913 q 799 1062 693 1062 q 979 987 904 1062 q 1053 807 1053 913 q 979 627 1053 701 q 799 552 904 552 m 799 650 q 909 696 863 650 q 955 807 955 742 q 909 918 955 872 q 799 964 863 964 q 688 918 734 964 q 642 807 642 872 q 688 696 642 742 q 799 650 734 650 z "},"":{"ha":1173,"x_min":34,"x_max":1139,"o":"m 419 917 l 822 218 q 844 187 827 205 q 898 165 867 165 q 951 188 929 165 q 974 243 974 210 l 974 1356 l 1139 1356 l 1139 243 q 1069 71 1139 141 q 898 0 998 0 q 727 71 798 0 q 699 103 711 85 l 697 102 l 419 585 l 419 0 l 252 0 l 252 1114 q 260 1131 252 1123 q 277 1138 267 1138 q 294 1131 288 1138 q 419 917 297 1127 m 754 439 l 351 1138 q 330 1169 346 1152 q 275 1191 307 1191 q 222 1168 244 1191 q 199 1114 199 1146 l 199 0 l 34 0 l 34 1114 q 104 1286 34 1215 q 275 1356 175 1356 q 446 1286 376 1356 q 475 1253 463 1271 l 476 1255 l 754 772 l 754 1356 l 921 1356 l 921 243 q 913 226 921 233 q 897 218 906 218 q 879 227 886 218 q 754 439 876 229 m 564 1709 l 852 1709 l 671 1465 l 484 1465 l 564 1709 z "},"":{"ha":1426,"x_min":34,"x_max":1392,"o":"m 1100 955 q 1153 1083 1100 1029 q 1282 1137 1206 1137 l 1392 1137 l 1392 972 l 1320 972 q 1282 956 1298 972 q 1265 918 1265 940 l 1265 243 q 1195 71 1265 141 q 1024 0 1124 0 q 853 71 924 0 q 825 103 837 85 l 545 585 l 545 406 q 426 119 544 237 q 140 0 308 0 l 34 0 l 34 165 l 140 165 q 310 236 240 165 q 378 406 380 307 l 378 1114 q 386 1131 378 1123 q 403 1138 393 1138 q 420 1131 414 1138 q 948 218 423 1127 q 970 187 954 205 q 1024 165 993 165 q 1078 188 1055 165 q 1100 243 1100 210 l 1100 955 m 880 951 q 1000 1238 882 1119 q 1286 1356 1118 1356 l 1392 1356 l 1392 1191 l 1287 1191 q 1117 1120 1187 1191 q 1047 951 1047 1050 l 1047 244 q 1040 227 1047 235 q 1023 220 1032 220 q 1005 228 1012 220 q 477 1138 1002 231 q 456 1169 472 1152 q 401 1191 433 1191 q 348 1168 370 1191 q 326 1114 326 1146 l 326 401 q 273 273 326 327 q 144 220 220 220 l 34 220 l 34 385 l 106 385 q 144 401 127 385 q 160 439 160 418 l 160 1114 q 231 1286 160 1215 q 401 1356 301 1356 q 572 1286 502 1356 q 601 1253 589 1271 l 880 772 l 880 951 m 670 1709 l 959 1709 l 777 1465 l 590 1465 l 670 1709 z "},"":{"ha":1173,"x_min":34,"x_max":1139,"o":"m 419 917 l 822 218 q 844 187 827 205 q 898 165 867 165 q 951 188 929 165 q 974 243 974 210 l 974 1356 l 1139 1356 l 1139 243 q 1069 71 1139 141 q 898 0 998 0 q 727 71 798 0 q 699 103 711 85 l 697 102 l 419 585 l 419 0 l 252 0 l 252 1114 q 260 1131 252 1123 q 277 1138 267 1138 q 294 1131 288 1138 q 419 917 297 1127 m 754 439 l 351 1138 q 330 1169 346 1152 q 275 1191 307 1191 q 222 1168 244 1191 q 199 1114 199 1146 l 199 0 l 34 0 l 34 1114 q 104 1286 34 1215 q 275 1356 175 1356 q 446 1286 376 1356 q 475 1253 463 1271 l 476 1255 l 754 772 l 754 1356 l 921 1356 l 921 243 q 913 226 921 233 q 897 218 906 218 q 879 227 886 218 q 754 439 876 229 m 534 -212 q 517 -193 525 -203 q 502 -117 491 -156 q 554 -59 513 -78 q 643 -54 595 -41 q 716 -104 690 -67 q 732 -180 743 -141 q 725 -198 729 -190 q 595 -382 668 -340 q 430 -403 517 -425 l 367 -386 l 411 -227 l 473 -243 q 513 -239 494 -249 q 534 -212 530 -229 z "},"":{"ha":1426,"x_min":34,"x_max":1392,"o":"m 1100 955 q 1153 1083 1100 1029 q 1282 1137 1206 1137 l 1392 1137 l 1392 972 l 1320 972 q 1282 956 1298 972 q 1265 918 1265 940 l 1265 243 q 1195 71 1265 141 q 1024 0 1124 0 q 853 71 924 0 q 825 103 837 85 l 545 585 l 545 406 q 426 119 544 237 q 140 0 308 0 l 34 0 l 34 165 l 140 165 q 310 236 240 165 q 378 406 380 307 l 378 1114 q 386 1131 378 1123 q 403 1138 393 1138 q 420 1131 414 1138 q 948 218 423 1127 q 970 187 954 205 q 1024 165 993 165 q 1078 188 1055 165 q 1100 243 1100 210 l 1100 955 m 880 951 q 1000 1238 882 1119 q 1286 1356 1118 1356 l 1392 1356 l 1392 1191 l 1287 1191 q 1117 1120 1187 1191 q 1047 951 1047 1050 l 1047 244 q 1040 227 1047 235 q 1023 220 1032 220 q 1005 228 1012 220 q 477 1138 1002 231 q 456 1169 472 1152 q 401 1191 433 1191 q 348 1168 370 1191 q 326 1114 326 1146 l 326 401 q 273 273 326 327 q 144 220 220 220 l 34 220 l 34 385 l 106 385 q 144 401 127 385 q 160 439 160 418 l 160 1114 q 231 1286 160 1215 q 401 1356 301 1356 q 572 1286 502 1356 q 601 1253 589 1271 l 880 772 l 880 951 m 638 -212 q 621 -193 629 -203 q 606 -117 595 -156 q 657 -59 616 -78 q 747 -54 699 -41 q 820 -104 794 -67 q 836 -180 846 -141 q 829 -198 833 -190 q 699 -382 772 -340 q 534 -403 621 -425 l 471 -386 l 515 -227 l 577 -243 q 616 -239 598 -249 q 638 -212 633 -229 z "},"":{"ha":1173,"x_min":34,"x_max":1139,"o":"m 419 917 l 822 218 q 844 187 827 205 q 898 165 867 165 q 951 188 929 165 q 974 243 974 210 l 974 1356 l 1139 1356 l 1139 243 q 1069 71 1139 141 q 898 0 998 0 q 727 71 798 0 q 699 103 711 85 l 697 102 l 419 585 l 419 0 l 252 0 l 252 1114 q 260 1131 252 1123 q 277 1138 267 1138 q 294 1131 288 1138 q 419 917 297 1127 m 754 439 l 351 1138 q 330 1169 346 1152 q 275 1191 307 1191 q 222 1168 244 1191 q 199 1114 199 1146 l 199 0 l 34 0 l 34 1114 q 104 1286 34 1215 q 275 1356 175 1356 q 446 1286 376 1356 q 475 1253 463 1271 l 476 1255 l 754 772 l 754 1356 l 921 1356 l 921 243 q 913 226 921 233 q 897 218 906 218 q 879 227 886 218 q 754 439 876 229 m 669 1709 l 898 1709 l 727 1465 l 446 1465 l 275 1709 l 505 1709 l 586 1592 l 669 1709 z "},"":{"ha":1426,"x_min":34,"x_max":1392,"o":"m 1100 955 q 1153 1083 1100 1029 q 1282 1137 1206 1137 l 1392 1137 l 1392 972 l 1320 972 q 1282 956 1298 972 q 1265 918 1265 940 l 1265 243 q 1195 71 1265 141 q 1024 0 1124 0 q 853 71 924 0 q 825 103 837 85 l 545 585 l 545 406 q 426 119 544 237 q 140 0 308 0 l 34 0 l 34 165 l 140 165 q 310 236 240 165 q 378 406 380 307 l 378 1114 q 386 1131 378 1123 q 403 1138 393 1138 q 420 1131 414 1138 q 948 218 423 1127 q 970 187 954 205 q 1024 165 993 165 q 1078 188 1055 165 q 1100 243 1100 210 l 1100 955 m 880 951 q 1000 1238 882 1119 q 1286 1356 1118 1356 l 1392 1356 l 1392 1191 l 1287 1191 q 1117 1120 1187 1191 q 1047 951 1047 1050 l 1047 244 q 1040 227 1047 235 q 1023 220 1032 220 q 1005 228 1012 220 q 477 1138 1002 231 q 456 1169 472 1152 q 401 1191 433 1191 q 348 1168 370 1191 q 326 1114 326 1146 l 326 401 q 273 273 326 327 q 144 220 220 220 l 34 220 l 34 385 l 106 385 q 144 401 127 385 q 160 439 160 418 l 160 1114 q 231 1286 160 1215 q 401 1356 301 1356 q 572 1286 502 1356 q 601 1253 589 1271 l 880 772 l 880 951 m 795 1709 l 1024 1709 l 853 1465 l 572 1465 l 401 1709 l 631 1709 l 712 1592 l 795 1709 z "},"":{"ha":1877,"x_min":34,"x_max":1843,"o":"m 369 1299 l 115 1299 l 115 1465 l 534 1465 l 534 1025 q 407 719 534 846 q 99 591 279 591 l 34 591 l 34 757 l 99 757 q 290 836 210 757 q 369 1025 369 914 l 369 1299 m 149 1080 l 115 1080 l 115 1245 l 315 1245 l 315 1025 q 252 875 316 939 q 99 811 189 812 l 34 811 l 34 977 l 99 977 q 136 991 121 977 q 149 1025 151 1006 l 149 1080 m 1552 955 q 1605 1083 1552 1029 q 1733 1137 1657 1137 l 1843 1137 l 1843 972 l 1771 972 q 1733 956 1750 972 q 1717 918 1717 940 l 1717 243 q 1647 71 1717 141 q 1476 0 1576 0 q 1305 71 1375 0 q 1276 103 1289 85 l 997 585 l 997 406 q 878 119 996 237 q 591 0 760 0 l 486 0 l 486 165 l 591 165 q 762 236 692 165 q 830 406 831 307 l 830 1114 q 838 1131 830 1123 q 854 1138 845 1138 q 872 1131 865 1138 q 1400 218 875 1127 q 1421 187 1405 205 q 1476 165 1444 165 q 1529 188 1507 165 q 1552 243 1552 210 l 1552 955 m 1332 951 q 1451 1238 1333 1119 q 1737 1356 1569 1356 l 1843 1356 l 1843 1191 l 1739 1191 q 1569 1120 1638 1191 q 1499 951 1499 1050 l 1499 244 q 1491 227 1499 235 q 1474 220 1484 220 q 1457 228 1463 220 q 929 1138 1454 231 q 907 1169 924 1152 q 853 1191 884 1191 q 800 1168 822 1191 q 777 1114 777 1146 l 777 401 q 724 273 777 327 q 595 220 671 220 l 486 220 l 486 385 l 557 385 q 595 401 579 385 q 612 439 612 418 l 612 1114 q 682 1286 612 1215 q 853 1356 753 1356 q 1024 1286 954 1356 q 1053 1253 1040 1271 l 1332 772 l 1332 951 z "},"":{"ha":1084,"x_min":34,"x_max":1050,"o":"m 666 829 q 630 916 666 880 q 543 952 594 952 q 454 916 491 952 q 418 829 418 880 l 418 0 l 252 0 l 252 829 q 338 1033 252 948 q 543 1118 423 1118 q 747 1033 662 1118 q 831 829 831 948 l 831 481 q 747 277 831 361 q 543 192 662 192 l 543 357 q 630 393 594 357 q 666 481 666 429 l 666 829 m 254 1356 l 419 1356 l 419 1322 q 543 1336 478 1336 q 901 1187 753 1336 q 1050 829 1050 1039 l 1050 479 q 902 121 1050 269 q 543 -28 754 -28 l 543 138 q 785 239 684 138 q 886 481 886 340 l 886 829 q 785 1071 886 970 q 543 1172 684 1172 q 419 1150 476 1172 q 299 1071 353 1125 q 254 1016 273 1045 l 254 1356 m 198 0 l 34 0 l 34 1356 l 198 1356 l 198 0 z "},"":{"ha":1084,"x_min":34,"x_max":1050,"o":"m 666 829 q 630 916 666 880 q 543 952 594 952 q 454 916 491 952 q 418 829 418 880 l 418 0 l 252 0 l 252 829 q 338 1033 252 948 q 543 1118 423 1118 q 747 1033 662 1118 q 831 829 831 948 l 831 210 q 747 5 831 90 q 543 -79 662 -79 l 543 86 q 630 122 594 86 q 666 210 666 158 l 666 829 m 254 1356 l 419 1356 l 419 1322 q 543 1336 478 1336 q 901 1187 753 1336 q 1050 829 1050 1039 l 1050 208 q 902 -151 1050 -2 q 543 -299 754 -299 l 543 -134 q 785 -33 684 -134 q 886 210 886 68 l 886 829 q 785 1071 886 970 q 543 1172 684 1172 q 419 1150 476 1172 q 299 1071 353 1125 q 254 1016 273 1045 l 254 1356 m 198 0 l 34 0 l 34 1356 l 198 1356 l 198 0 z "},"":{"ha":1426,"x_min":34,"x_max":1392,"o":"m 712 220 q 389 354 524 220 q 255 678 255 488 q 389 1002 255 867 q 712 1137 524 1137 q 1035 1002 901 1137 q 1169 678 1169 867 q 1035 354 1169 488 q 712 220 901 220 m 712 972 q 505 886 591 972 q 419 680 419 800 q 505 471 419 557 q 712 385 591 385 q 919 471 833 385 q 1005 680 1005 557 q 919 886 1005 800 q 712 972 833 972 m 712 1191 q 350 1041 500 1191 q 199 680 199 891 q 350 315 199 465 q 712 165 500 165 q 1074 315 924 165 q 1225 680 1225 465 q 1074 1041 1225 891 q 712 1191 924 1191 m 712 0 q 233 199 431 0 q 34 678 34 397 q 233 1157 34 958 q 712 1356 431 1356 q 1192 1157 993 1356 q 1392 678 1392 958 q 1192 199 1392 397 q 712 0 993 0 m 456 1630 l 970 1630 l 970 1465 l 456 1465 l 456 1630 z "},"":{"ha":1426,"x_min":34,"x_max":1392,"o":"m 712 220 q 389 354 524 220 q 255 678 255 488 q 389 1002 255 867 q 712 1137 524 1137 q 1035 1002 901 1137 q 1169 678 1169 867 q 1035 354 1169 488 q 712 220 901 220 m 712 972 q 505 886 591 972 q 419 680 419 800 q 505 471 419 557 q 712 385 591 385 q 919 471 833 385 q 1005 680 1005 557 q 919 886 1005 800 q 712 972 833 972 m 712 1191 q 350 1041 500 1191 q 199 680 199 891 q 350 315 199 465 q 712 165 500 165 q 1074 315 924 165 q 1225 680 1225 465 q 1074 1041 1225 891 q 712 1191 924 1191 m 712 0 q 233 199 431 0 q 34 678 34 397 q 233 1157 34 958 q 712 1356 431 1356 q 1192 1157 993 1356 q 1392 678 1392 958 q 1192 199 1392 397 q 712 0 993 0 m 456 1630 l 970 1630 l 970 1465 l 456 1465 l 456 1630 z "},"":{"ha":1426,"x_min":34,"x_max":1392,"o":"m 712 220 q 389 354 524 220 q 255 678 255 488 q 389 1002 255 867 q 712 1137 524 1137 q 1035 1002 901 1137 q 1169 678 1169 867 q 1035 354 1169 488 q 712 220 901 220 m 712 972 q 505 886 591 972 q 419 680 419 800 q 505 471 419 557 q 712 385 591 385 q 919 471 833 385 q 1005 680 1005 557 q 919 886 1005 800 q 712 972 833 972 m 712 1191 q 350 1041 500 1191 q 199 680 199 891 q 350 315 199 465 q 712 165 500 165 q 1074 315 924 165 q 1225 680 1225 465 q 1074 1041 1225 891 q 712 1191 924 1191 m 712 0 q 233 199 431 0 q 34 678 34 397 q 233 1157 34 958 q 712 1356 431 1356 q 1192 1157 993 1356 q 1392 678 1392 958 q 1192 199 1392 397 q 712 0 993 0 m 604 1706 q 635 1629 604 1662 q 713 1596 667 1596 q 790 1629 758 1596 q 822 1706 822 1662 l 955 1706 q 884 1536 955 1607 q 713 1465 813 1465 q 542 1536 613 1465 q 471 1706 471 1607 l 604 1706 z "},"":{"ha":1426,"x_min":34,"x_max":1392,"o":"m 712 220 q 389 354 524 220 q 255 678 255 488 q 389 1002 255 867 q 712 1137 524 1137 q 1035 1002 901 1137 q 1169 678 1169 867 q 1035 354 1169 488 q 712 220 901 220 m 712 972 q 505 886 591 972 q 419 680 419 800 q 505 471 419 557 q 712 385 591 385 q 919 471 833 385 q 1005 680 1005 557 q 919 886 1005 800 q 712 972 833 972 m 712 1191 q 350 1041 500 1191 q 199 680 199 891 q 350 315 199 465 q 712 165 500 165 q 1074 315 924 165 q 1225 680 1225 465 q 1074 1041 1225 891 q 712 1191 924 1191 m 712 0 q 233 199 431 0 q 34 678 34 397 q 233 1157 34 958 q 712 1356 431 1356 q 1192 1157 993 1356 q 1392 678 1392 958 q 1192 199 1392 397 q 712 0 993 0 m 604 1706 q 635 1629 604 1662 q 713 1596 667 1596 q 790 1629 758 1596 q 822 1706 822 1662 l 955 1706 q 884 1536 955 1607 q 713 1465 813 1465 q 542 1536 613 1465 q 471 1706 471 1607 l 604 1706 z "},"":{"ha":1426,"x_min":34,"x_max":1392,"o":"m 712 220 q 389 354 524 220 q 255 678 255 488 q 389 1002 255 867 q 712 1137 524 1137 q 1035 1002 901 1137 q 1169 678 1169 867 q 1035 354 1169 488 q 712 220 901 220 m 712 972 q 505 886 591 972 q 419 680 419 800 q 505 471 419 557 q 712 385 591 385 q 919 471 833 385 q 1005 680 1005 557 q 919 886 1005 800 q 712 972 833 972 m 712 1191 q 350 1041 500 1191 q 199 680 199 891 q 350 315 199 465 q 712 165 500 165 q 1074 315 924 165 q 1225 680 1225 465 q 1074 1041 1225 891 q 712 1191 924 1191 m 712 0 q 233 199 431 0 q 34 678 34 397 q 233 1157 34 958 q 712 1356 431 1356 q 1192 1157 993 1356 q 1392 678 1392 958 q 1192 199 1392 397 q 712 0 993 0 m 504 1709 l 711 1709 l 530 1465 l 424 1465 l 504 1709 m 794 1709 l 1002 1709 l 820 1465 l 714 1465 l 794 1709 z "},"":{"ha":1426,"x_min":34,"x_max":1392,"o":"m 712 220 q 389 354 524 220 q 255 678 255 488 q 389 1002 255 867 q 712 1137 524 1137 q 1035 1002 901 1137 q 1169 678 1169 867 q 1035 354 1169 488 q 712 220 901 220 m 712 972 q 505 886 591 972 q 419 680 419 800 q 505 471 419 557 q 712 385 591 385 q 919 471 833 385 q 1005 680 1005 557 q 919 886 1005 800 q 712 972 833 972 m 712 1191 q 350 1041 500 1191 q 199 680 199 891 q 350 315 199 465 q 712 165 500 165 q 1074 315 924 165 q 1225 680 1225 465 q 1074 1041 1225 891 q 712 1191 924 1191 m 712 0 q 233 199 431 0 q 34 678 34 397 q 233 1157 34 958 q 712 1356 431 1356 q 1192 1157 993 1356 q 1392 678 1392 958 q 1192 199 1392 397 q 712 0 993 0 m 504 1709 l 711 1709 l 530 1465 l 424 1465 l 504 1709 m 794 1709 l 1002 1709 l 820 1465 l 714 1465 l 794 1709 z "},"":{"ha":1104,"x_min":34,"x_max":1070,"o":"m 1070 220 l 905 220 q 756 283 818 221 q 694 430 694 345 q 757 578 694 517 q 773 594 769 590 q 785 606 779 600 q 884 849 884 707 q 784 1090 884 990 q 543 1191 684 1191 q 300 1090 400 1191 q 199 849 199 990 l 199 0 l 34 0 l 34 849 q 183 1207 34 1058 q 543 1356 332 1356 q 901 1207 753 1356 q 1050 849 1050 1058 q 902 490 1050 637 q 886 475 894 483 q 872 463 884 475 q 859 430 859 449 q 872 399 859 412 q 905 385 886 385 l 1070 385 l 1070 220 m 1070 0 l 905 0 q 601 126 727 0 q 475 430 475 252 q 601 735 475 608 q 632 764 616 750 q 666 849 666 799 q 629 936 666 899 q 543 972 593 972 q 454 936 491 972 q 419 849 418 899 l 419 0 l 254 0 l 254 849 q 337 1052 252 967 q 543 1137 422 1137 q 747 1052 662 1137 q 831 849 831 967 q 745 642 831 728 q 718 617 731 631 q 639 430 639 540 q 717 243 639 321 q 905 165 795 165 l 1070 165 l 1070 0 m 509 1709 l 798 1709 l 616 1465 l 429 1465 l 509 1709 z "}}}
